<svg width="21" height="20" viewBox="0 0 21 20" fill="none" xmlns="http://www.w3.org/2000/svg">
<path d="M16.8812 7.54801C16.8812 7.79933 16.6727 8.00775 16.4214 8.00775H5.38748C5.13615 8.00775 4.92773 7.79933 4.92773 7.54801C4.92773 7.29668 5.13615 7.08826 5.38748 7.08826H6.01274L6.24568 5.97874C6.46636 4.90599 6.9261 3.91907 8.75283 3.91907H13.0561C14.8828 3.91907 15.3425 4.90599 15.5632 5.97874L15.7962 7.08826H16.4214C16.6727 7.08826 16.8812 7.29668 16.8812 7.54801Z" fill="#16215B"/>
<path d="M17.1447 11.0176C17.0527 10.0061 16.783 8.92725 14.8153 8.92725H6.99347C5.02575 8.92725 4.76216 10.0061 4.66408 11.0176L4.3208 14.7507C4.27789 15.2166 4.43114 15.6825 4.7499 16.0319C5.07479 16.3874 5.53453 16.5897 6.02493 16.5897H7.17736C8.17042 16.5897 8.36045 16.0196 8.48305 15.6457L8.60565 15.2779C8.74664 14.8549 8.78341 14.7507 9.33511 14.7507H12.4737C13.0254 14.7507 13.0437 14.812 13.2031 15.2779L13.3257 15.6457C13.4483 16.0196 13.6383 16.5897 14.6314 16.5897H15.7838C16.2681 16.5897 16.734 16.3874 17.0589 16.0319C17.3776 15.6825 17.5309 15.2166 17.488 14.7507L17.1447 11.0176ZM9.06539 12.2987H7.2264C6.97508 12.2987 6.76666 12.0903 6.76666 11.839C6.76666 11.5877 6.97508 11.3792 7.2264 11.3792H9.06539C9.31672 11.3792 9.52514 11.5877 9.52514 11.839C9.52514 12.0903 9.31672 12.2987 9.06539 12.2987ZM14.5824 12.2987H12.7434C12.492 12.2987 12.2836 12.0903 12.2836 11.839C12.2836 11.5877 12.492 11.3792 12.7434 11.3792H14.5824C14.8337 11.3792 15.0421 11.5877 15.0421 11.839C15.0421 12.0903 14.8337 12.2987 14.5824 12.2987Z" fill="#16215B"/>
</svg>
