<svg width="55" height="54" viewBox="0 0 55 54" fill="none" xmlns="http://www.w3.org/2000/svg">
<path d="M37.0001 10.3333H21.3334L22.6667 12.9999L28.6667 26.3333L35.3334 40.8333L36.6667 43.4999H37.3334C41.1667 43.4999 44.3334 40.3333 44.3334 36.4999V17.3333C44.0001 13.4999 40.8334 10.3333 37.0001 10.3333Z" fill="#30D1FF"/>
<path d="M13.5001 32.3333L25.5001 26.3333L19.5001 13.1666L18.8334 11.6666L18.1667 10.3333H17.6667C13.8334 10.3333 10.6667 13.4999 10.6667 17.3333V33.8333L12.0001 33.1666L13.5001 32.3333Z" fill="#30D1FF"/>
<path d="M32.1667 40.8333L26.6667 28.8333L13.5001 35.4999L12.1667 36.1666L10.6667 36.8333C10.6667 40.6666 13.8334 43.6666 17.6667 43.6666H33.5001L32.8334 42.3333L32.1667 40.8333Z" fill="#30D1FF"/>
</svg>
