<svg width="32" height="32" viewBox="0 0 32 32" fill="none" xmlns="http://www.w3.org/2000/svg">
<g clip-path="url(#clip0_5485_76770)">
<circle cx="16" cy="16" r="16" fill="#16215B"/>
<path d="M19.0005 14.4992C18.2001 15.1995 17.0996 15.4997 15.9991 15.4997C14.8985 15.4997 13.8981 15.0995 12.9976 14.4992C12.1972 15.1995 11.0967 15.4997 9.99619 15.4997C9.29585 15.4997 8.59551 15.2996 7.99523 14.9994V20.9023C7.99523 23.2034 9.69604 25.0042 11.797 25.0042H13.8981C14.3983 25.0042 14.7985 24.604 14.7985 24.0037V21.0023C14.7985 20.302 15.2987 19.7017 15.9991 19.7017C16.6994 19.7017 17.1996 20.302 17.1996 21.0023V24.0037C17.1996 24.504 17.5998 25.0042 18.1001 25.0042H20.2011C22.3021 25.0042 24.0029 23.2034 24.0029 21.1024V15.0995C23.4026 15.3996 22.7023 15.5997 22.0019 15.5997C20.8014 15.5997 19.8009 15.1995 19.0005 14.4992Z" fill="white"/>
<path d="M25.8038 9.39676L25.3035 7.99608C25.1034 7.3958 24.5031 6.99561 23.8028 6.99561H8.19532C7.49499 6.99561 6.8947 7.3958 6.6946 7.99608L6.19437 9.39676C5.69413 10.6974 6.19436 12.098 7.29489 12.8984C7.89518 13.3987 8.69556 13.5988 9.49595 13.5988C10.5965 13.5988 11.4969 13.0985 12.0972 12.3982C12.2973 12.1981 12.4974 12.098 12.7975 12.098C12.9976 12.098 13.2978 12.1981 13.4979 12.3982C13.9981 13.1986 14.8985 13.6988 15.9991 13.6988C17.0996 13.6988 18 13.1986 18.6003 12.4982C18.8004 12.2981 19.0005 12.1981 19.3006 12.1981C19.6008 12.1981 19.8009 12.2981 20.001 12.4982C20.6013 13.1986 21.5017 13.6988 22.6022 13.6988C23.5027 13.6988 24.203 13.3987 24.8033 12.9985C25.8038 12.098 26.304 10.7974 25.8038 9.39676Z" fill="white"/>
</g>
<defs>
<clipPath id="clip0_5485_76770">
<rect width="32" height="32" fill="white"/>
</clipPath>
</defs>
</svg>
