<svg width="32" height="32" viewBox="0 0 32 32" fill="none" xmlns="http://www.w3.org/2000/svg">
<circle cx="16" cy="16" r="16" fill="#16215B"/>
<path d="M23.1732 9.65494L17.7248 6.47673C16.6352 5.84109 15.2731 5.84109 14.1834 6.47673L8.82587 9.65494C7.64539 10.2906 6.91895 11.6527 6.91895 13.0148V19.0079C6.91895 20.37 7.64539 21.7321 8.82587 22.3678L14.2742 25.546C14.8191 25.8184 15.3639 26 15.9995 26C16.6352 26 17.18 25.8184 17.7248 25.546L23.1732 22.3678C24.3537 21.7321 25.0801 20.37 25.0801 19.0079V13.0148C25.0801 11.6527 24.3537 10.2906 23.1732 9.65494Z" fill="white"/>
<path d="M23.1732 12.0159C22.9008 11.6527 22.3559 11.471 21.9019 11.6527L15.9995 14.9217L10.0972 11.6527C9.64312 11.471 9.09829 11.6527 8.82587 12.0159C8.55345 12.3791 8.73506 13.0147 9.18909 13.2872L15.0915 16.4654V23.0942C15.0915 23.639 15.4547 24.0023 15.9995 24.0023C16.5444 24.0023 16.9076 23.639 16.9076 23.0942V16.4654L22.81 13.2872C23.264 13.0147 23.3548 12.4699 23.1732 12.0159Z" fill="#16215B"/>
</svg>
