<svg width="50" height="50" viewBox="0 0 50 50" fill="none" xmlns="http://www.w3.org/2000/svg">
<path d="M29.8008 22.5988C28.5202 23.7193 26.7593 24.1995 24.9985 24.1995C23.2377 24.1995 21.6369 23.5592 20.1962 22.5988C18.9156 23.7193 17.1547 24.1995 15.3939 24.1995C14.2734 24.1995 13.1528 23.8794 12.1924 23.3991V32.8437C12.1924 36.5254 14.9137 39.4068 18.2753 39.4068H21.6369C22.4373 39.4068 23.0776 38.7665 23.0776 37.806V33.0037C23.0776 31.8832 23.878 30.9228 24.9985 30.9228C26.119 30.9228 26.9194 31.8832 26.9194 33.0037V37.806C26.9194 38.6064 27.5597 39.4068 28.3601 39.4068H31.7217C35.0833 39.4068 37.8046 36.5254 37.8046 33.1638V23.5592C36.8442 24.0395 35.7236 24.3596 34.6031 24.3596C32.6822 24.3596 31.0814 23.7193 29.8008 22.5988Z" fill="#30D1FF"/>
<path d="M40.686 14.4349L39.8856 12.1938C39.5655 11.2333 38.605 10.593 37.4845 10.593H12.5125C11.392 10.593 10.4315 11.2333 10.1114 12.1938L9.31098 14.4349C8.5106 16.5159 9.31098 18.7569 11.0718 20.0375C12.0323 20.8379 13.3129 21.1581 14.5935 21.1581C16.3544 21.1581 17.795 20.3577 18.7555 19.2372C19.0757 18.917 19.3958 18.7569 19.876 18.7569C20.1962 18.7569 20.6764 18.917 20.9966 19.2372C21.797 20.5178 23.2377 21.3182 24.9985 21.3182C26.7593 21.3182 28.2 20.5178 29.1605 19.3972C29.4806 19.0771 29.8008 18.917 30.281 18.917C30.7613 18.917 31.0814 19.0771 31.4016 19.3972C32.362 20.5178 33.8027 21.3182 35.5636 21.3182C37.0042 21.3182 38.1248 20.8379 39.0852 20.1976C40.686 18.7569 41.4864 16.6759 40.686 14.4349Z" fill="#30D1FF"/>
</svg>
