<svg width="24" height="24" viewBox="0 0 24 24" fill="none" xmlns="http://www.w3.org/2000/svg">
<path d="M16.1791 2H7.8209C6.25373 2 5 3.21212 5 4.62626V10.3838C5 13.7172 7.61194 16.5455 10.9552 17.0505V19.9798H7.8209C7.19403 19.9798 6.77612 20.3838 6.77612 20.9899C6.77612 21.596 7.19403 22 7.8209 22H16.1791C16.806 22 17.2239 21.596 17.2239 20.9899C17.2239 20.3838 16.806 19.9798 16.1791 19.9798H13.0448V17.0505C16.3881 16.5455 19 13.8182 19 10.3838V4.62626C19 3.21212 17.7463 2 16.1791 2ZM16.9104 10.3838C16.9104 13.0101 14.7164 15.1313 12 15.1313C9.28358 15.1313 7.08955 13.0101 7.08955 10.3838V4.62626C7.08955 4.32323 7.40299 4.0202 7.8209 4.0202H16.1791C16.4925 4.0202 16.9104 4.32323 16.9104 4.62626V10.3838Z" fill="#0373FF"/>
<path d="M3 3C2.4 3 2 3.41558 2 4.03896V9.96104C2 10.5844 2.4 11 3 11C3.6 11 4 10.5844 4 9.96104V4.03896C4 3.51948 3.6 3 3 3Z" fill="#0373FF"/>
<path d="M21 3C20.4 3 20 3.41558 20 4.03896V9.96104C20 10.5844 20.4 11 21 11C21.6 11 22 10.5844 22 9.96104V4.03896C22 3.51948 21.6 3 21 3Z" fill="#0373FF"/>
</svg>
