<svg width="32" height="30" viewBox="0 0 32 30" fill="none" xmlns="http://www.w3.org/2000/svg">
<path d="M20.8008 12.5988C19.5202 13.7193 17.7593 14.1995 15.9985 14.1995C14.2377 14.1995 12.6369 13.5592 11.1962 12.5988C9.91558 13.7193 8.15474 14.1995 6.3939 14.1995C5.27336 14.1995 4.15282 13.8794 3.19236 13.3991V22.8437C3.19236 26.5254 5.91367 29.4068 9.27528 29.4068H12.6369C13.4373 29.4068 14.0776 28.7665 14.0776 27.806V23.0037C14.0776 21.8832 14.878 20.9228 15.9985 20.9228C17.119 20.9228 17.9194 21.8832 17.9194 23.0037V27.806C17.9194 28.6064 18.5597 29.4068 19.3601 29.4068H22.7217C26.0833 29.4068 28.8046 26.5254 28.8046 23.1638V13.5592C27.8442 14.0395 26.7236 14.3596 25.6031 14.3596C23.6822 14.3596 22.0814 13.7193 20.8008 12.5988Z" fill="#30D1FF"/>
<path d="M31.686 4.43486L30.8856 2.19378C30.5655 1.23332 29.605 0.593018 28.4845 0.593018H3.51252C2.39198 0.593018 1.43152 1.23332 1.11137 2.19378L0.310984 4.43486C-0.489399 6.51585 0.310984 8.75693 2.07183 10.0375C3.03229 10.8379 4.3129 11.1581 5.59351 11.1581C7.35436 11.1581 8.79505 10.3577 9.75551 9.23716C10.0757 8.917 10.3958 8.75693 10.876 8.75693C11.1962 8.75693 11.6764 8.917 11.9966 9.23716C12.797 10.5178 14.2377 11.3182 15.9985 11.3182C17.7593 11.3182 19.2 10.5178 20.1605 9.39723C20.4806 9.07708 20.8008 8.917 21.281 8.917C21.7613 8.917 22.0814 9.07708 22.4016 9.39723C23.362 10.5178 24.8027 11.3182 26.5636 11.3182C28.0042 11.3182 29.1248 10.8379 30.0852 10.1976C31.686 8.75693 32.4864 6.67593 31.686 4.43486Z" fill="#30D1FF"/>
</svg>
