<svg width="35" height="34" viewBox="0 0 35 34" fill="none" xmlns="http://www.w3.org/2000/svg">
<path d="M27.0001 0.333252H11.3334L12.6667 2.99992L18.6667 16.3333L25.3334 30.8333L26.6667 33.4999H27.3334C31.1667 33.4999 34.3334 30.3333 34.3334 26.4999V7.33325C34.0001 3.49992 30.8334 0.333252 27.0001 0.333252Z" fill="#30D1FF"/>
<path d="M3.50008 22.3333L15.5001 16.3333L9.50008 3.16659L8.83342 1.66659L8.16675 0.333252H7.66675C3.83341 0.333252 0.666748 3.49992 0.666748 7.33325V23.8333L2.00008 23.1666L3.50008 22.3333Z" fill="#30D1FF"/>
<path d="M22.1667 30.8333L16.6667 18.8333L3.50008 25.4999L2.16675 26.1666L0.666748 26.8333C0.666748 30.6666 3.83341 33.6666 7.66675 33.6666H23.5001L22.8334 32.3333L22.1667 30.8333Z" fill="#30D1FF"/>
</svg>
