<svg width="27" height="38" viewBox="0 0 27 38" fill="none" xmlns="http://www.w3.org/2000/svg">
<path d="M26.8334 23.2507C26.5001 13.118 20.1667 5.56136 16.5001 1.9548C14.8334 0.237396 12.1667 0.237396 10.5001 1.9548C6.83341 5.56136 0.500081 13.118 0.166748 23.0789C0.166748 23.2507 0.166748 23.5941 0.166748 23.7659C0.166748 31.1507 6.16675 37.3334 13.5001 37.3334C20.8334 37.3334 26.8334 31.3225 26.8334 23.7659C26.8334 23.5941 26.8334 23.4224 26.8334 23.2507ZM7.33342 28.7464C7.33342 28.5746 7.33342 28.5746 7.33342 28.4029C7.50008 23.9376 10.3334 20.5028 12.0001 18.7854C12.8334 17.9267 14.1667 17.9267 15.0001 18.7854C16.6667 20.5028 19.5001 23.7659 19.6667 28.4029C19.6667 28.4029 19.6667 28.5746 19.6667 28.7464C19.6667 30.6355 18.8334 32.3529 17.5001 33.3834C16.5001 34.4138 15.0001 35.1008 13.5001 35.1008C12.0001 35.1008 10.5001 34.5856 9.50008 33.5551C8.16675 32.3529 7.33342 30.6355 7.33342 28.7464Z" fill="#30D1FF"/>
</svg>
