<svg width="51" height="50" viewBox="0 0 51 50" fill="none" xmlns="http://www.w3.org/2000/svg">
<path d="M38.8334 29.2507C38.5001 19.118 32.1667 11.5614 28.5001 7.9548C26.8334 6.2374 24.1667 6.2374 22.5001 7.9548C18.8334 11.5614 12.5001 19.118 12.1667 29.0789C12.1667 29.2507 12.1667 29.5941 12.1667 29.7659C12.1667 37.1507 18.1667 43.3334 25.5001 43.3334C32.8334 43.3334 38.8334 37.3225 38.8334 29.7659C38.8334 29.5941 38.8334 29.4224 38.8334 29.2507ZM19.3334 34.7464C19.3334 34.5746 19.3334 34.5746 19.3334 34.4029C19.5001 29.9376 22.3334 26.5028 24.0001 24.7854C24.8334 23.9267 26.1667 23.9267 27.0001 24.7854C28.6667 26.5028 31.5001 29.7659 31.6667 34.4029C31.6667 34.4029 31.6667 34.5746 31.6667 34.7464C31.6667 36.6355 30.8334 38.3529 29.5001 39.3834C28.5001 40.4138 27.0001 41.1008 25.5001 41.1008C24.0001 41.1008 22.5001 40.5856 21.5001 39.5551C20.1667 38.3529 19.3334 36.6355 19.3334 34.7464Z" fill="#30D1FF"/>
</svg>
