<svg width="64" height="64" viewBox="0 0 64 64" fill="none" xmlns="http://www.w3.org/2000/svg">
<rect width="64" height="64" rx="8" fill="#FF4242"/>
<path fill-rule="evenodd" clip-rule="evenodd" d="M19.8276 43.3671C19.8276 42.7458 20.097 42.2421 20.4294 42.2421H36.4759C36.8082 42.2421 37.0776 42.7458 37.0776 43.3671C37.0776 43.9884 36.8082 44.4921 36.4759 44.4921H20.4294C20.097 44.4921 19.8276 43.9884 19.8276 43.3671Z" fill="white"/>
<path fill-rule="evenodd" clip-rule="evenodd" d="M22.0776 41.1171C22.0776 40.4958 22.2768 39.9921 22.5224 39.9921H34.3829C34.6285 39.9921 34.8276 40.4958 34.8276 41.1171C34.8276 41.7384 34.6285 42.2421 34.3829 42.2421H22.5224C22.2768 42.2421 22.0776 41.7384 22.0776 41.1171Z" fill="white"/>
<path fill-rule="evenodd" clip-rule="evenodd" d="M33.5899 29.4668C34.0293 29.0274 34.6292 28.915 34.9299 29.2157L44.0042 38.2901C44.3049 38.5908 44.1925 39.1907 43.7532 39.63C43.3139 40.0694 42.7139 40.1818 42.4133 39.8811L33.3389 30.8067C33.0382 30.506 33.1506 29.9061 33.5899 29.4668Z" fill="white"/>
<path fill-rule="evenodd" clip-rule="evenodd" d="M24.13 29.5535C24.5693 29.1142 25.0972 28.9298 25.309 29.1416L31.7014 35.534C31.9132 35.7458 31.7288 36.2737 31.2894 36.713C30.8501 37.1523 30.3222 37.3368 30.1104 37.125L23.718 30.7326C23.5062 30.5208 23.6906 29.9929 24.13 29.5535Z" fill="white"/>
<path fill-rule="evenodd" clip-rule="evenodd" d="M28.9029 24.7806C30.5139 23.1697 31.9915 22.0355 32.2033 22.2473L38.5957 28.6397C38.8075 28.8515 37.6733 30.3291 36.0624 31.94C34.4515 33.5509 32.9739 34.6851 32.762 34.4733L26.3697 28.0809C26.1578 27.8691 27.292 26.3915 28.9029 24.7806Z" fill="white"/>
<path fill-rule="evenodd" clip-rule="evenodd" d="M33.6759 20.0076C34.1152 19.5683 34.6431 19.3838 34.8549 19.5956L41.2473 25.988C41.4591 26.1998 41.2747 26.7277 40.8354 27.1671C40.396 27.6064 39.8682 27.7908 39.6563 27.579L33.264 21.1866C33.0521 20.9748 33.2366 20.4469 33.6759 20.0076Z" fill="white"/>
</svg>
