<svg width="20" height="20" viewBox="0 0 20 20" fill="none" xmlns="http://www.w3.org/2000/svg">
<path d="M17.1732 3.65494L11.7248 0.476731C10.6352 -0.15891 9.27309 -0.15891 8.18342 0.476731L2.82587 3.65494C1.64539 4.29058 0.918945 5.65267 0.918945 7.01476V13.0079C0.918945 14.37 1.64539 15.7321 2.82587 16.3678L8.27422 19.546C8.81906 19.8184 9.3639 20 9.99954 20C10.6352 20 11.18 19.8184 11.7248 19.546L17.1732 16.3678C18.3537 15.7321 19.0801 14.37 19.0801 13.0079V7.01476C19.0801 5.65267 18.3537 4.29058 17.1732 3.65494Z" fill="white"/>
<path d="M17.1732 6.01588C16.9008 5.65266 16.3559 5.47105 15.9019 5.65266L9.99953 8.92167L4.09715 5.65266C3.64312 5.47105 3.09829 5.65266 2.82587 6.01588C2.55345 6.37911 2.73506 7.01475 3.18909 7.28717L9.09148 10.4654V17.0942C9.09148 17.639 9.4547 18.0023 9.99953 18.0023C10.5444 18.0023 10.9076 17.639 10.9076 17.0942V10.4654L16.81 7.28717C17.264 7.01475 17.3548 6.46991 17.1732 6.01588Z" fill="#16215B"/>
</svg>
