<svg width="50" height="50" viewBox="0 0 50 50" fill="none" xmlns="http://www.w3.org/2000/svg">
<path d="M43.8548 17.9688C40.4674 13.3973 36.4823 9.42212 31.8995 6.04322C29.5084 4.45314 26.3203 4.6519 24.3278 6.83825L17.7523 13.5961C15.7598 15.5837 15.3613 18.7638 16.9553 20.9501C17.5531 21.7452 18.1508 22.5402 18.7486 23.3353L6.19553 35.8571C5.39851 36.4534 5 37.4472 5 38.4409V43.2112C5 44.205 5.79702 45 6.7933 45H11.5754C12.5717 45 13.3687 44.6025 14.1657 44.0062L26.7188 31.4844C27.5158 32.0807 28.3129 32.6769 29.1099 33.2732C31.501 34.8633 34.4898 34.4658 36.4823 32.4782L43.257 25.7204C45.2496 23.534 45.6481 20.3539 43.8548 17.9688ZM34.689 19.3601C34.0913 19.9564 33.4935 20.1551 32.6965 20.1551C31.8995 20.1551 31.3017 19.9564 30.7039 19.3601C29.7077 18.3663 29.7077 16.5774 30.7039 15.5837C31.7002 14.5899 33.4935 14.5899 34.4898 15.5837C35.6853 16.3787 35.6853 18.1675 34.689 19.3601Z" fill="#30D1FF"/>
</svg>
