<svg width="54" height="54" viewBox="0 0 54 54" fill="none" xmlns="http://www.w3.org/2000/svg">
<path d="M43.3799 22.7461C42.9247 21.2324 41.5589 20.0214 40.0413 19.87L33.6676 18.9617L30.7843 12.9067C30.0255 11.2415 28.6597 10.3333 26.9904 10.3333C25.3211 10.3333 23.9554 11.2415 23.1966 12.7553L20.3132 18.8103L13.9396 19.87C12.422 20.1727 11.0562 21.2324 10.601 22.7461C9.99394 24.4113 10.4492 26.0764 11.6632 27.2874L16.3676 31.9801L15.3053 38.6407C15.0018 40.3058 15.7606 41.971 17.1264 42.8792C17.8852 43.3333 18.6439 43.6361 19.5545 43.6361C20.3132 43.6361 20.9203 43.4847 21.5273 43.182L27.294 40.0031L33.0606 43.182C34.4264 43.9389 36.0957 43.7875 37.4615 42.8792C38.8273 41.971 39.5861 40.3058 39.2826 38.6407L38.2203 31.9801L42.9247 27.2874C43.5317 26.0764 43.987 24.2599 43.3799 22.7461Z" fill="#30D1FF"/>
</svg>
