<?xml version="1.0" encoding="utf-8"?>
<!-- Generator: Adobe Illustrator 21.0.0, SVG Export Plug-In . SVG Version: 6.00 Build 0)  -->
<svg version="1.1" id="Слой_1" xmlns="http://www.w3.org/2000/svg" xmlns:xlink="http://www.w3.org/1999/xlink" x="0px" y="0px"
	 viewBox="0 0 64.9 68.7" style="enable-background:new 0 0 64.9 68.7;" xml:space="preserve">
<style type="text/css">
	.st0{opacity:0.51;fill:url(#SVGID_1_);}
	.st1{fill:#005FAA;}
	.st2{fill:#EC1C24;}
	.st3{fill:#FFFFFF;}
</style>
<g>
	
		<radialGradient id="SVGID_1_" cx="305.8251" cy="164.1175" r="34.0692" gradientTransform="matrix(0.9528 0 0 1.0083 -258.9292 -131.1275)" gradientUnits="userSpaceOnUse">
		<stop  offset="0" style="stop-color:#646464"/>
		<stop  offset="1" style="stop-color:#606060;stop-opacity:0"/>
	</radialGradient>
	<ellipse class="st0" cx="32.5" cy="34.4" rx="32.5" ry="34.4"/>
	<g>
		<circle class="st1" cx="32.5" cy="28.5" r="24.5"/>
		<path class="st1" d="M32.5,44h19L42,55.9l-7.7,9.6c-0.9,1.1-2.8,1.1-3.7,0l-7.7-9.6L13.4,44H32.5z"/>
	</g>
	<g>
		<path class="st2" d="M44.6,16c-0.2,0-4.4,0-4.4,0c-3,0.1-5.8,1.5-7.6,3.8c-1.9-2.4-4.7-3.8-7.8-3.8h-4.6v2h4.6
			c2.7,0,5.3,1.4,6.7,3.7c0.4,0.6,0.7,1.3,0.9,2l0.2,0.6l0.2-0.6c0.2-0.7,0.5-1.4,0.9-2c1.5-2.3,4-3.7,6.7-3.7h2.4v11.3h2l0-13.3
			L44.6,16z"/>
		<path class="st3" d="M40.2,30.5c-2.6,0-4.6-2.1-4.6-4.6c0-2.6,2.1-4.6,4.6-4.6h1.3v-2h-1.3c-3.7,0-6.6,3-6.6,6.6s3,6.6,6.6,6.6
			h2.6l0,4.5c0,1.3-0.4,3.6-3.3,3.6h-3c-1.9,0-3.3,0.7-4.1,1.3c-0.8-0.6-2.2-1.3-4.1-1.3h-3c-2.8,0-3.3-2.2-3.3-3.6V21.2h2.6
			c2.6,0,4.6,2.1,4.6,4.6c0,2.6-2.1,4.6-4.6,4.6h-1.3v2l1.3,0c3.7,0,6.6-3,6.6-6.6s-3-6.6-6.6-6.6h-4.6V37c0,4.1,2.7,5.5,5.2,5.5h3
			c2.2,0,3.3,1.3,3.4,1.3l0.7,0.8l0.7-0.8c0,0,1.2-1.3,3.4-1.3h3c2.5,0,5.2-1.4,5.2-5.5l0-6.5H40.2z"/>
	</g>
</g>
</svg>
