<svg width="63" height="63" viewBox="0 0 63 63" fill="none" xmlns="http://www.w3.org/2000/svg">
<rect width="62.6665" height="62.6665" rx="16" fill="#1F299C"/>
<path d="M34.7232 24.5433L36.1332 27.3633C36.3232 27.7533 36.8332 28.1233 37.2632 28.2033L39.8132 28.6233C41.4432 28.8933 41.8232 30.0733 40.6532 31.2533L38.6632 33.2433C38.3332 33.5733 38.1432 34.2233 38.2532 34.6933L38.8232 37.1533C39.2732 39.0933 38.2332 39.8533 36.5232 38.8333L34.1332 37.4133C33.7032 37.1533 32.9832 37.1533 32.5532 37.4133L30.1632 38.8333C28.4532 39.8433 27.4132 39.0933 27.8632 37.1533L28.4332 34.6933C28.5232 34.2133 28.3332 33.5633 28.0032 33.2333L26.0132 31.2433C24.8432 30.0733 25.2232 28.8933 26.8532 28.6133L29.4032 28.1933C29.8332 28.1233 30.3432 27.7433 30.5332 27.3533L31.9432 24.5333C32.7132 23.0133 33.9532 23.0133 34.7232 24.5433Z" fill="white"/>
<path d="M27.3333 25.0833H21.3333C20.9233 25.0833 20.5833 24.7433 20.5833 24.3333C20.5833 23.9233 20.9233 23.5833 21.3333 23.5833H27.3333C27.7433 23.5833 28.0833 23.9233 28.0833 24.3333C28.0833 24.7433 27.7433 25.0833 27.3333 25.0833Z" fill="white"/>
<path d="M24.3333 39.0833H21.3333C20.9233 39.0833 20.5833 38.7433 20.5833 38.3333C20.5833 37.9233 20.9233 37.5833 21.3333 37.5833H24.3333C24.7433 37.5833 25.0833 37.9233 25.0833 38.3333C25.0833 38.7433 24.7433 39.0833 24.3333 39.0833Z" fill="white"/>
<path d="M22.3333 32.0833H21.3333C20.9233 32.0833 20.5833 31.7433 20.5833 31.3333C20.5833 30.9233 20.9233 30.5833 21.3333 30.5833H22.3333C22.7433 30.5833 23.0833 30.9233 23.0833 31.3333C23.0833 31.7433 22.7433 32.0833 22.3333 32.0833Z" fill="white"/>
</svg>
