<svg width="40" height="40" viewBox="0 0 40 40" fill="none" xmlns="http://www.w3.org/2000/svg">
<path d="M38.8548 12.9688C35.4674 8.3973 31.4823 4.42212 26.8995 1.04322C24.5084 -0.546857 21.3203 -0.348098 19.3278 1.83825L12.7523 8.59606C10.7598 10.5837 10.3613 13.7638 11.9553 15.9501C12.5531 16.7452 13.1508 17.5402 13.7486 18.3353L1.19553 30.8571C0.398511 31.4534 0 32.4472 0 33.4409V38.2112C0 39.205 0.797021 40 1.7933 40H6.57542C7.5717 40 8.36872 39.6025 9.16574 39.0062L21.7188 26.4844C22.5158 27.0807 23.3129 27.6769 24.1099 28.2732C26.501 29.8633 29.4898 29.4658 31.4823 27.4782L38.257 20.7204C40.2496 18.534 40.6481 15.3539 38.8548 12.9688ZM29.689 14.3601C29.0913 14.9564 28.4935 15.1551 27.6965 15.1551C26.8995 15.1551 26.3017 14.9564 25.7039 14.3601C24.7077 13.3663 24.7077 11.5774 25.7039 10.5837C26.7002 9.58986 28.4935 9.58986 29.4898 10.5837C30.6853 11.3787 30.6853 13.1675 29.689 14.3601Z" fill="#30D1FF"/>
</svg>
