<svg width="34" height="34" viewBox="0 0 34 34" fill="none" xmlns="http://www.w3.org/2000/svg">
<path d="M33.3799 12.7461C32.9247 11.2324 31.5589 10.0214 30.0413 9.86998L23.6676 8.96172L20.7843 2.90665C20.0255 1.24151 18.6597 0.333252 16.9904 0.333252C15.3211 0.333252 13.9554 1.24151 13.1966 2.75528L10.3132 8.81034L3.93955 9.86998C2.42201 10.1727 1.05622 11.2324 0.600954 12.7461C-0.00606412 14.4113 0.449199 16.0764 1.66324 17.2874L6.36763 21.9801L5.30535 28.6407C5.00184 30.3058 5.76061 31.971 7.1264 32.8792C7.88517 33.3333 8.64395 33.6361 9.55447 33.6361C10.3132 33.6361 10.9203 33.4847 11.5273 33.182L17.294 30.0031L23.0606 33.182C24.4264 33.9389 26.0957 33.7875 27.4615 32.8792C28.8273 31.971 29.5861 30.3058 29.2826 28.6407L28.2203 21.9801L32.9247 17.2874C33.5317 16.0764 33.987 14.2599 33.3799 12.7461Z" fill="#30D1FF"/>
</svg>
