<svg width="20" height="18" viewBox="0 0 20 18" fill="none" xmlns="http://www.w3.org/2000/svg">
<path d="M13.0005 7.4992C12.2001 8.19953 11.0996 8.49968 9.99906 8.49968C8.89853 8.49968 7.89805 8.09949 6.99762 7.4992C6.19724 8.19953 5.09671 8.49968 3.99619 8.49968C3.29585 8.49968 2.59551 8.29958 1.99523 7.99944V13.9023C1.99523 16.2034 3.69604 18.0042 5.79705 18.0042H7.89805C8.39829 18.0042 8.79849 17.604 8.79849 17.0037V14.0023C8.79849 13.302 9.29873 12.7017 9.99906 12.7017C10.6994 12.7017 11.1996 13.302 11.1996 14.0023V17.0037C11.1996 17.504 11.5998 18.0042 12.1001 18.0042H14.2011C16.3021 18.0042 18.0029 16.2034 18.0029 14.1024V8.09949C17.4026 8.39963 16.7023 8.59973 16.0019 8.59973C14.8014 8.59973 13.8009 8.19953 13.0005 7.4992Z" fill="white"/>
<path d="M19.8038 2.39676L19.3035 0.996085C19.1034 0.395797 18.5031 -0.00439453 17.8028 -0.00439453H2.19532C1.49499 -0.00439453 0.8947 0.395797 0.694605 0.996085L0.194365 2.39676C-0.305875 3.69738 0.194365 5.09805 1.29489 5.89843C1.89518 6.39867 2.69556 6.59877 3.49595 6.59877C4.59647 6.59877 5.4969 6.09853 6.09719 5.39819C6.29729 5.1981 6.49738 5.09805 6.79753 5.09805C6.99762 5.09805 7.29777 5.1981 7.49786 5.39819C7.9981 6.19858 8.89853 6.69882 9.99906 6.69882C11.0996 6.69882 12 6.19858 12.6003 5.49824C12.8004 5.29814 13.0005 5.1981 13.3006 5.1981C13.6008 5.1981 13.8009 5.29814 14.001 5.49824C14.6013 6.19858 15.5017 6.69882 16.6022 6.69882C17.5027 6.69882 18.203 6.39867 18.8033 5.99848C19.8038 5.09805 20.304 3.79743 19.8038 2.39676Z" fill="white"/>
</svg>
