<svg width="21" height="20" viewBox="0 0 21 20" fill="none" xmlns="http://www.w3.org/2000/svg">
<path d="M19.8336 8.2375V15.8295C19.8336 17.6649 18.3336 19.1666 16.5002 19.1666H4.83358C3.00024 19.1666 1.50024 17.6649 1.50024 15.8295V8.2375C1.50024 6.73579 2.25024 5.40094 3.58358 4.65009L9.50024 1.14611C10.2502 0.728967 11.1669 0.728967 11.9169 1.14611L17.8336 4.65009C19.0836 5.31751 19.8336 6.73579 19.8336 8.2375Z" fill="white"/>
<path d="M10.6494 12.4999C10.1712 12.4999 9.61324 12.341 9.21472 12.1027L5.22953 9.79865C4.83101 9.5603 4.75131 9.08361 4.91071 8.68636C5.07012 8.36856 5.62805 8.20966 5.94686 8.44801L9.93205 10.752C10.3306 10.9904 10.8885 10.9904 11.287 10.752L15.2722 8.44801C15.6707 8.20966 16.1489 8.36856 16.3881 8.76581C16.6272 9.16305 16.4678 9.63975 16.0692 9.8781L12.0841 12.1821C11.6855 12.341 11.1276 12.4999 10.6494 12.4999Z" fill="#FF4242"/>
</svg>
