<svg width="200" height="46" viewBox="0 0 200 46" fill="none" xmlns="http://www.w3.org/2000/svg">
<path d="M61.0055 14.8873H63.6327V27.6163H61.3131V19.3284L57.7227 27.6163H55.7713L52.2011 19.3284V27.6163H49.8815V14.8723H52.5087L56.7546 24.559L61.0055 14.8873ZM71.595 14.6425C72.4626 14.6018 73.3286 14.7503 74.1319 15.0774C74.9353 15.4046 75.6563 15.9024 76.2442 16.5358C77.3691 17.857 77.949 19.5502 77.868 21.2768C77.9474 22.997 77.3673 24.6834 76.2442 25.9977C75.6537 26.6268 74.9318 27.1207 74.1288 27.4451C73.3258 27.7695 72.4612 27.9166 71.595 27.8761C70.7268 27.9175 69.8601 27.7689 69.0565 27.4408C68.253 27.1127 67.5322 26.6131 66.9457 25.9777C65.8368 24.6644 65.2647 22.9872 65.3421 21.2768C65.3421 19.3085 65.8464 17.7798 66.9457 16.5558C68.045 15.3319 69.6132 14.6425 71.595 14.6425ZM74.5197 24.6339C75.2418 23.67 75.5988 22.4852 75.5282 21.2868C75.5968 20.0762 75.2405 18.8795 74.5197 17.8997C74.1578 17.4911 73.7056 17.1708 73.1983 16.9637C72.691 16.7566 72.1423 16.6683 71.595 16.7057C71.0393 16.6736 70.4838 16.7713 69.9731 16.9908C69.4625 17.2104 69.0111 17.5456 68.6551 17.9696C67.9355 18.9233 67.5784 20.0979 67.6466 21.2868C67.5815 22.4691 67.9385 23.6363 68.6551 24.5839C69.0141 25.0034 69.4665 25.3345 69.9766 25.5512C70.4868 25.7679 71.0408 25.8644 71.595 25.8329C72.1421 25.864 72.6893 25.7723 73.1957 25.5647C73.7021 25.3571 74.1547 25.039 74.5197 24.6339ZM88.5381 23.1352C88.3674 23.938 87.9351 24.6629 87.3077 25.1984C86.6879 25.6345 85.9393 25.8542 85.1798 25.8229C83.8536 25.8229 82.8602 25.4082 82.2248 24.5939C81.5894 23.7796 81.3474 22.7155 81.3474 21.2768C81.2772 20.1134 81.5924 18.9592 82.245 17.9896C82.5776 17.5515 83.0161 17.2034 83.5201 16.9773C84.0242 16.7512 84.5776 16.6543 85.1293 16.6957C85.8687 16.6588 86.602 16.8453 87.2321 17.2303C87.8174 17.6448 88.2214 18.2646 88.3617 18.9638V19.0587H90.6207V18.9138C90.4775 17.7049 89.8665 16.5982 88.9163 15.8265C87.8454 15.0066 86.5169 14.5873 85.1646 14.6425C83.1072 14.6425 81.5239 15.3219 80.4548 16.6657C79.4566 17.9934 78.954 19.623 79.0328 21.2768C79.0328 23.1901 79.4917 24.7388 80.3993 25.8678C81.4533 27.1967 83.0669 27.8661 85.1949 27.8661C86.4907 27.894 87.7561 27.4756 88.7751 26.6821C89.8616 25.8043 90.5804 24.5581 90.7922 23.1851L90.8224 23.0353H88.5583L88.5381 23.1352ZM97.8468 14.8823C100.968 14.8823 102.547 16.2161 102.547 18.8439C102.547 21.4716 100.953 22.8404 97.8115 22.8404H94.7859V27.6363H92.4663V14.8873H97.8216M94.796 20.8371H97.6703C98.3483 20.8872 99.0252 20.7266 99.6067 20.3775C99.8175 20.1852 99.9805 19.947 100.083 19.6818C100.185 19.4166 100.224 19.1315 100.197 18.8489C100.225 18.5693 100.184 18.2871 100.079 18.0262C99.9738 17.7653 99.8065 17.5334 99.5916 17.3501C99.019 16.9927 98.3446 16.8297 97.6703 16.8855H94.796V20.8371ZM106.394 22.106H113V20.1078H106.394V16.8955H113.423V14.8972H104.069V27.6163H113.696V25.618H106.369L106.394 22.106ZM130.336 14.8873H138.026V27.6163H135.707V16.8705H132.353L131.168 24.1543C131.067 25.1263 130.659 26.042 130.004 26.7721C129.306 27.3686 128.402 27.6716 127.482 27.6163H123.983L122.838 24.484H117.73L116.58 27.6163H114.099L119.021 14.8723H121.542L126.327 27.2716V25.4082H126.983C127.362 25.4187 127.737 25.3327 128.072 25.1585C128.285 25.0122 128.464 24.8223 128.596 24.6017C128.728 24.381 128.811 24.1347 128.839 23.8795L130.336 14.8873ZM120.286 17.485L118.436 22.5657H122.122L120.286 17.485ZM149.221 23.1202C149.05 23.923 148.618 24.6479 147.991 25.1834C147.371 25.6195 146.622 25.8392 145.863 25.8079C144.536 25.8079 143.543 25.3932 142.908 24.5789C142.272 23.7646 142.03 22.7006 142.03 21.2618C141.96 20.0985 142.275 18.9442 142.928 17.9746C143.26 17.5365 143.699 17.1884 144.203 16.9623C144.707 16.7362 145.26 16.6393 145.812 16.6807C146.552 16.6429 147.285 16.8294 147.915 17.2153C148.5 17.6298 148.904 18.2497 149.044 18.9488V19.0437H151.304V18.8988C151.154 17.6906 150.542 16.5853 149.594 15.8115C148.523 14.9916 147.195 14.5723 145.842 14.6275C143.785 14.6275 142.202 15.3069 141.133 16.6507C140.134 17.9784 139.632 19.6081 139.711 21.2618C139.711 23.1752 140.169 24.7238 141.077 25.8528C142.131 27.1817 143.745 27.8511 145.878 27.8511C147.172 27.882 148.437 27.4632 149.453 26.6671C150.541 25.7906 151.26 24.5438 151.47 23.1701L151.5 23.0203H149.236L149.221 23.1202ZM152.201 16.8705H156.336V27.6163H158.656V16.8705H162.791V14.8723H152.201V16.8705ZM169.396 14.8723C172.513 14.8723 174.096 16.2061 174.096 18.8339C174.096 21.4616 172.503 22.8304 169.356 22.8304H166.33V27.6263H164.011V14.8773H169.371M166.346 20.8271H169.225C169.903 20.8772 170.58 20.7166 171.161 20.3675C171.37 20.174 171.532 19.9356 171.633 19.6705C171.735 19.4055 171.773 19.121 171.746 18.8389C171.774 18.5597 171.734 18.2781 171.63 18.0174C171.525 17.7566 171.36 17.5244 171.146 17.3401C170.573 16.9834 169.899 16.8204 169.225 16.8755H166.346V20.8271ZM181.337 14.6275C182.205 14.5868 183.071 14.7353 183.874 15.0625C184.678 15.3896 185.399 15.8874 185.987 16.5208C187.11 17.843 187.689 19.5355 187.61 21.2618C187.688 22.9818 187.108 24.6674 185.987 25.9827C185.396 26.6121 184.674 27.1062 183.871 27.4306C183.068 27.755 182.204 27.902 181.337 27.8611C180.468 27.9022 179.601 27.7535 178.797 27.4254C177.992 27.0974 177.271 26.598 176.683 25.9628C175.576 24.6482 175.004 22.9719 175.079 21.2618C175.079 19.2935 175.584 17.7648 176.683 16.5408C177.782 15.3169 179.351 14.6275 181.337 14.6275ZM181.337 16.6757C180.781 16.645 180.224 16.7439 179.713 16.9642C179.202 17.1845 178.749 17.5203 178.392 17.9446C177.675 18.8995 177.318 20.0733 177.384 21.2618C177.321 22.4438 177.678 23.6104 178.392 24.559C178.753 24.9782 179.206 25.3091 179.717 25.5258C180.228 25.7424 180.782 25.839 181.337 25.8079C181.884 25.8379 182.431 25.7458 182.937 25.5382C183.444 25.3307 183.896 25.0131 184.262 24.6089C184.984 23.645 185.341 22.4602 185.271 21.2618C185.341 20.051 184.985 18.8536 184.262 17.8747C183.901 17.4656 183.45 17.1446 182.944 16.9366C182.437 16.7287 181.889 16.6394 181.342 16.6757M192.396 13.6783C193.069 14.1033 193.863 14.3029 194.66 14.2478C195.458 14.3008 196.253 14.1014 196.929 13.6783C197.471 13.2211 197.82 12.5794 197.907 11.8798V11.735H196.082V11.8449C196.06 12.1822 195.915 12.5002 195.673 12.7391C195.37 12.9202 195.018 13.004 194.665 12.9789C194.312 13.0086 193.959 12.9263 193.656 12.7441C193.408 12.5057 193.26 12.1824 193.243 11.8399V11.735H191.412V11.8798C191.441 12.2335 191.542 12.5778 191.708 12.892C191.874 13.2062 192.103 13.4838 192.381 13.7082M197.791 14.8873L191.609 23.8396V14.8873H189.289V27.6163H191.554L197.665 18.7789V27.6163H200V14.8723L197.791 14.8873ZM38.9138 0.0200024H31.8541C29.5144 0.0675507 27.2146 0.630113 25.1215 1.66697C23.0283 2.70382 21.1941 4.189 19.7519 6.01486C18.2723 4.13725 16.378 2.62057 14.2145 1.58135C12.051 0.542125 9.67577 0.00801509 7.2714 0.0200024H0.0100951V3.13732H7.29664C9.44288 3.13407 11.5547 3.67157 13.4336 4.69928C15.3125 5.72699 16.8968 7.21117 18.0374 9.01229C18.6751 10.0089 19.1657 11.0905 19.4947 12.2245L19.762 13.1388L20.0292 12.2245C20.3621 11.0911 20.8544 10.0097 21.4916 9.01229C22.6293 7.21411 24.2094 5.73167 26.0837 4.70407C27.958 3.67646 30.065 3.13737 32.2071 3.13732H36.0294V20.9271H39.1962V0L38.9138 0.0200024ZM31.9247 23.0003C30.9507 22.9977 29.9867 22.8048 29.088 22.4326C28.1893 22.0604 27.3735 21.5163 26.6873 20.8314C26.0011 20.1465 25.4581 19.3343 25.0891 18.4412C24.7202 17.548 24.5326 16.5916 24.5373 15.6266C24.54 13.6837 25.3202 11.8212 26.7069 10.4473C28.0937 9.07351 29.9737 8.30055 31.9348 8.29791H33.9872V5.16558H31.9348C29.1368 5.17349 26.4557 6.27819 24.4772 8.2383C22.4986 10.1984 21.3836 12.8546 21.3756 15.6266C21.3756 18.4038 22.4871 21.0677 24.4665 23.0343C26.4459 25.0009 29.1316 26.1097 31.9348 26.1176H36.1253V33.2365C36.1253 35.3397 35.4546 38.8817 30.9263 38.8817H26.1358C23.7863 38.8564 21.493 39.5932 19.6057 40.9799C17.7115 39.588 15.4084 38.8509 13.0503 38.8817H8.2598C3.72145 38.8817 3.06084 35.3397 3.06084 33.2365V8.32788H7.24118C9.20057 8.32521 11.0812 9.09173 12.4714 10.4597C13.8616 11.8276 14.6482 13.6855 14.6588 15.6266C14.6562 17.5695 13.8759 19.4321 12.4892 20.8059C11.1025 22.1797 9.22249 22.9527 7.26137 22.9553H5.12829V26.1176H7.26137C10.0646 26.1097 12.7503 25.0009 14.7297 23.0343C16.7091 21.0677 17.8206 18.4038 17.8206 15.6266C17.8126 12.8546 16.6976 10.1984 14.719 8.2383C12.7405 6.27819 10.0594 5.17349 7.26137 5.16558H0V33.2065C0 39.616 4.28114 41.8991 8.27993 41.8991H13.0704C14.0595 41.8695 15.0445 42.0378 15.9664 42.394C16.8883 42.7502 17.7281 43.287 18.4358 43.9723L19.6006 45.3062L20.7654 43.9723C21.4762 43.2914 22.3167 42.7575 23.2378 42.4015C24.1589 42.0456 25.1424 41.8748 26.1308 41.8991H30.9213C34.9251 41.8991 39.2012 39.616 39.2012 33.2065V22.9553L31.9247 23.0003Z" fill="white"/>
</svg>
