<svg width="39" height="44" viewBox="0 0 39 44" fill="none" xmlns="http://www.w3.org/2000/svg">
<path d="M31.1181 0.517673H37.8728L38.143 0.498535V20.5215H35.113V3.50032H31.4559C29.4063 3.50036 27.3903 4.01617 25.597 4.99938C23.8037 5.98259 22.2918 7.40098 21.2033 9.12148C20.5936 10.0758 20.1225 11.1105 19.8041 12.195L19.5484 13.0697L19.2926 12.195C18.9779 11.1099 18.5084 10.075 17.8983 9.12148C16.8069 7.39817 15.2911 5.97811 13.4934 4.9948C11.6956 4.01148 9.67507 3.49721 7.62155 3.50032H0.649796V0.517673H7.59741C9.8979 0.506204 12.1705 1.01724 14.2405 2.01157C16.3106 3.00589 18.123 4.45705 19.5387 6.25355C20.9186 4.50657 22.6736 3.08555 24.6763 2.09349C26.6791 1.10143 28.8795 0.563168 31.1181 0.517673Z" fill="#1F299C"/>
<path d="M28.4715 21.962C29.3314 22.3181 30.2537 22.5027 31.1857 22.5052L38.1478 22.4622V32.2705C38.1478 38.4031 34.0564 40.5875 30.2256 40.5875H25.642C24.6963 40.5643 23.7554 40.7277 22.874 41.0683C21.9927 41.4088 21.1886 41.9197 20.5085 42.5712L19.394 43.8474L18.2794 42.5712C17.6024 41.9155 16.7988 41.4019 15.9168 41.0611C15.0347 40.7202 14.0922 40.5592 13.1459 40.5875H8.56236C4.73632 40.5875 0.640137 38.4031 0.640137 32.2705V5.44096H7.58781C10.265 5.44853 12.8303 6.5055 14.7233 8.38093C16.6163 10.2564 17.6832 12.7978 17.6908 15.4501C17.6908 18.1073 16.6273 20.6561 14.7335 22.5377C12.8396 24.4193 10.27 25.4802 7.58781 25.4878H5.54688V22.4622H7.58781C9.4642 22.4596 11.263 21.7201 12.5898 20.4056C13.9166 19.0911 14.6631 17.309 14.6657 15.4501C14.6555 13.5928 13.9029 11.8152 12.5728 10.5063C11.2426 9.19749 9.44323 8.46409 7.56849 8.46664H3.56874V32.2992C3.56874 34.3115 4.20081 37.7005 8.5431 37.7005H13.1266C15.3829 37.671 17.5865 38.3763 19.3988 39.708C21.2046 38.3813 23.3988 37.6762 25.6469 37.7005H30.2304C34.563 37.7005 35.2047 34.3115 35.2047 32.2992V25.4878H31.1953C28.5132 25.4802 25.9435 24.4193 24.0497 22.5377C22.1558 20.6561 21.0923 18.1073 21.0923 15.4501C21.0999 12.7978 22.1668 10.2564 24.0598 8.38093C25.9529 6.5055 28.5182 5.44853 31.1953 5.44096H33.159V8.43796H31.1953C29.3189 8.44049 27.5201 9.18006 26.1933 10.4945C24.8665 11.809 24.1199 13.5911 24.1174 15.4501C24.1129 16.3734 24.2924 17.2885 24.6454 18.143C24.9984 18.9975 25.518 19.7747 26.1745 20.43C26.831 21.0853 27.6116 21.6059 28.4715 21.962Z" fill="#1F299C"/>
</svg>
