<svg width="192" height="44" viewBox="0 0 192 44" fill="none" xmlns="http://www.w3.org/2000/svg">
<path d="M59.0104 14.7427H61.5241V26.9218H59.3047V18.992L55.8695 26.9218H54.0023L50.5864 18.992V26.9218H48.3669V14.7283H50.8807L54.9431 23.9965L59.0104 14.7427ZM69.1424 14.5085C69.9725 14.4696 70.8011 14.6116 71.5698 14.9246C72.3384 15.2377 73.0283 15.714 73.5908 16.32C74.6671 17.5841 75.2219 19.2042 75.1444 20.8561C75.2204 22.5021 74.6654 24.1156 73.5908 25.3732C73.0258 25.975 72.335 26.4476 71.5668 26.758C70.7985 27.0684 69.9712 27.2091 69.1424 27.1704C68.3118 27.21 67.4825 27.0678 66.7136 26.7539C65.9448 26.4399 65.2552 25.962 64.694 25.354C63.633 24.0974 63.0856 22.4927 63.1597 20.8561C63.1597 18.9729 63.6422 17.5102 64.694 16.3391C65.7458 15.1681 67.2463 14.5085 69.1424 14.5085ZM71.9408 24.0683C72.6317 23.146 72.9733 22.0123 72.9057 20.8657C72.9714 19.7075 72.6304 18.5624 71.9408 17.6249C71.5945 17.234 71.1618 16.9276 70.6765 16.7294C70.1911 16.5313 69.6661 16.4468 69.1424 16.4825C68.6107 16.4519 68.0792 16.5453 67.5906 16.7554C67.1021 16.9654 66.6701 17.2862 66.3296 17.6919C65.641 18.6044 65.2993 19.7282 65.3646 20.8657C65.3023 21.9969 65.6439 23.1138 66.3296 24.0204C66.673 24.4217 67.1059 24.7386 67.594 24.9459C68.0821 25.1533 68.6122 25.2455 69.1424 25.2154C69.6659 25.2452 70.1895 25.1575 70.674 24.9589C71.1585 24.7602 71.5916 24.4558 71.9408 24.0683ZM85.3536 22.6343C85.1902 23.4024 84.7766 24.096 84.1763 24.6084C83.5833 25.0256 82.8671 25.2358 82.1403 25.2058C80.8714 25.2058 79.9209 24.8091 79.313 24.03C78.7051 23.2509 78.4735 22.2328 78.4735 20.8561C78.4064 19.7431 78.7079 18.6387 79.3323 17.711C79.6505 17.2918 80.0701 16.9587 80.5524 16.7424C81.0347 16.526 81.5641 16.4334 82.092 16.473C82.7995 16.4377 83.5011 16.6161 84.104 16.9844C84.664 17.381 85.0505 17.9741 85.1847 18.6431V18.7339H87.3462V18.5953C87.2091 17.4386 86.6246 16.3797 85.7155 15.6413C84.6908 14.8568 83.4197 14.4557 82.1258 14.5085C80.1573 14.5085 78.6424 15.1585 77.6195 16.4443C76.6644 17.7147 76.1835 19.2739 76.2589 20.8561C76.2589 22.6868 76.698 24.1686 77.5664 25.2489C78.5748 26.5203 80.1187 27.1608 82.1548 27.1608C83.3946 27.1875 84.6053 26.7871 85.5804 26.028C86.6199 25.1881 87.3076 23.9957 87.5103 22.6821L87.5392 22.5387H85.3729L85.3536 22.6343ZM94.2601 14.7379C97.2466 14.7379 98.7568 16.0141 98.7568 18.5283C98.7568 21.0426 97.2322 22.3523 94.2263 22.3523H91.3315V26.9409H89.1121V14.7427H94.236M91.3411 20.4355H94.0912C94.7399 20.4835 95.3876 20.3297 95.9439 19.9958C96.1457 19.8117 96.3016 19.5839 96.3995 19.3301C96.4975 19.0763 96.5347 18.8036 96.5084 18.5331C96.5353 18.2656 96.4968 17.9956 96.396 17.746C96.2952 17.4964 96.1352 17.2745 95.9295 17.0992C95.3817 16.7572 94.7364 16.6012 94.0912 16.6546H91.3411V20.4355ZM102.438 21.6496H108.759V19.7376H102.438V16.6642H109.164V14.7522H100.214V26.9218H109.424V25.0099H102.414L102.438 21.6496ZM125.346 14.7427H132.704V26.9218H130.484V16.6403H127.276L126.142 23.6094C126.045 24.5394 125.655 25.4155 125.028 26.114C124.361 26.6848 123.495 26.9747 122.615 26.9218H119.267L118.172 23.9248H113.284L112.184 26.9218H109.81L114.519 14.7283H116.932L121.51 26.592V24.8091H122.138C122.5 24.8191 122.859 24.7368 123.18 24.5701C123.383 24.4302 123.554 24.2486 123.681 24.0374C123.807 23.8263 123.887 23.5906 123.913 23.3465L125.346 14.7427ZM115.73 17.2282L113.96 22.0894H117.487L115.73 17.2282ZM143.415 22.6199C143.251 23.388 142.838 24.0817 142.238 24.594C141.644 25.0113 140.928 25.2215 140.201 25.1915C138.933 25.1915 137.982 24.7948 137.374 24.0157C136.766 23.2365 136.535 22.2184 136.535 20.8418C136.468 19.7288 136.769 18.6244 137.393 17.6966C137.712 17.2775 138.131 16.9444 138.614 16.7281C139.096 16.5117 139.625 16.4191 140.153 16.4586C140.861 16.4225 141.563 16.6009 142.165 16.9701C142.725 17.3667 143.112 17.9598 143.246 18.6287V18.7196H145.407V18.5809C145.265 17.4249 144.679 16.3674 143.772 15.6269C142.747 14.8425 141.476 14.4413 140.182 14.4941C138.214 14.4941 136.699 15.1442 135.676 16.43C134.721 17.7003 134.24 19.2595 134.315 20.8418C134.315 22.6725 134.754 24.1543 135.623 25.2345C136.631 26.506 138.175 27.1465 140.216 27.1465C141.455 27.1761 142.665 26.7753 143.637 26.0136C144.678 25.1749 145.366 23.982 145.567 22.6677L145.596 22.5243H143.429L143.415 22.6199ZM146.266 16.6403H150.223V26.9218H152.442V16.6403H156.398V14.7283H146.266V16.6403ZM162.719 14.7283C165.7 14.7283 167.215 16.0045 167.215 18.5188C167.215 21.033 165.691 22.3427 162.68 22.3427H159.785V26.9314H157.566V14.7331H162.695M159.8 20.4259H162.555C163.203 20.4739 163.851 20.3202 164.407 19.9862C164.607 19.801 164.762 19.5729 164.859 19.3193C164.956 19.0657 164.993 18.7935 164.967 18.5236C164.994 18.2565 164.955 17.987 164.856 17.7375C164.756 17.4881 164.597 17.2659 164.393 17.0896C163.845 16.7483 163.2 16.5923 162.555 16.6451H159.8V20.4259ZM174.144 14.4941C174.974 14.4552 175.802 14.5973 176.571 14.9103C177.34 15.2233 178.03 15.6996 178.592 16.3057C179.667 17.5707 180.221 19.1901 180.146 20.8418C180.22 22.4875 179.665 24.1003 178.592 25.3588C178.027 25.9609 177.337 26.4337 176.568 26.7441C175.8 27.0545 174.973 27.1951 174.144 27.156C173.312 27.1954 172.482 27.0531 171.713 26.7392C170.943 26.4253 170.253 25.9475 169.69 25.3397C168.632 24.0819 168.084 22.4781 168.156 20.8418C168.156 18.9585 168.639 17.4959 169.69 16.3248C170.742 15.1537 172.243 14.4941 174.144 14.4941ZM174.144 16.4539C173.611 16.4245 173.079 16.5191 172.59 16.7299C172.1 16.9407 171.668 17.2619 171.326 17.668C170.64 18.5816 170.298 19.7046 170.361 20.8418C170.301 21.9728 170.642 23.089 171.326 23.9965C171.671 24.3977 172.104 24.7143 172.593 24.9216C173.082 25.1289 173.613 25.2213 174.144 25.1915C174.667 25.2203 175.19 25.1321 175.675 24.9335C176.159 24.7349 176.592 24.4311 176.942 24.0443C177.633 23.1221 177.975 21.9884 177.907 20.8418C177.975 19.6834 177.634 18.5376 176.942 17.601C176.597 17.2096 176.165 16.9025 175.681 16.7035C175.196 16.5045 174.672 16.4191 174.149 16.4539M184.724 13.5859C185.369 13.9926 186.128 14.1836 186.891 14.1308C187.654 14.1816 188.415 13.9908 189.062 13.5859C189.58 13.1485 189.914 12.5346 189.998 11.8652V11.7266H188.251V11.8317C188.23 12.1545 188.092 12.4587 187.86 12.6873C187.57 12.8606 187.233 12.9408 186.896 12.9168C186.558 12.9452 186.22 12.8665 185.931 12.6921C185.693 12.464 185.551 12.1546 185.535 11.8269V11.7266H183.784V11.8652C183.811 12.2036 183.907 12.533 184.066 12.8336C184.226 13.1342 184.444 13.3999 184.71 13.6146M189.887 14.7427L183.972 23.3082V14.7427H181.752V26.9218H183.919L189.766 18.4662V26.9218H192V14.7283L189.887 14.7427Z" fill="#1E2020"/>
<path d="M31.1181 0.517673H37.8728L38.143 0.498535V20.5215H35.113V3.50032H31.4559C29.4063 3.50036 27.3903 4.01617 25.597 4.99938C23.8037 5.98259 22.2918 7.40098 21.2033 9.12148C20.5936 10.0758 20.1225 11.1105 19.8041 12.195L19.5484 13.0697L19.2926 12.195C18.9779 11.1099 18.5084 10.075 17.8983 9.12148C16.8069 7.39817 15.2911 5.97811 13.4934 4.9948C11.6956 4.01148 9.67507 3.49721 7.62155 3.50032H0.649796V0.517673H7.59741C9.8979 0.506204 12.1705 1.01724 14.2405 2.01157C16.3106 3.00589 18.123 4.45705 19.5387 6.25355C20.9186 4.50657 22.6736 3.08555 24.6763 2.09349C26.6791 1.10143 28.8795 0.563168 31.1181 0.517673Z" fill="#1F299C"/>
<path d="M28.4715 21.962C29.3314 22.3181 30.2537 22.5027 31.1857 22.5052L38.1478 22.4622V32.2705C38.1478 38.4031 34.0564 40.5875 30.2256 40.5875H25.642C24.6963 40.5643 23.7554 40.7277 22.874 41.0683C21.9927 41.4088 21.1886 41.9197 20.5085 42.5712L19.394 43.8474L18.2794 42.5712C17.6024 41.9155 16.7988 41.4019 15.9168 41.0611C15.0347 40.7202 14.0922 40.5592 13.1459 40.5875H8.56236C4.73632 40.5875 0.640137 38.4031 0.640137 32.2705V5.44096H7.58781C10.265 5.44853 12.8303 6.5055 14.7233 8.38093C16.6163 10.2564 17.6832 12.7978 17.6908 15.4501C17.6908 18.1073 16.6273 20.6561 14.7335 22.5377C12.8396 24.4193 10.27 25.4802 7.58781 25.4878H5.54688V22.4622H7.58781C9.4642 22.4596 11.263 21.7201 12.5898 20.4056C13.9166 19.0911 14.6631 17.309 14.6657 15.4501C14.6555 13.5928 13.9029 11.8152 12.5728 10.5063C11.2426 9.19749 9.44323 8.46409 7.56849 8.46664H3.56874V32.2992C3.56874 34.3115 4.20081 37.7005 8.5431 37.7005H13.1266C15.3829 37.671 17.5865 38.3763 19.3988 39.708C21.2046 38.3813 23.3988 37.6762 25.6469 37.7005H30.2304C34.563 37.7005 35.2047 34.3115 35.2047 32.2992V25.4878H31.1953C28.5132 25.4802 25.9435 24.4193 24.0497 22.5377C22.1558 20.6561 21.0923 18.1073 21.0923 15.4501C21.0999 12.7978 22.1668 10.2564 24.0598 8.38093C25.9529 6.5055 28.5182 5.44853 31.1953 5.44096H33.159V8.43796H31.1953C29.3189 8.44049 27.5201 9.18006 26.1933 10.4945C24.8665 11.809 24.1199 13.5911 24.1174 15.4501C24.1129 16.3734 24.2924 17.2885 24.6454 18.143C24.9984 18.9975 25.518 19.7747 26.1745 20.43C26.831 21.0853 27.6116 21.6059 28.4715 21.962Z" fill="#1F299C"/>
<path d="M31.1182 0.517673H37.8729L38.1431 0.498535V20.5215H35.1131V3.50032H31.456C29.4064 3.50036 27.3904 4.01617 25.5971 4.99938C23.8038 5.98259 22.2919 7.40098 21.2034 9.12148C20.5937 10.0758 20.1226 11.1105 19.8042 12.195L19.5485 13.0697L19.2927 12.195C18.978 11.1099 18.5085 10.075 17.8984 9.12148C16.807 7.39817 15.2912 5.97811 13.4935 4.9948C11.6958 4.01148 9.67518 3.49721 7.62166 3.50032H0.649902V0.517673H7.59751C9.89801 0.506204 12.1706 1.01724 14.2406 2.01157C16.3107 3.00589 18.1231 4.45705 19.5388 6.25355C20.9187 4.50656 22.6737 3.08555 24.6764 2.09349C26.6792 1.10143 28.8796 0.563168 31.1182 0.517673Z" fill="#FF4242"/>
</svg>
