<svg width="25" height="25" viewBox="0 0 25 25" fill="none" xmlns="http://www.w3.org/2000/svg">
<path d="M15.7232 5.54328L17.1332 8.36328C17.3232 8.75328 17.8332 9.12328 18.2632 9.20328L20.8132 9.62328C22.4432 9.89328 22.8232 11.0733 21.6532 12.2533L19.6632 14.2433C19.3332 14.5733 19.1432 15.2233 19.2532 15.6933L19.8232 18.1533C20.2732 20.0933 19.2332 20.8533 17.5232 19.8333L15.1332 18.4133C14.7032 18.1533 13.9832 18.1533 13.5532 18.4133L11.1632 19.8333C9.45319 20.8433 8.41319 20.0933 8.86319 18.1533L9.43319 15.6933C9.52319 15.2133 9.33319 14.5633 9.00319 14.2333L7.01319 12.2433C5.84319 11.0733 6.22319 9.89328 7.85319 9.61328L10.4032 9.19328C10.8332 9.12328 11.3432 8.74328 11.5332 8.35328L12.9432 5.53328C13.7132 4.01328 14.9532 4.01328 15.7232 5.54328Z" fill="white"/>
<path d="M8.33325 6.08325H2.33325C1.92325 6.08325 1.58325 5.74325 1.58325 5.33325C1.58325 4.92325 1.92325 4.58325 2.33325 4.58325H8.33325C8.74325 4.58325 9.08325 4.92325 9.08325 5.33325C9.08325 5.74325 8.74325 6.08325 8.33325 6.08325Z" fill="white"/>
<path d="M5.33325 20.0833H2.33325C1.92325 20.0833 1.58325 19.7433 1.58325 19.3333C1.58325 18.9233 1.92325 18.5833 2.33325 18.5833H5.33325C5.74325 18.5833 6.08325 18.9233 6.08325 19.3333C6.08325 19.7433 5.74325 20.0833 5.33325 20.0833Z" fill="white"/>
<path d="M3.33325 13.0833H2.33325C1.92325 13.0833 1.58325 12.7433 1.58325 12.3333C1.58325 11.9233 1.92325 11.5833 2.33325 11.5833H3.33325C3.74325 11.5833 4.08325 11.9233 4.08325 12.3333C4.08325 12.7433 3.74325 13.0833 3.33325 13.0833Z" fill="white"/>
</svg>
