<svg width="1216" height="451" viewBox="0 0 1216 451" fill="none" xmlns="http://www.w3.org/2000/svg">
<g opacity="0.5">
<mask id="mask0_5478_3131" style="mask-type:alpha" maskUnits="userSpaceOnUse" x="0" y="0" width="1216" height="451">
<rect y="0.481934" width="1216" height="450.518" fill="#D9D9D9"/>
</mask>
<g mask="url(#mask0_5478_3131)">
<path d="M53.6447 208.576C43.7784 208.487 34.3448 204.292 27.3981 196.904C20.4513 189.517 16.5538 179.535 16.5542 169.132H0.566895C0.566641 183.983 6.14024 198.231 16.0702 208.764C26.0001 219.297 39.4795 225.259 53.5647 225.348L53.6447 208.576Z" fill="#16215B"/>
<path d="M53.6447 433.443C43.7784 433.354 34.3448 429.159 27.3981 421.771C20.4513 414.383 16.5538 404.401 16.5542 393.998H0.566895C0.566641 408.849 6.14024 423.098 16.0702 433.631C26.0001 444.164 39.4795 450.126 53.5647 450.215L53.6447 433.443Z" fill="#16215B"/>
<path d="M53.6447 152.36C43.7784 152.271 34.3448 148.076 27.3981 140.688C20.4513 133.3 16.5538 123.318 16.5542 112.915H0.566895C0.566641 127.767 6.14024 142.015 16.0702 152.548C26.0001 163.081 39.4795 169.043 53.5647 169.132L53.6447 152.36Z" fill="#16215B"/>
<path d="M53.6447 377.226C43.7784 377.137 34.3448 372.942 27.3981 365.554C20.4513 358.167 16.5538 348.185 16.5542 337.782H0.566895C0.566641 352.633 6.14024 366.881 16.0702 377.414C26.0001 387.947 39.4795 393.909 53.5647 393.998L53.6447 377.226Z" fill="#16215B"/>
<path d="M53.6447 96.1431C43.7784 96.0541 34.3448 91.859 27.3981 84.4714C20.4513 77.0837 16.5538 67.1017 16.5542 56.6986H0.566895C0.566641 71.5499 6.14024 85.7981 16.0702 96.3311C26.0001 106.864 39.4795 112.826 53.5647 112.915L53.6447 96.1431Z" fill="#16215B"/>
<path d="M53.6447 321.009C43.7784 320.921 34.3448 316.725 27.3981 309.338C20.4513 301.95 16.5538 291.968 16.5542 281.565H0.566895C0.566641 296.416 6.14024 310.664 16.0702 321.197C26.0001 331.73 39.4795 337.693 53.5647 337.782L53.6447 321.009Z" fill="#16215B"/>
<path d="M53.6447 39.9264C43.7784 39.8375 34.3448 35.6424 27.3981 28.2547C20.4513 20.8671 16.5538 10.8851 16.5542 0.481934H0.566895C0.566641 15.3333 6.14024 29.5814 16.0702 40.1144C26.0001 50.6475 39.4795 56.6095 53.5647 56.6986L53.6447 39.9264Z" fill="#16215B"/>
<path d="M53.6447 264.793C43.7784 264.704 34.3448 260.509 27.3981 253.121C20.4513 245.733 16.5538 235.751 16.5542 225.348H0.566895C0.566641 240.2 6.14024 254.448 16.0702 264.981C26.0001 275.514 39.4795 281.476 53.5647 281.565L53.6447 264.793Z" fill="#16215B"/>
<path d="M265.956 208.576C256.09 208.487 246.656 204.292 239.709 196.904C232.762 189.517 228.865 179.535 228.865 169.132H212.878C212.878 183.983 218.451 198.231 228.381 208.764C238.311 219.297 251.791 225.259 265.876 225.348L265.956 208.576Z" fill="#16215B"/>
<path d="M265.956 433.443C256.09 433.354 246.656 429.159 239.709 421.771C232.762 414.383 228.865 404.401 228.865 393.998H212.878C212.878 408.849 218.451 423.098 228.381 433.631C238.311 444.164 251.791 450.126 265.876 450.215L265.956 433.443Z" fill="#16215B"/>
<path d="M265.956 152.36C256.09 152.271 246.656 148.076 239.709 140.688C232.762 133.3 228.865 123.318 228.865 112.915H212.878C212.878 127.767 218.451 142.015 228.381 152.548C238.311 163.081 251.791 169.043 265.876 169.132L265.956 152.36Z" fill="#16215B"/>
<path d="M265.956 377.226C256.09 377.137 246.656 372.942 239.709 365.554C232.762 358.167 228.865 348.185 228.865 337.782H212.878C212.878 352.633 218.451 366.881 228.381 377.414C238.311 387.947 251.791 393.909 265.876 393.998L265.956 377.226Z" fill="#16215B"/>
<path d="M265.956 96.1431C256.09 96.0541 246.656 91.859 239.709 84.4714C232.762 77.0837 228.865 67.1017 228.865 56.6986H212.878C212.878 71.5499 218.451 85.7981 228.381 96.3311C238.311 106.864 251.791 112.826 265.876 112.915L265.956 96.1431Z" fill="#16215B"/>
<path d="M265.956 321.009C256.09 320.921 246.656 316.725 239.709 309.338C232.762 301.95 228.865 291.968 228.865 281.565H212.878C212.878 296.416 218.451 310.664 228.381 321.197C238.311 331.73 251.791 337.693 265.876 337.782L265.956 321.009Z" fill="#16215B"/>
<path d="M265.956 39.9264C256.09 39.8375 246.656 35.6424 239.709 28.2547C232.762 20.8671 228.865 10.8851 228.865 0.481934H212.878C212.878 15.3333 218.451 29.5814 228.381 40.1144C238.311 50.6475 251.791 56.6095 265.876 56.6986L265.956 39.9264Z" fill="#16215B"/>
<path d="M265.956 264.793C256.09 264.704 246.656 260.509 239.709 253.121C232.762 245.733 228.865 235.751 228.865 225.348H212.878C212.878 240.2 218.451 254.448 228.381 264.981C238.311 275.514 251.791 281.476 265.876 281.565L265.956 264.793Z" fill="#16215B"/>
<path d="M159.8 208.576C149.934 208.487 140.5 204.292 133.554 196.904C126.607 189.517 122.709 179.535 122.71 169.132H106.722C106.722 183.983 112.296 198.231 122.226 208.764C132.156 219.297 145.635 225.259 159.72 225.348L159.8 208.576Z" fill="#16215B"/>
<path d="M159.8 433.443C149.934 433.354 140.5 429.159 133.554 421.771C126.607 414.383 122.709 404.401 122.71 393.998H106.722C106.722 408.849 112.296 423.098 122.226 433.631C132.156 444.164 145.635 450.126 159.72 450.215L159.8 433.443Z" fill="#16215B"/>
<path d="M159.8 152.36C149.934 152.271 140.5 148.076 133.554 140.688C126.607 133.3 122.709 123.318 122.71 112.915H106.722C106.722 127.767 112.296 142.015 122.226 152.548C132.156 163.081 145.635 169.043 159.72 169.132L159.8 152.36Z" fill="#16215B"/>
<path d="M159.8 377.226C149.934 377.137 140.5 372.942 133.554 365.554C126.607 358.167 122.709 348.185 122.71 337.782H106.722C106.722 352.633 112.296 366.881 122.226 377.414C132.156 387.947 145.635 393.909 159.72 393.998L159.8 377.226Z" fill="#16215B"/>
<path d="M159.8 96.1431C149.934 96.0541 140.5 91.859 133.554 84.4714C126.607 77.0837 122.709 67.1017 122.71 56.6986H106.722C106.722 71.5499 112.296 85.7981 122.226 96.3311C132.156 106.864 145.635 112.826 159.72 112.915L159.8 96.1431Z" fill="#16215B"/>
<path d="M159.8 321.009C149.934 320.921 140.5 316.725 133.554 309.338C126.607 301.95 122.709 291.968 122.71 281.565H106.722C106.722 296.416 112.296 310.664 122.226 321.197C132.156 331.73 145.635 337.693 159.72 337.782L159.8 321.009Z" fill="#16215B"/>
<path d="M159.8 39.9264C149.934 39.8375 140.5 35.6424 133.554 28.2547C126.607 20.8671 122.709 10.8851 122.71 0.481934H106.722C106.722 15.3333 112.296 29.5814 122.226 40.1144C132.156 50.6475 145.635 56.6095 159.72 56.6986L159.8 39.9264Z" fill="#16215B"/>
<path d="M159.8 264.793C149.934 264.704 140.5 260.509 133.554 253.121C126.607 245.733 122.709 235.751 122.71 225.348H106.722C106.722 240.2 112.296 254.448 122.226 264.981C132.156 275.514 145.635 281.476 159.72 281.565L159.8 264.793Z" fill="#16215B"/>
<path d="M372.111 208.576C362.245 208.487 352.811 204.292 345.864 196.904C338.918 189.517 335.02 179.535 335.021 169.132H319.033C319.033 183.983 324.607 198.231 334.537 208.764C344.466 219.297 357.946 225.259 372.031 225.348L372.111 208.576Z" fill="#16215B"/>
<path d="M372.111 433.443C362.245 433.354 352.811 429.159 345.864 421.771C338.918 414.383 335.02 404.401 335.021 393.998H319.033C319.033 408.849 324.607 423.098 334.537 433.631C344.466 444.164 357.946 450.126 372.031 450.215L372.111 433.443Z" fill="#16215B"/>
<path d="M372.111 152.36C362.245 152.271 352.811 148.076 345.864 140.688C338.918 133.3 335.02 123.318 335.021 112.915H319.033C319.033 127.767 324.607 142.015 334.537 152.548C344.466 163.081 357.946 169.043 372.031 169.132L372.111 152.36Z" fill="#16215B"/>
<path d="M372.111 377.226C362.245 377.137 352.811 372.942 345.864 365.554C338.918 358.167 335.02 348.185 335.021 337.782H319.033C319.033 352.633 324.607 366.881 334.537 377.414C344.466 387.947 357.946 393.909 372.031 393.998L372.111 377.226Z" fill="#16215B"/>
<path d="M372.111 96.1431C362.245 96.0541 352.811 91.859 345.864 84.4714C338.918 77.0837 335.02 67.1017 335.021 56.6986H319.033C319.033 71.5499 324.607 85.7981 334.537 96.3311C344.466 106.864 357.946 112.826 372.031 112.915L372.111 96.1431Z" fill="#16215B"/>
<path d="M372.111 321.009C362.245 320.921 352.811 316.725 345.864 309.338C338.918 301.95 335.02 291.968 335.021 281.565H319.033C319.033 296.416 324.607 310.664 334.537 321.197C344.466 331.73 357.946 337.693 372.031 337.782L372.111 321.009Z" fill="#16215B"/>
<path d="M372.111 39.9264C362.245 39.8375 352.811 35.6424 345.864 28.2547C338.918 20.8671 335.02 10.8851 335.021 0.481934H319.033C319.033 15.3333 324.607 29.5814 334.537 40.1144C344.466 50.6475 357.946 56.6095 372.031 56.6986L372.111 39.9264Z" fill="#16215B"/>
<path d="M372.111 264.793C362.245 264.704 352.811 260.509 345.864 253.121C338.918 245.733 335.02 235.751 335.021 225.348H319.033C319.033 240.2 324.607 254.448 334.537 264.981C344.466 275.514 357.946 281.476 372.031 281.565L372.111 264.793Z" fill="#16215B"/>
<path d="M53.6447 185.904C63.511 185.993 72.9446 190.188 79.8914 197.576C86.8382 204.963 90.7357 214.945 90.7353 225.349L106.722 225.348C106.723 210.497 101.149 196.249 91.2193 185.716C81.2894 175.183 67.81 169.221 53.7247 169.132L53.6447 185.904Z" fill="#16215B"/>
<path d="M53.6447 410.77C63.511 410.859 72.9446 415.054 79.8914 422.442C86.8382 429.83 90.7357 439.812 90.7353 450.215H106.723C106.723 435.364 101.149 421.115 91.2193 410.582C81.2894 400.049 67.81 394.087 53.7247 393.998L53.6447 410.77Z" fill="#16215B"/>
<path d="M53.6447 129.687C63.511 129.776 72.9446 133.971 79.8914 141.359C86.8382 148.747 90.7357 158.729 90.7353 169.132L106.722 169.132C106.723 154.28 101.149 140.032 91.2193 129.499C81.2894 118.966 67.81 113.004 53.7247 112.915L53.6447 129.687Z" fill="#16215B"/>
<path d="M53.6447 354.554C63.511 354.643 72.9446 358.838 79.8914 366.225C86.8382 373.613 90.7357 383.595 90.7353 393.998L106.722 393.998C106.723 379.147 101.149 364.899 91.2193 354.366C81.2894 343.833 67.81 337.871 53.7247 337.782L53.6447 354.554Z" fill="#16215B"/>
<path d="M53.6447 73.4708C63.511 73.5597 72.9446 77.7548 79.8914 85.1425C86.8382 92.5301 90.7357 102.512 90.7353 112.915L106.722 112.915C106.723 98.0639 101.149 83.8158 91.2193 73.2828C81.2894 62.7497 67.81 56.7877 53.7247 56.6986L53.6447 73.4708Z" fill="#16215B"/>
<path d="M53.6447 298.337C63.511 298.426 72.9446 302.621 79.8914 310.009C86.8382 317.396 90.7357 327.379 90.7353 337.782L106.722 337.782C106.723 322.93 101.149 308.682 91.2193 298.149C81.2894 287.616 67.81 281.654 53.7247 281.565L53.6447 298.337Z" fill="#16215B"/>
<path d="M53.6447 17.2541C63.511 17.3431 72.9446 21.5382 79.8914 28.9258C86.8382 36.3135 90.7357 46.2955 90.7353 56.6986L106.722 56.6986C106.723 41.8472 101.149 27.5991 91.2193 17.0661C81.2894 6.53311 67.81 0.571028 53.7247 0.481964L53.6447 17.2541Z" fill="#16215B"/>
<path d="M53.6447 242.12C63.511 242.209 72.9446 246.405 79.8914 253.792C86.8382 261.18 90.7357 271.162 90.7353 281.565L106.722 281.565C106.723 266.714 101.149 252.465 91.2193 241.932C81.2894 231.399 67.81 225.437 53.7247 225.348L53.6447 242.12Z" fill="#16215B"/>
<path d="M265.956 185.904C275.822 185.993 285.256 190.188 292.203 197.576C299.149 204.963 303.047 214.945 303.046 225.349L319.033 225.348C319.034 210.497 313.46 196.249 303.53 185.716C293.6 175.183 280.121 169.221 266.036 169.132L265.956 185.904Z" fill="#16215B"/>
<path d="M265.956 410.77C275.822 410.859 285.256 415.054 292.203 422.442C299.149 429.83 303.047 439.812 303.046 450.215H319.034C319.034 435.364 313.46 421.115 303.53 410.582C293.6 400.049 280.121 394.087 266.036 393.998L265.956 410.77Z" fill="#16215B"/>
<path d="M265.956 129.687C275.822 129.776 285.256 133.971 292.203 141.359C299.149 148.747 303.047 158.729 303.046 169.132L319.033 169.132C319.034 154.28 313.46 140.032 303.53 129.499C293.6 118.966 280.121 113.004 266.036 112.915L265.956 129.687Z" fill="#16215B"/>
<path d="M265.956 354.554C275.822 354.643 285.256 358.838 292.203 366.225C299.149 373.613 303.047 383.595 303.046 393.998L319.033 393.998C319.034 379.147 313.46 364.899 303.53 354.366C293.6 343.833 280.121 337.871 266.036 337.782L265.956 354.554Z" fill="#16215B"/>
<path d="M265.956 73.4708C275.822 73.5597 285.256 77.7548 292.203 85.1425C299.149 92.5301 303.047 102.512 303.046 112.915L319.033 112.915C319.034 98.0639 313.46 83.8158 303.53 73.2828C293.6 62.7497 280.121 56.7877 266.036 56.6986L265.956 73.4708Z" fill="#16215B"/>
<path d="M265.956 298.337C275.822 298.426 285.256 302.621 292.203 310.009C299.149 317.396 303.047 327.379 303.046 337.782L319.033 337.782C319.034 322.93 313.46 308.682 303.53 298.149C293.6 287.616 280.121 281.654 266.036 281.565L265.956 298.337Z" fill="#16215B"/>
<path d="M265.956 17.2541C275.822 17.3431 285.256 21.5382 292.203 28.9258C299.149 36.3135 303.047 46.2955 303.046 56.6986L319.033 56.6986C319.034 41.8472 313.46 27.5991 303.53 17.0661C293.6 6.53311 280.121 0.571028 266.036 0.481964L265.956 17.2541Z" fill="#16215B"/>
<path d="M265.956 242.12C275.822 242.209 285.256 246.405 292.203 253.792C299.149 261.18 303.047 271.162 303.046 281.565L319.033 281.565C319.034 266.714 313.46 252.465 303.53 241.932C293.6 231.399 280.121 225.437 266.036 225.348L265.956 242.12Z" fill="#16215B"/>
<path d="M159.8 185.904C169.667 185.993 179.1 190.188 186.047 197.576C192.994 204.963 196.891 214.945 196.891 225.349L212.878 225.348C212.878 210.497 207.305 196.249 197.375 185.716C187.445 175.183 173.966 169.221 159.88 169.132L159.8 185.904Z" fill="#16215B"/>
<path d="M159.8 410.77C169.667 410.859 179.1 415.054 186.047 422.442C192.994 429.83 196.891 439.812 196.891 450.215H212.878C212.878 435.364 207.305 421.115 197.375 410.582C187.445 400.049 173.966 394.087 159.88 393.998L159.8 410.77Z" fill="#16215B"/>
<path d="M159.8 129.687C169.667 129.776 179.1 133.971 186.047 141.359C192.994 148.747 196.891 158.729 196.891 169.132L212.878 169.132C212.878 154.28 207.305 140.032 197.375 129.499C187.445 118.966 173.966 113.004 159.88 112.915L159.8 129.687Z" fill="#16215B"/>
<path d="M159.8 354.554C169.667 354.643 179.1 358.838 186.047 366.225C192.994 373.613 196.891 383.595 196.891 393.998L212.878 393.998C212.878 379.147 207.305 364.899 197.375 354.366C187.445 343.833 173.966 337.871 159.88 337.782L159.8 354.554Z" fill="#16215B"/>
<path d="M159.8 73.4708C169.667 73.5597 179.1 77.7548 186.047 85.1425C192.994 92.5301 196.891 102.512 196.891 112.915L212.878 112.915C212.878 98.0639 207.305 83.8158 197.375 73.2828C187.445 62.7497 173.966 56.7877 159.88 56.6986L159.8 73.4708Z" fill="#16215B"/>
<path d="M159.8 298.337C169.667 298.426 179.1 302.621 186.047 310.009C192.994 317.396 196.891 327.379 196.891 337.782L212.878 337.782C212.878 322.93 207.305 308.682 197.375 298.149C187.445 287.616 173.966 281.654 159.88 281.565L159.8 298.337Z" fill="#16215B"/>
<path d="M159.8 17.2541C169.667 17.3431 179.1 21.5382 186.047 28.9258C192.994 36.3135 196.891 46.2955 196.891 56.6986L212.878 56.6986C212.878 41.8472 207.305 27.5991 197.375 17.0661C187.445 6.53311 173.966 0.571028 159.88 0.481964L159.8 17.2541Z" fill="#16215B"/>
<path d="M159.8 242.12C169.667 242.209 179.1 246.405 186.047 253.792C192.994 261.18 196.891 271.162 196.891 281.565L212.878 281.565C212.878 266.714 207.305 252.465 197.375 241.932C187.445 231.399 173.966 225.437 159.88 225.348L159.8 242.12Z" fill="#16215B"/>
<path d="M372.111 185.904C381.977 185.993 391.411 190.188 398.358 197.576C405.305 204.963 409.202 214.945 409.202 225.349H425.189C425.189 210.497 419.616 196.249 409.686 185.716C399.756 175.183 386.276 169.221 372.191 169.132L372.111 185.904Z" fill="#16215B"/>
<path d="M372.111 410.77C381.977 410.859 391.411 415.054 398.358 422.442C405.305 429.83 409.202 439.812 409.202 450.215H425.189C425.189 435.364 419.616 421.115 409.686 410.582C399.756 400.049 386.276 394.087 372.191 393.998L372.111 410.77Z" fill="#16215B"/>
<path d="M372.111 129.687C381.977 129.776 391.411 133.971 398.358 141.359C405.305 148.747 409.202 158.729 409.202 169.132H425.189C425.189 154.281 419.616 140.032 409.686 129.499C399.756 118.966 386.276 113.004 372.191 112.915L372.111 129.687Z" fill="#16215B"/>
<path d="M372.111 354.554C381.977 354.643 391.411 358.838 398.358 366.225C405.305 373.613 409.202 383.595 409.202 393.998H425.189C425.189 379.147 419.616 364.899 409.686 354.366C399.756 343.833 386.276 337.871 372.191 337.782L372.111 354.554Z" fill="#16215B"/>
<path d="M372.111 73.4708C381.977 73.5597 391.411 77.7548 398.358 85.1425C405.305 92.5301 409.202 102.512 409.202 112.915H425.189C425.189 98.0639 419.616 83.8158 409.686 73.2828C399.756 62.7497 386.276 56.7877 372.191 56.6986L372.111 73.4708Z" fill="#16215B"/>
<path d="M372.111 298.337C381.977 298.426 391.411 302.621 398.358 310.009C405.305 317.396 409.202 327.379 409.202 337.782H425.189C425.189 322.93 419.616 308.682 409.686 298.149C399.756 287.616 386.276 281.654 372.191 281.565L372.111 298.337Z" fill="#16215B"/>
<path d="M372.111 17.2541C381.977 17.3431 391.411 21.5382 398.358 28.9258C405.305 36.3135 409.202 46.2955 409.202 56.6986H425.189C425.189 41.8473 419.616 27.5991 409.686 17.0661C399.756 6.53311 386.276 0.571028 372.191 0.481964L372.111 17.2541Z" fill="#16215B"/>
<path d="M372.111 242.12C381.977 242.209 391.411 246.405 398.358 253.792C405.305 261.18 409.202 271.162 409.202 281.565H425.189C425.189 266.714 419.616 252.465 409.686 241.932C399.756 231.399 386.276 225.437 372.191 225.348L372.111 242.12Z" fill="#16215B"/>
<path d="M474.918 208.576C465.052 208.487 455.619 204.292 448.672 196.904C441.725 189.517 437.828 179.535 437.828 169.132H421.841C421.84 183.983 427.414 198.231 437.344 208.764C447.274 219.297 460.753 225.259 474.839 225.348L474.918 208.576Z" fill="#16215B"/>
<path d="M474.918 433.443C465.052 433.354 455.619 429.159 448.672 421.771C441.725 414.383 437.828 404.401 437.828 393.998H421.841C421.84 408.849 427.414 423.098 437.344 433.631C447.274 444.164 460.753 450.126 474.839 450.215L474.918 433.443Z" fill="#16215B"/>
<path d="M474.918 152.36C465.052 152.271 455.619 148.076 448.672 140.688C441.725 133.3 437.828 123.318 437.828 112.915H421.841C421.84 127.767 427.414 142.015 437.344 152.548C447.274 163.081 460.753 169.043 474.839 169.132L474.918 152.36Z" fill="#16215B"/>
<path d="M474.918 377.226C465.052 377.137 455.619 372.942 448.672 365.554C441.725 358.167 437.828 348.185 437.828 337.782H421.841C421.84 352.633 427.414 366.881 437.344 377.414C447.274 387.947 460.753 393.909 474.839 393.998L474.918 377.226Z" fill="#16215B"/>
<path d="M474.918 96.1431C465.052 96.0541 455.619 91.859 448.672 84.4714C441.725 77.0837 437.828 67.1017 437.828 56.6986H421.841C421.84 71.5499 427.414 85.7981 437.344 96.3311C447.274 106.864 460.753 112.826 474.839 112.915L474.918 96.1431Z" fill="#16215B"/>
<path d="M474.918 321.009C465.052 320.921 455.619 316.725 448.672 309.338C441.725 301.95 437.828 291.968 437.828 281.565H421.841C421.84 296.416 427.414 310.664 437.344 321.197C447.274 331.73 460.753 337.693 474.839 337.782L474.918 321.009Z" fill="#16215B"/>
<path d="M474.918 39.9264C465.052 39.8375 455.619 35.6424 448.672 28.2547C441.725 20.8671 437.828 10.8851 437.828 0.481934H421.841C421.84 15.3333 427.414 29.5814 437.344 40.1144C447.274 50.6475 460.753 56.6095 474.839 56.6986L474.918 39.9264Z" fill="#16215B"/>
<path d="M474.918 264.793C465.052 264.704 455.619 260.509 448.672 253.121C441.725 245.733 437.828 235.751 437.828 225.348H421.841C421.84 240.2 427.414 254.448 437.344 264.981C447.274 275.514 460.753 281.476 474.839 281.565L474.918 264.793Z" fill="#16215B"/>
<path d="M687.23 208.576C677.363 208.487 667.93 204.292 660.983 196.904C654.036 189.517 650.139 179.535 650.139 169.132H634.152C634.152 183.983 639.725 198.231 649.655 208.764C659.585 219.297 673.064 225.259 687.15 225.348L687.23 208.576Z" fill="#16215B"/>
<path d="M687.23 433.443C677.363 433.354 667.93 429.159 660.983 421.771C654.036 414.383 650.139 404.401 650.139 393.998H634.152C634.152 408.849 639.725 423.098 649.655 433.631C659.585 444.164 673.064 450.126 687.15 450.215L687.23 433.443Z" fill="#16215B"/>
<path d="M687.23 152.36C677.363 152.271 667.93 148.076 660.983 140.688C654.036 133.3 650.139 123.318 650.139 112.915H634.152C634.152 127.767 639.725 142.015 649.655 152.548C659.585 163.081 673.064 169.043 687.15 169.132L687.23 152.36Z" fill="#16215B"/>
<path d="M687.23 377.226C677.363 377.137 667.93 372.942 660.983 365.554C654.036 358.167 650.139 348.185 650.139 337.782H634.152C634.152 352.633 639.725 366.881 649.655 377.414C659.585 387.947 673.064 393.909 687.15 393.998L687.23 377.226Z" fill="#16215B"/>
<path d="M687.23 96.1431C677.363 96.0541 667.93 91.859 660.983 84.4714C654.036 77.0837 650.139 67.1017 650.139 56.6986H634.152C634.152 71.5499 639.725 85.7981 649.655 96.3311C659.585 106.864 673.064 112.826 687.15 112.915L687.23 96.1431Z" fill="#16215B"/>
<path d="M687.23 321.009C677.363 320.921 667.93 316.725 660.983 309.338C654.036 301.95 650.139 291.968 650.139 281.565H634.152C634.152 296.416 639.725 310.664 649.655 321.197C659.585 331.73 673.064 337.693 687.15 337.782L687.23 321.009Z" fill="#16215B"/>
<path d="M687.23 39.9264C677.363 39.8375 667.93 35.6424 660.983 28.2547C654.036 20.8671 650.139 10.8851 650.139 0.481934H634.152C634.152 15.3333 639.725 29.5814 649.655 40.1144C659.585 50.6475 673.064 56.6095 687.15 56.6986L687.23 39.9264Z" fill="#16215B"/>
<path d="M687.23 264.793C677.363 264.704 667.93 260.509 660.983 253.121C654.036 245.733 650.139 235.751 650.139 225.348H634.152C634.152 240.2 639.725 254.448 649.655 264.981C659.585 275.514 673.064 281.476 687.15 281.565L687.23 264.793Z" fill="#16215B"/>
<path d="M581.074 208.576C571.208 208.487 561.774 204.292 554.827 196.904C547.881 189.517 543.983 179.535 543.984 169.132H527.996C527.996 183.983 533.57 198.231 543.5 208.764C553.429 219.297 566.909 225.259 580.994 225.348L581.074 208.576Z" fill="#16215B"/>
<path d="M581.074 433.443C571.208 433.354 561.774 429.159 554.827 421.771C547.881 414.383 543.983 404.401 543.984 393.998H527.996C527.996 408.849 533.57 423.098 543.5 433.631C553.429 444.164 566.909 450.126 580.994 450.215L581.074 433.443Z" fill="#16215B"/>
<path d="M581.074 152.36C571.208 152.271 561.774 148.076 554.827 140.688C547.881 133.3 543.983 123.318 543.984 112.915H527.996C527.996 127.767 533.57 142.015 543.5 152.548C553.429 163.081 566.909 169.043 580.994 169.132L581.074 152.36Z" fill="#16215B"/>
<path d="M581.074 377.226C571.208 377.137 561.774 372.942 554.827 365.554C547.881 358.167 543.983 348.185 543.984 337.782H527.996C527.996 352.633 533.57 366.881 543.5 377.414C553.429 387.947 566.909 393.909 580.994 393.998L581.074 377.226Z" fill="#16215B"/>
<path d="M581.074 96.1431C571.208 96.0541 561.774 91.859 554.827 84.4714C547.881 77.0837 543.983 67.1017 543.984 56.6986H527.996C527.996 71.5499 533.57 85.7981 543.5 96.3311C553.429 106.864 566.909 112.826 580.994 112.915L581.074 96.1431Z" fill="#16215B"/>
<path d="M581.074 321.009C571.208 320.921 561.774 316.725 554.827 309.338C547.881 301.95 543.983 291.968 543.984 281.565H527.996C527.996 296.416 533.57 310.664 543.5 321.197C553.429 331.73 566.909 337.693 580.994 337.782L581.074 321.009Z" fill="#16215B"/>
<path d="M581.074 39.9264C571.208 39.8375 561.774 35.6424 554.827 28.2547C547.881 20.8671 543.983 10.8851 543.984 0.481934H527.996C527.996 15.3333 533.57 29.5814 543.5 40.1144C553.429 50.6475 566.909 56.6095 580.994 56.6986L581.074 39.9264Z" fill="#16215B"/>
<path d="M581.074 264.793C571.208 264.704 561.774 260.509 554.827 253.121C547.881 245.733 543.983 235.751 543.984 225.348H527.996C527.996 240.2 533.57 254.448 543.5 264.981C553.429 275.514 566.909 281.476 580.994 281.565L581.074 264.793Z" fill="#16215B"/>
<path d="M793.385 208.576C783.519 208.487 774.085 204.292 767.138 196.904C760.191 189.517 756.294 179.535 756.294 169.132H740.307C740.307 183.983 745.88 198.231 755.81 208.764C765.74 219.297 779.22 225.259 793.305 225.348L793.385 208.576Z" fill="#16215B"/>
<path d="M793.385 433.443C783.519 433.354 774.085 429.159 767.138 421.771C760.191 414.383 756.294 404.401 756.294 393.998H740.307C740.307 408.849 745.88 423.098 755.81 433.631C765.74 444.164 779.22 450.126 793.305 450.215L793.385 433.443Z" fill="#16215B"/>
<path d="M793.385 152.36C783.519 152.271 774.085 148.076 767.138 140.688C760.191 133.3 756.294 123.318 756.294 112.915H740.307C740.307 127.767 745.88 142.015 755.81 152.548C765.74 163.081 779.22 169.043 793.305 169.132L793.385 152.36Z" fill="#16215B"/>
<path d="M793.385 377.226C783.519 377.137 774.085 372.942 767.138 365.554C760.191 358.167 756.294 348.185 756.294 337.782H740.307C740.307 352.633 745.88 366.881 755.81 377.414C765.74 387.947 779.22 393.909 793.305 393.998L793.385 377.226Z" fill="#16215B"/>
<path d="M793.385 96.1431C783.519 96.0541 774.085 91.859 767.138 84.4714C760.191 77.0837 756.294 67.1017 756.294 56.6986H740.307C740.307 71.5499 745.88 85.7981 755.81 96.3311C765.74 106.864 779.22 112.826 793.305 112.915L793.385 96.1431Z" fill="#16215B"/>
<path d="M793.385 321.009C783.519 320.921 774.085 316.725 767.138 309.338C760.191 301.95 756.294 291.968 756.294 281.565H740.307C740.307 296.416 745.88 310.664 755.81 321.197C765.74 331.73 779.22 337.693 793.305 337.782L793.385 321.009Z" fill="#16215B"/>
<path d="M793.385 39.9264C783.519 39.8375 774.085 35.6424 767.138 28.2547C760.191 20.8671 756.294 10.8851 756.294 0.481934H740.307C740.307 15.3333 745.88 29.5814 755.81 40.1144C765.74 50.6475 779.22 56.6095 793.305 56.6986L793.385 39.9264Z" fill="#16215B"/>
<path d="M793.385 264.793C783.519 264.704 774.085 260.509 767.138 253.121C760.191 245.733 756.294 235.751 756.294 225.348H740.307C740.307 240.2 745.88 254.448 755.81 264.981C765.74 275.514 779.22 281.476 793.305 281.565L793.385 264.793Z" fill="#16215B"/>
<path d="M474.918 185.904C484.785 185.993 494.218 190.188 501.165 197.576C508.112 204.963 512.009 214.945 512.009 225.349L527.996 225.348C527.997 210.497 522.423 196.249 512.493 185.716C502.563 175.183 489.084 169.221 474.999 169.132L474.918 185.904Z" fill="#16215B"/>
<path d="M474.918 410.77C484.785 410.859 494.218 415.054 501.165 422.442C508.112 429.83 512.009 439.812 512.009 450.215H527.996C527.997 435.364 522.423 421.115 512.493 410.582C502.563 400.049 489.084 394.087 474.999 393.998L474.918 410.77Z" fill="#16215B"/>
<path d="M474.918 129.687C484.785 129.776 494.218 133.971 501.165 141.359C508.112 148.747 512.009 158.729 512.009 169.132L527.996 169.132C527.997 154.28 522.423 140.032 512.493 129.499C502.563 118.966 489.084 113.004 474.999 112.915L474.918 129.687Z" fill="#16215B"/>
<path d="M474.918 354.554C484.785 354.643 494.218 358.838 501.165 366.225C508.112 373.613 512.009 383.595 512.009 393.998L527.996 393.998C527.997 379.147 522.423 364.899 512.493 354.366C502.563 343.833 489.084 337.871 474.999 337.782L474.918 354.554Z" fill="#16215B"/>
<path d="M474.918 73.4708C484.785 73.5597 494.218 77.7548 501.165 85.1425C508.112 92.5301 512.009 102.512 512.009 112.915L527.996 112.915C527.997 98.0639 522.423 83.8158 512.493 73.2828C502.563 62.7497 489.084 56.7877 474.999 56.6986L474.918 73.4708Z" fill="#16215B"/>
<path d="M474.918 298.337C484.785 298.426 494.218 302.621 501.165 310.009C508.112 317.396 512.009 327.379 512.009 337.782L527.996 337.782C527.997 322.93 522.423 308.682 512.493 298.149C502.563 287.616 489.084 281.654 474.999 281.565L474.918 298.337Z" fill="#16215B"/>
<path d="M474.918 17.2541C484.785 17.3431 494.218 21.5382 501.165 28.9258C508.112 36.3135 512.009 46.2955 512.009 56.6986L527.996 56.6986C527.997 41.8472 522.423 27.5991 512.493 17.0661C502.563 6.53311 489.084 0.571028 474.999 0.481964L474.918 17.2541Z" fill="#16215B"/>
<path d="M474.918 242.12C484.785 242.209 494.218 246.405 501.165 253.792C508.112 261.18 512.009 271.162 512.009 281.565L527.996 281.565C527.997 266.714 522.423 252.465 512.493 241.932C502.563 231.399 489.084 225.437 474.999 225.348L474.918 242.12Z" fill="#16215B"/>
<path d="M687.23 185.904C697.096 185.993 706.53 190.188 713.476 197.576C720.423 204.963 724.321 214.945 724.32 225.349L740.307 225.348C740.307 210.497 734.734 196.249 724.804 185.716C714.874 175.183 701.395 169.221 687.31 169.132L687.23 185.904Z" fill="#16215B"/>
<path d="M687.23 410.77C697.096 410.859 706.53 415.054 713.476 422.442C720.423 429.83 724.321 439.812 724.32 450.215H740.307C740.308 435.364 734.734 421.115 724.804 410.582C714.874 400.049 701.395 394.087 687.31 393.998L687.23 410.77Z" fill="#16215B"/>
<path d="M687.23 129.687C697.096 129.776 706.53 133.971 713.476 141.359C720.423 148.747 724.321 158.729 724.32 169.132L740.307 169.132C740.307 154.28 734.734 140.032 724.804 129.499C714.874 118.966 701.395 113.004 687.31 112.915L687.23 129.687Z" fill="#16215B"/>
<path d="M687.23 354.554C697.096 354.643 706.53 358.838 713.476 366.225C720.423 373.613 724.321 383.595 724.32 393.998L740.307 393.998C740.307 379.147 734.734 364.899 724.804 354.366C714.874 343.833 701.395 337.871 687.31 337.782L687.23 354.554Z" fill="#16215B"/>
<path d="M687.23 73.4708C697.096 73.5597 706.53 77.7548 713.476 85.1425C720.423 92.5301 724.321 102.512 724.32 112.915L740.307 112.915C740.307 98.0639 734.734 83.8158 724.804 73.2828C714.874 62.7497 701.395 56.7877 687.31 56.6986L687.23 73.4708Z" fill="#16215B"/>
<path d="M687.23 298.337C697.096 298.426 706.53 302.621 713.476 310.009C720.423 317.396 724.321 327.379 724.32 337.782L740.307 337.782C740.307 322.93 734.734 308.682 724.804 298.149C714.874 287.616 701.395 281.654 687.31 281.565L687.23 298.337Z" fill="#16215B"/>
<path d="M687.23 17.2541C697.096 17.3431 706.53 21.5382 713.476 28.9258C720.423 36.3135 724.321 46.2955 724.32 56.6986L740.307 56.6986C740.307 41.8472 734.734 27.5991 724.804 17.0661C714.874 6.53311 701.395 0.571028 687.31 0.481964L687.23 17.2541Z" fill="#16215B"/>
<path d="M687.23 242.12C697.096 242.209 706.53 246.405 713.476 253.792C720.423 261.18 724.321 271.162 724.32 281.565L740.307 281.565C740.307 266.714 734.734 252.465 724.804 241.932C714.874 231.399 701.395 225.437 687.31 225.348L687.23 242.12Z" fill="#16215B"/>
<path d="M581.074 185.904C590.94 185.993 600.374 190.188 607.321 197.576C614.268 204.963 618.165 214.945 618.165 225.349L634.152 225.348C634.152 210.497 628.579 196.249 618.649 185.716C608.719 175.183 595.239 169.221 581.154 169.132L581.074 185.904Z" fill="#16215B"/>
<path d="M581.074 410.77C590.94 410.859 600.374 415.054 607.321 422.442C614.268 429.83 618.165 439.812 618.165 450.215H634.152C634.152 435.364 628.579 421.115 618.649 410.582C608.719 400.049 595.239 394.087 581.154 393.998L581.074 410.77Z" fill="#16215B"/>
<path d="M581.074 129.687C590.94 129.776 600.374 133.971 607.321 141.359C614.268 148.747 618.165 158.729 618.165 169.132L634.152 169.132C634.152 154.28 628.579 140.032 618.649 129.499C608.719 118.966 595.239 113.004 581.154 112.915L581.074 129.687Z" fill="#16215B"/>
<path d="M581.074 354.554C590.94 354.643 600.374 358.838 607.321 366.225C614.268 373.613 618.165 383.595 618.165 393.998L634.152 393.998C634.152 379.147 628.579 364.899 618.649 354.366C608.719 343.833 595.239 337.871 581.154 337.782L581.074 354.554Z" fill="#16215B"/>
<path d="M581.074 73.4708C590.94 73.5597 600.374 77.7548 607.321 85.1425C614.268 92.5301 618.165 102.512 618.165 112.915L634.152 112.915C634.152 98.0639 628.579 83.8158 618.649 73.2828C608.719 62.7497 595.239 56.7877 581.154 56.6986L581.074 73.4708Z" fill="#16215B"/>
<path d="M581.074 298.337C590.94 298.426 600.374 302.621 607.321 310.009C614.268 317.396 618.165 327.379 618.165 337.782L634.152 337.782C634.152 322.93 628.579 308.682 618.649 298.149C608.719 287.616 595.239 281.654 581.154 281.565L581.074 298.337Z" fill="#16215B"/>
<path d="M581.074 17.2541C590.94 17.3431 600.374 21.5382 607.321 28.9258C614.268 36.3135 618.165 46.2955 618.165 56.6986L634.152 56.6986C634.152 41.8472 628.579 27.5991 618.649 17.0661C608.719 6.53311 595.239 0.571028 581.154 0.481964L581.074 17.2541Z" fill="#16215B"/>
<path d="M581.074 242.12C590.94 242.209 600.374 246.405 607.321 253.792C614.268 261.18 618.165 271.162 618.165 281.565L634.152 281.565C634.152 266.714 628.579 252.465 618.649 241.932C608.719 231.399 595.239 225.437 581.154 225.348L581.074 242.12Z" fill="#16215B"/>
<path d="M793.385 185.904C803.251 185.993 812.685 190.188 819.632 197.576C826.578 204.963 830.476 214.945 830.475 225.349H846.463C846.463 210.497 840.889 196.249 830.959 185.716C821.03 175.183 807.55 169.221 793.465 169.132L793.385 185.904Z" fill="#16215B"/>
<path d="M793.385 410.77C803.251 410.859 812.685 415.054 819.632 422.442C826.578 429.83 830.476 439.812 830.475 450.215H846.463C846.463 435.364 840.889 421.115 830.959 410.582C821.03 400.049 807.55 394.087 793.465 393.998L793.385 410.77Z" fill="#16215B"/>
<path d="M793.385 129.687C803.251 129.776 812.685 133.971 819.632 141.359C826.578 148.747 830.476 158.729 830.475 169.132H846.463C846.463 154.281 840.889 140.032 830.959 129.499C821.03 118.966 807.55 113.004 793.465 112.915L793.385 129.687Z" fill="#16215B"/>
<path d="M793.385 354.554C803.251 354.643 812.685 358.838 819.632 366.225C826.578 373.613 830.476 383.595 830.475 393.998H846.463C846.463 379.147 840.889 364.899 830.959 354.366C821.03 343.833 807.55 337.871 793.465 337.782L793.385 354.554Z" fill="#16215B"/>
<path d="M793.385 73.4708C803.251 73.5597 812.685 77.7548 819.632 85.1425C826.578 92.5301 830.476 102.512 830.475 112.915H846.463C846.463 98.0639 840.889 83.8158 830.959 73.2828C821.03 62.7497 807.55 56.7877 793.465 56.6986L793.385 73.4708Z" fill="#16215B"/>
<path d="M793.385 298.337C803.251 298.426 812.685 302.621 819.632 310.009C826.578 317.396 830.476 327.379 830.475 337.782H846.463C846.463 322.93 840.889 308.682 830.959 298.149C821.03 287.616 807.55 281.654 793.465 281.565L793.385 298.337Z" fill="#16215B"/>
<path d="M793.385 17.2541C803.251 17.3431 812.685 21.5382 819.632 28.9258C826.578 36.3135 830.476 46.2955 830.475 56.6986H846.463C846.463 41.8473 840.889 27.5991 830.959 17.0661C821.03 6.53311 807.55 0.571028 793.465 0.481964L793.385 17.2541Z" fill="#16215B"/>
<path d="M793.385 242.12C803.251 242.209 812.685 246.405 819.632 253.792C826.578 261.18 830.476 271.162 830.475 281.565H846.463C846.463 266.714 840.889 252.465 830.959 241.932C821.03 231.399 807.55 225.437 793.465 225.348L793.385 242.12Z" fill="#16215B"/>
<path d="M899.54 208.576C889.674 208.487 880.241 204.292 873.294 196.904C866.347 189.517 862.45 179.535 862.45 169.132H846.463C846.462 183.983 852.036 198.231 861.966 208.764C871.896 219.297 885.375 225.259 899.46 225.348L899.54 208.576Z" fill="#16215B"/>
<path d="M899.54 433.443C889.674 433.354 880.241 429.159 873.294 421.771C866.347 414.383 862.45 404.401 862.45 393.998H846.463C846.462 408.849 852.036 423.098 861.966 433.631C871.896 444.164 885.375 450.126 899.46 450.215L899.54 433.443Z" fill="#16215B"/>
<path d="M899.54 152.36C889.674 152.271 880.241 148.076 873.294 140.688C866.347 133.3 862.45 123.318 862.45 112.915H846.463C846.462 127.767 852.036 142.015 861.966 152.548C871.896 163.081 885.375 169.043 899.46 169.132L899.54 152.36Z" fill="#16215B"/>
<path d="M899.54 377.226C889.674 377.137 880.241 372.942 873.294 365.554C866.347 358.167 862.45 348.185 862.45 337.782H846.463C846.462 352.633 852.036 366.881 861.966 377.414C871.896 387.947 885.375 393.909 899.46 393.998L899.54 377.226Z" fill="#16215B"/>
<path d="M899.54 96.1431C889.674 96.0541 880.241 91.859 873.294 84.4714C866.347 77.0837 862.45 67.1017 862.45 56.6986H846.463C846.462 71.5499 852.036 85.7981 861.966 96.3311C871.896 106.864 885.375 112.826 899.46 112.915L899.54 96.1431Z" fill="#16215B"/>
<path d="M899.54 321.009C889.674 320.921 880.241 316.725 873.294 309.338C866.347 301.95 862.45 291.968 862.45 281.565H846.463C846.462 296.416 852.036 310.664 861.966 321.197C871.896 331.73 885.375 337.693 899.46 337.782L899.54 321.009Z" fill="#16215B"/>
<path d="M899.54 39.9264C889.674 39.8375 880.241 35.6424 873.294 28.2547C866.347 20.8671 862.45 10.8851 862.45 0.481934H846.463C846.462 15.3333 852.036 29.5814 861.966 40.1144C871.896 50.6475 885.375 56.6095 899.46 56.6986L899.54 39.9264Z" fill="#16215B"/>
<path d="M899.54 264.793C889.674 264.704 880.241 260.509 873.294 253.121C866.347 245.733 862.45 235.751 862.45 225.348H846.463C846.462 240.2 852.036 254.448 861.966 264.981C871.896 275.514 885.375 281.476 899.46 281.565L899.54 264.793Z" fill="#16215B"/>
<path d="M1111.85 208.576C1101.99 208.487 1092.55 204.292 1085.6 196.904C1078.66 189.517 1074.76 179.535 1074.76 169.132H1058.77C1058.77 183.983 1064.35 198.231 1074.28 208.764C1084.21 219.297 1097.69 225.259 1111.77 225.348L1111.85 208.576Z" fill="#16215B"/>
<path d="M1111.85 433.443C1101.99 433.354 1092.55 429.159 1085.6 421.771C1078.66 414.383 1074.76 404.401 1074.76 393.998H1058.77C1058.77 408.849 1064.35 423.098 1074.28 433.631C1084.21 444.164 1097.69 450.126 1111.77 450.215L1111.85 433.443Z" fill="#16215B"/>
<path d="M1111.85 152.36C1101.99 152.271 1092.55 148.076 1085.6 140.688C1078.66 133.3 1074.76 123.318 1074.76 112.915H1058.77C1058.77 127.767 1064.35 142.015 1074.28 152.548C1084.21 163.081 1097.69 169.043 1111.77 169.132L1111.85 152.36Z" fill="#16215B"/>
<path d="M1111.85 377.226C1101.99 377.137 1092.55 372.942 1085.6 365.554C1078.66 358.167 1074.76 348.185 1074.76 337.782H1058.77C1058.77 352.633 1064.35 366.881 1074.28 377.414C1084.21 387.947 1097.69 393.909 1111.77 393.998L1111.85 377.226Z" fill="#16215B"/>
<path d="M1111.85 96.1431C1101.99 96.0541 1092.55 91.859 1085.6 84.4714C1078.66 77.0837 1074.76 67.1017 1074.76 56.6986H1058.77C1058.77 71.5499 1064.35 85.7981 1074.28 96.3311C1084.21 106.864 1097.69 112.826 1111.77 112.915L1111.85 96.1431Z" fill="#16215B"/>
<path d="M1111.85 321.009C1101.99 320.921 1092.55 316.725 1085.6 309.338C1078.66 301.95 1074.76 291.968 1074.76 281.565H1058.77C1058.77 296.416 1064.35 310.664 1074.28 321.197C1084.21 331.73 1097.69 337.693 1111.77 337.782L1111.85 321.009Z" fill="#16215B"/>
<path d="M1111.85 39.9264C1101.99 39.8375 1092.55 35.6424 1085.6 28.2547C1078.66 20.8671 1074.76 10.8851 1074.76 0.481934H1058.77C1058.77 15.3333 1064.35 29.5814 1074.28 40.1144C1084.21 50.6475 1097.69 56.6095 1111.77 56.6986L1111.85 39.9264Z" fill="#16215B"/>
<path d="M1111.85 264.793C1101.99 264.704 1092.55 260.509 1085.6 253.121C1078.66 245.733 1074.76 235.751 1074.76 225.348H1058.77C1058.77 240.2 1064.35 254.448 1074.28 264.981C1084.21 275.514 1097.69 281.476 1111.77 281.565L1111.85 264.793Z" fill="#16215B"/>
<path d="M1005.7 208.576C995.83 208.487 986.396 204.292 979.449 196.904C972.503 189.517 968.605 179.535 968.605 169.132H952.618C952.618 183.983 958.192 198.231 968.122 208.764C978.051 219.297 991.531 225.259 1005.62 225.348L1005.7 208.576Z" fill="#16215B"/>
<path d="M1005.7 433.443C995.83 433.354 986.396 429.159 979.449 421.771C972.503 414.383 968.605 404.401 968.605 393.998H952.618C952.618 408.849 958.192 423.098 968.122 433.631C978.051 444.164 991.531 450.126 1005.62 450.215L1005.7 433.443Z" fill="#16215B"/>
<path d="M1005.7 152.36C995.83 152.271 986.396 148.076 979.449 140.688C972.503 133.3 968.605 123.318 968.605 112.915H952.618C952.618 127.767 958.192 142.015 968.122 152.548C978.051 163.081 991.531 169.043 1005.62 169.132L1005.7 152.36Z" fill="#16215B"/>
<path d="M1005.7 377.226C995.83 377.137 986.396 372.942 979.449 365.554C972.503 358.167 968.605 348.185 968.605 337.782H952.618C952.618 352.633 958.192 366.881 968.122 377.414C978.051 387.947 991.531 393.909 1005.62 393.998L1005.7 377.226Z" fill="#16215B"/>
<path d="M1005.7 96.1431C995.83 96.0541 986.396 91.859 979.449 84.4714C972.503 77.0837 968.605 67.1017 968.605 56.6986H952.618C952.618 71.5499 958.192 85.7981 968.122 96.3311C978.051 106.864 991.531 112.826 1005.62 112.915L1005.7 96.1431Z" fill="#16215B"/>
<path d="M1005.7 321.009C995.83 320.921 986.396 316.725 979.449 309.338C972.503 301.95 968.605 291.968 968.605 281.565H952.618C952.618 296.416 958.192 310.664 968.122 321.197C978.051 331.73 991.531 337.693 1005.62 337.782L1005.7 321.009Z" fill="#16215B"/>
<path d="M1005.7 39.9264C995.83 39.8375 986.396 35.6424 979.449 28.2547C972.503 20.8671 968.605 10.8851 968.605 0.481934H952.618C952.618 15.3333 958.192 29.5814 968.122 40.1144C978.051 50.6475 991.531 56.6095 1005.62 56.6986L1005.7 39.9264Z" fill="#16215B"/>
<path d="M1005.7 264.793C995.83 264.704 986.396 260.509 979.449 253.121C972.503 245.733 968.605 235.751 968.605 225.348H952.618C952.618 240.2 958.192 254.448 968.122 264.981C978.051 275.514 991.531 281.476 1005.62 281.565L1005.7 264.793Z" fill="#16215B"/>
<path d="M1218.01 208.576C1208.14 208.487 1198.71 204.292 1191.76 196.904C1184.81 189.517 1180.92 179.535 1180.92 169.132H1164.93C1164.93 183.983 1170.5 198.231 1180.43 208.764C1190.36 219.297 1203.84 225.259 1217.93 225.348L1218.01 208.576Z" fill="#16215B"/>
<path d="M1218.01 433.443C1208.14 433.354 1198.71 429.159 1191.76 421.771C1184.81 414.383 1180.92 404.401 1180.92 393.998H1164.93C1164.93 408.849 1170.5 423.098 1180.43 433.631C1190.36 444.164 1203.84 450.126 1217.93 450.215L1218.01 433.443Z" fill="#16215B"/>
<path d="M1218.01 152.36C1208.14 152.271 1198.71 148.076 1191.76 140.688C1184.81 133.3 1180.92 123.318 1180.92 112.915H1164.93C1164.93 127.767 1170.5 142.015 1180.43 152.548C1190.36 163.081 1203.84 169.043 1217.93 169.132L1218.01 152.36Z" fill="#16215B"/>
<path d="M1218.01 377.226C1208.14 377.137 1198.71 372.942 1191.76 365.554C1184.81 358.167 1180.92 348.185 1180.92 337.782H1164.93C1164.93 352.633 1170.5 366.881 1180.43 377.414C1190.36 387.947 1203.84 393.909 1217.93 393.998L1218.01 377.226Z" fill="#16215B"/>
<path d="M1218.01 96.1431C1208.14 96.0541 1198.71 91.859 1191.76 84.4714C1184.81 77.0837 1180.92 67.1017 1180.92 56.6986H1164.93C1164.93 71.5499 1170.5 85.7981 1180.43 96.3311C1190.36 106.864 1203.84 112.826 1217.93 112.915L1218.01 96.1431Z" fill="#16215B"/>
<path d="M1218.01 321.009C1208.14 320.921 1198.71 316.725 1191.76 309.338C1184.81 301.95 1180.92 291.968 1180.92 281.565H1164.93C1164.93 296.416 1170.5 310.664 1180.43 321.197C1190.36 331.73 1203.84 337.693 1217.93 337.782L1218.01 321.009Z" fill="#16215B"/>
<path d="M1218.01 39.9264C1208.14 39.8375 1198.71 35.6424 1191.76 28.2547C1184.81 20.8671 1180.92 10.8851 1180.92 0.481934H1164.93C1164.93 15.3333 1170.5 29.5814 1180.43 40.1144C1190.36 50.6475 1203.84 56.6095 1217.93 56.6986L1218.01 39.9264Z" fill="#16215B"/>
<path d="M1218.01 264.793C1208.14 264.704 1198.71 260.509 1191.76 253.121C1184.81 245.733 1180.92 235.751 1180.92 225.348H1164.93C1164.93 240.2 1170.5 254.448 1180.43 264.981C1190.36 275.514 1203.84 281.476 1217.93 281.565L1218.01 264.793Z" fill="#16215B"/>
<path d="M899.54 185.904C909.407 185.993 918.84 190.188 925.787 197.576C932.734 204.963 936.631 214.945 936.631 225.349L952.618 225.348C952.618 210.497 947.045 196.249 937.115 185.716C927.185 175.183 913.706 169.221 899.62 169.132L899.54 185.904Z" fill="#16215B"/>
<path d="M899.54 410.77C909.407 410.859 918.84 415.054 925.787 422.442C932.734 429.83 936.631 439.812 936.631 450.215H952.618C952.619 435.364 947.045 421.115 937.115 410.582C927.185 400.049 913.706 394.087 899.62 393.998L899.54 410.77Z" fill="#16215B"/>
<path d="M899.54 129.687C909.407 129.776 918.84 133.971 925.787 141.359C932.734 148.747 936.631 158.729 936.631 169.132L952.618 169.132C952.618 154.28 947.045 140.032 937.115 129.499C927.185 118.966 913.706 113.004 899.62 112.915L899.54 129.687Z" fill="#16215B"/>
<path d="M899.54 354.554C909.407 354.643 918.84 358.838 925.787 366.225C932.734 373.613 936.631 383.595 936.631 393.998L952.618 393.998C952.618 379.147 947.045 364.899 937.115 354.366C927.185 343.833 913.706 337.871 899.62 337.782L899.54 354.554Z" fill="#16215B"/>
<path d="M899.54 73.4708C909.407 73.5597 918.84 77.7548 925.787 85.1425C932.734 92.5301 936.631 102.512 936.631 112.915L952.618 112.915C952.618 98.0639 947.045 83.8158 937.115 73.2828C927.185 62.7497 913.706 56.7877 899.62 56.6986L899.54 73.4708Z" fill="#16215B"/>
<path d="M899.54 298.337C909.407 298.426 918.84 302.621 925.787 310.009C932.734 317.396 936.631 327.379 936.631 337.782L952.618 337.782C952.618 322.93 947.045 308.682 937.115 298.149C927.185 287.616 913.706 281.654 899.62 281.565L899.54 298.337Z" fill="#16215B"/>
<path d="M899.54 17.2541C909.407 17.3431 918.84 21.5382 925.787 28.9258C932.734 36.3135 936.631 46.2955 936.631 56.6986L952.618 56.6986C952.618 41.8472 947.045 27.5991 937.115 17.0661C927.185 6.53311 913.706 0.571028 899.62 0.481964L899.54 17.2541Z" fill="#16215B"/>
<path d="M899.54 242.12C909.407 242.209 918.84 246.405 925.787 253.792C932.734 261.18 936.631 271.162 936.631 281.565L952.618 281.565C952.618 266.714 947.045 252.465 937.115 241.932C927.185 231.399 913.706 225.437 899.62 225.348L899.54 242.12Z" fill="#16215B"/>
<path d="M1111.85 185.904C1121.72 185.993 1131.15 190.188 1138.1 197.576C1145.05 204.963 1148.94 214.945 1148.94 225.349L1164.93 225.348C1164.93 210.497 1159.36 196.249 1149.43 185.716C1139.5 175.183 1126.02 169.221 1111.93 169.132L1111.85 185.904Z" fill="#16215B"/>
<path d="M1111.85 410.77C1121.72 410.859 1131.15 415.054 1138.1 422.442C1145.05 429.83 1148.94 439.812 1148.94 450.215H1164.93C1164.93 435.364 1159.36 421.115 1149.43 410.582C1139.5 400.049 1126.02 394.087 1111.93 393.998L1111.85 410.77Z" fill="#16215B"/>
<path d="M1111.85 129.687C1121.72 129.776 1131.15 133.971 1138.1 141.359C1145.05 148.747 1148.94 158.729 1148.94 169.132L1164.93 169.132C1164.93 154.28 1159.36 140.032 1149.43 129.499C1139.5 118.966 1126.02 113.004 1111.93 112.915L1111.85 129.687Z" fill="#16215B"/>
<path d="M1111.85 354.554C1121.72 354.643 1131.15 358.838 1138.1 366.225C1145.05 373.613 1148.94 383.595 1148.94 393.998L1164.93 393.998C1164.93 379.147 1159.36 364.899 1149.43 354.366C1139.5 343.833 1126.02 337.871 1111.93 337.782L1111.85 354.554Z" fill="#16215B"/>
<path d="M1111.85 73.4708C1121.72 73.5597 1131.15 77.7548 1138.1 85.1425C1145.05 92.5301 1148.94 102.512 1148.94 112.915L1164.93 112.915C1164.93 98.0639 1159.36 83.8158 1149.43 73.2828C1139.5 62.7497 1126.02 56.7877 1111.93 56.6986L1111.85 73.4708Z" fill="#16215B"/>
<path d="M1111.85 298.337C1121.72 298.426 1131.15 302.621 1138.1 310.009C1145.05 317.396 1148.94 327.379 1148.94 337.782L1164.93 337.782C1164.93 322.93 1159.36 308.682 1149.43 298.149C1139.5 287.616 1126.02 281.654 1111.93 281.565L1111.85 298.337Z" fill="#16215B"/>
<path d="M1111.85 17.2541C1121.72 17.3431 1131.15 21.5382 1138.1 28.9258C1145.05 36.3135 1148.94 46.2955 1148.94 56.6986L1164.93 56.6986C1164.93 41.8472 1159.36 27.5991 1149.43 17.0661C1139.5 6.53311 1126.02 0.571028 1111.93 0.481964L1111.85 17.2541Z" fill="#16215B"/>
<path d="M1111.85 242.12C1121.72 242.209 1131.15 246.405 1138.1 253.792C1145.05 261.18 1148.94 271.162 1148.94 281.565L1164.93 281.565C1164.93 266.714 1159.36 252.465 1149.43 241.932C1139.5 231.399 1126.02 225.437 1111.93 225.348L1111.85 242.12Z" fill="#16215B"/>
<path d="M1005.7 185.904C1015.56 185.993 1025 190.188 1031.94 197.576C1038.89 204.963 1042.79 214.945 1042.79 225.349L1058.77 225.348C1058.77 210.497 1053.2 196.249 1043.27 185.716C1033.34 175.183 1019.86 169.221 1005.78 169.132L1005.7 185.904Z" fill="#16215B"/>
<path d="M1005.7 410.77C1015.56 410.859 1025 415.054 1031.94 422.442C1038.89 429.83 1042.79 439.812 1042.79 450.215H1058.77C1058.77 435.364 1053.2 421.115 1043.27 410.582C1033.34 400.049 1019.86 394.087 1005.78 393.998L1005.7 410.77Z" fill="#16215B"/>
<path d="M1005.7 129.687C1015.56 129.776 1025 133.971 1031.94 141.359C1038.89 148.747 1042.79 158.729 1042.79 169.132L1058.77 169.132C1058.77 154.28 1053.2 140.032 1043.27 129.499C1033.34 118.966 1019.86 113.004 1005.78 112.915L1005.7 129.687Z" fill="#16215B"/>
<path d="M1005.7 354.554C1015.56 354.643 1025 358.838 1031.94 366.225C1038.89 373.613 1042.79 383.595 1042.79 393.998L1058.77 393.998C1058.77 379.147 1053.2 364.899 1043.27 354.366C1033.34 343.833 1019.86 337.871 1005.78 337.782L1005.7 354.554Z" fill="#16215B"/>
<path d="M1005.7 73.4708C1015.56 73.5597 1025 77.7548 1031.94 85.1425C1038.89 92.5301 1042.79 102.512 1042.79 112.915L1058.77 112.915C1058.77 98.0639 1053.2 83.8158 1043.27 73.2828C1033.34 62.7497 1019.86 56.7877 1005.78 56.6986L1005.7 73.4708Z" fill="#16215B"/>
<path d="M1005.7 298.337C1015.56 298.426 1025 302.621 1031.94 310.009C1038.89 317.396 1042.79 327.379 1042.79 337.782L1058.77 337.782C1058.77 322.93 1053.2 308.682 1043.27 298.149C1033.34 287.616 1019.86 281.654 1005.78 281.565L1005.7 298.337Z" fill="#16215B"/>
<path d="M1005.7 17.2541C1015.56 17.3431 1025 21.5382 1031.94 28.9258C1038.89 36.3135 1042.79 46.2955 1042.79 56.6986L1058.77 56.6986C1058.77 41.8472 1053.2 27.5991 1043.27 17.0661C1033.34 6.53311 1019.86 0.571028 1005.78 0.481964L1005.7 17.2541Z" fill="#16215B"/>
<path d="M1005.7 242.12C1015.56 242.209 1025 246.405 1031.94 253.792C1038.89 261.18 1042.79 271.162 1042.79 281.565L1058.77 281.565C1058.77 266.714 1053.2 252.465 1043.27 241.932C1033.34 231.399 1019.86 225.437 1005.78 225.348L1005.7 242.12Z" fill="#16215B"/>
<path d="M1218.01 185.904C1227.87 185.993 1237.31 190.188 1244.25 197.576C1251.2 204.963 1255.1 214.945 1255.1 225.349H1271.08C1271.08 210.497 1265.51 196.249 1255.58 185.716C1245.65 175.183 1232.17 169.221 1218.09 169.132L1218.01 185.904Z" fill="#16215B"/>
<path d="M1218.01 410.77C1227.87 410.859 1237.31 415.054 1244.25 422.442C1251.2 429.83 1255.1 439.812 1255.1 450.215H1271.08C1271.08 435.364 1265.51 421.115 1255.58 410.582C1245.65 400.049 1232.17 394.087 1218.09 393.998L1218.01 410.77Z" fill="#16215B"/>
<path d="M1218.01 129.687C1227.87 129.776 1237.31 133.971 1244.25 141.359C1251.2 148.747 1255.1 158.729 1255.1 169.132H1271.08C1271.08 154.281 1265.51 140.032 1255.58 129.499C1245.65 118.966 1232.17 113.004 1218.09 112.915L1218.01 129.687Z" fill="#16215B"/>
<path d="M1218.01 354.554C1227.87 354.643 1237.31 358.838 1244.25 366.225C1251.2 373.613 1255.1 383.595 1255.1 393.998H1271.08C1271.08 379.147 1265.51 364.899 1255.58 354.366C1245.65 343.833 1232.17 337.871 1218.09 337.782L1218.01 354.554Z" fill="#16215B"/>
<path d="M1218.01 73.4708C1227.87 73.5597 1237.31 77.7548 1244.25 85.1425C1251.2 92.5301 1255.1 102.512 1255.1 112.915H1271.08C1271.08 98.0639 1265.51 83.8158 1255.58 73.2828C1245.65 62.7497 1232.17 56.7877 1218.09 56.6986L1218.01 73.4708Z" fill="#16215B"/>
<path d="M1218.01 298.337C1227.87 298.426 1237.31 302.621 1244.25 310.009C1251.2 317.396 1255.1 327.379 1255.1 337.782H1271.08C1271.08 322.93 1265.51 308.682 1255.58 298.149C1245.65 287.616 1232.17 281.654 1218.09 281.565L1218.01 298.337Z" fill="#16215B"/>
<path d="M1218.01 17.2541C1227.87 17.3431 1237.31 21.5382 1244.25 28.9258C1251.2 36.3135 1255.1 46.2955 1255.1 56.6986H1271.08C1271.08 41.8473 1265.51 27.5991 1255.58 17.0661C1245.65 6.53311 1232.17 0.571028 1218.09 0.481964L1218.01 17.2541Z" fill="#16215B"/>
<path d="M1218.01 242.12C1227.87 242.209 1237.31 246.405 1244.25 253.792C1251.2 261.18 1255.1 271.162 1255.1 281.565H1271.08C1271.08 266.714 1265.51 252.465 1255.58 241.932C1245.65 231.399 1232.17 225.437 1218.09 225.348L1218.01 242.12Z" fill="#16215B"/>
<path d="M1320.81 208.576C1310.95 208.487 1301.51 204.292 1294.57 196.904C1287.62 189.517 1283.72 179.535 1283.72 169.132H1267.74C1267.74 183.983 1273.31 198.231 1283.24 208.764C1293.17 219.297 1306.65 225.259 1320.73 225.348L1320.81 208.576Z" fill="#16215B"/>
<path d="M1320.81 433.443C1310.95 433.354 1301.51 429.159 1294.57 421.771C1287.62 414.383 1283.72 404.401 1283.72 393.998H1267.74C1267.74 408.849 1273.31 423.098 1283.24 433.631C1293.17 444.164 1306.65 450.126 1320.73 450.215L1320.81 433.443Z" fill="#16215B"/>
<path d="M1320.81 152.36C1310.95 152.271 1301.51 148.076 1294.57 140.688C1287.62 133.3 1283.72 123.318 1283.72 112.915H1267.74C1267.74 127.767 1273.31 142.015 1283.24 152.548C1293.17 163.081 1306.65 169.043 1320.73 169.132L1320.81 152.36Z" fill="#16215B"/>
<path d="M1320.81 377.226C1310.95 377.137 1301.51 372.942 1294.57 365.554C1287.62 358.167 1283.72 348.185 1283.72 337.782H1267.74C1267.74 352.633 1273.31 366.881 1283.24 377.414C1293.17 387.947 1306.65 393.909 1320.73 393.998L1320.81 377.226Z" fill="#16215B"/>
<path d="M1320.81 96.1431C1310.95 96.0541 1301.51 91.859 1294.57 84.4714C1287.62 77.0837 1283.72 67.1017 1283.72 56.6986H1267.74C1267.74 71.5499 1273.31 85.7981 1283.24 96.3311C1293.17 106.864 1306.65 112.826 1320.73 112.915L1320.81 96.1431Z" fill="#16215B"/>
<path d="M1320.81 321.009C1310.95 320.921 1301.51 316.725 1294.57 309.338C1287.62 301.95 1283.72 291.968 1283.72 281.565H1267.74C1267.74 296.416 1273.31 310.664 1283.24 321.197C1293.17 331.73 1306.65 337.693 1320.73 337.782L1320.81 321.009Z" fill="#16215B"/>
<path d="M1320.81 39.9264C1310.95 39.8375 1301.51 35.6424 1294.57 28.2547C1287.62 20.8671 1283.72 10.8851 1283.72 0.481934H1267.74C1267.74 15.3333 1273.31 29.5814 1283.24 40.1144C1293.17 50.6475 1306.65 56.6095 1320.73 56.6986L1320.81 39.9264Z" fill="#16215B"/>
<path d="M1320.81 264.793C1310.95 264.704 1301.51 260.509 1294.57 253.121C1287.62 245.733 1283.72 235.751 1283.72 225.348H1267.74C1267.74 240.2 1273.31 254.448 1283.24 264.981C1293.17 275.514 1306.65 281.476 1320.73 281.565L1320.81 264.793Z" fill="#16215B"/>
<path d="M1533.13 208.576C1523.26 208.487 1513.83 204.292 1506.88 196.904C1499.93 189.517 1496.03 179.535 1496.03 169.132H1480.05C1480.05 183.983 1485.62 198.231 1495.55 208.764C1505.48 219.297 1518.96 225.259 1533.05 225.348L1533.13 208.576Z" fill="#16215B"/>
<path d="M1533.13 433.443C1523.26 433.354 1513.83 429.159 1506.88 421.771C1499.93 414.383 1496.03 404.401 1496.03 393.998H1480.05C1480.05 408.849 1485.62 423.098 1495.55 433.631C1505.48 444.164 1518.96 450.126 1533.05 450.215L1533.13 433.443Z" fill="#16215B"/>
<path d="M1533.13 152.36C1523.26 152.271 1513.83 148.076 1506.88 140.688C1499.93 133.3 1496.03 123.318 1496.03 112.915H1480.05C1480.05 127.767 1485.62 142.015 1495.55 152.548C1505.48 163.081 1518.96 169.043 1533.05 169.132L1533.13 152.36Z" fill="#16215B"/>
<path d="M1533.13 377.226C1523.26 377.137 1513.83 372.942 1506.88 365.554C1499.93 358.167 1496.03 348.185 1496.03 337.782H1480.05C1480.05 352.633 1485.62 366.881 1495.55 377.414C1505.48 387.947 1518.96 393.909 1533.05 393.998L1533.13 377.226Z" fill="#16215B"/>
<path d="M1533.13 96.1431C1523.26 96.0541 1513.83 91.859 1506.88 84.4714C1499.93 77.0837 1496.03 67.1017 1496.03 56.6986H1480.05C1480.05 71.5499 1485.62 85.7981 1495.55 96.3311C1505.48 106.864 1518.96 112.826 1533.05 112.915L1533.13 96.1431Z" fill="#16215B"/>
<path d="M1533.13 321.009C1523.26 320.921 1513.83 316.725 1506.88 309.338C1499.93 301.95 1496.03 291.968 1496.03 281.565H1480.05C1480.05 296.416 1485.62 310.664 1495.55 321.197C1505.48 331.73 1518.96 337.693 1533.05 337.782L1533.13 321.009Z" fill="#16215B"/>
<path d="M1533.13 39.9264C1523.26 39.8375 1513.83 35.6424 1506.88 28.2547C1499.93 20.8671 1496.03 10.8851 1496.03 0.481934H1480.05C1480.05 15.3333 1485.62 29.5814 1495.55 40.1144C1505.48 50.6475 1518.96 56.6095 1533.05 56.6986L1533.13 39.9264Z" fill="#16215B"/>
<path d="M1533.13 264.793C1523.26 264.704 1513.83 260.509 1506.88 253.121C1499.93 245.733 1496.03 235.751 1496.03 225.348H1480.05C1480.05 240.2 1485.62 254.448 1495.55 264.981C1505.48 275.514 1518.96 281.476 1533.05 281.565L1533.13 264.793Z" fill="#16215B"/>
<path d="M1426.97 208.576C1417.1 208.487 1407.67 204.292 1400.72 196.904C1393.78 189.517 1389.88 179.535 1389.88 169.132H1373.89C1373.89 183.983 1379.47 198.231 1389.4 208.764C1399.33 219.297 1412.8 225.259 1426.89 225.348L1426.97 208.576Z" fill="#16215B"/>
<path d="M1426.97 433.443C1417.1 433.354 1407.67 429.159 1400.72 421.771C1393.78 414.383 1389.88 404.401 1389.88 393.998H1373.89C1373.89 408.849 1379.47 423.098 1389.4 433.631C1399.33 444.164 1412.8 450.126 1426.89 450.215L1426.97 433.443Z" fill="#16215B"/>
<path d="M1426.97 152.36C1417.1 152.271 1407.67 148.076 1400.72 140.688C1393.78 133.3 1389.88 123.318 1389.88 112.915H1373.89C1373.89 127.767 1379.47 142.015 1389.4 152.548C1399.33 163.081 1412.8 169.043 1426.89 169.132L1426.97 152.36Z" fill="#16215B"/>
<path d="M1426.97 377.226C1417.1 377.137 1407.67 372.942 1400.72 365.554C1393.78 358.167 1389.88 348.185 1389.88 337.782H1373.89C1373.89 352.633 1379.47 366.881 1389.4 377.414C1399.33 387.947 1412.8 393.909 1426.89 393.998L1426.97 377.226Z" fill="#16215B"/>
<path d="M1426.97 96.1431C1417.1 96.0541 1407.67 91.859 1400.72 84.4714C1393.78 77.0837 1389.88 67.1017 1389.88 56.6986H1373.89C1373.89 71.5499 1379.47 85.7981 1389.4 96.3311C1399.33 106.864 1412.8 112.826 1426.89 112.915L1426.97 96.1431Z" fill="#16215B"/>
<path d="M1426.97 321.009C1417.1 320.921 1407.67 316.725 1400.72 309.338C1393.78 301.95 1389.88 291.968 1389.88 281.565H1373.89C1373.89 296.416 1379.47 310.664 1389.4 321.197C1399.33 331.73 1412.8 337.693 1426.89 337.782L1426.97 321.009Z" fill="#16215B"/>
<path d="M1426.97 39.9264C1417.1 39.8375 1407.67 35.6424 1400.72 28.2547C1393.78 20.8671 1389.88 10.8851 1389.88 0.481934H1373.89C1373.89 15.3333 1379.47 29.5814 1389.4 40.1144C1399.33 50.6475 1412.8 56.6095 1426.89 56.6986L1426.97 39.9264Z" fill="#16215B"/>
<path d="M1426.97 264.793C1417.1 264.704 1407.67 260.509 1400.72 253.121C1393.78 245.733 1389.88 235.751 1389.88 225.348H1373.89C1373.89 240.2 1379.47 254.448 1389.4 264.981C1399.33 275.514 1412.8 281.476 1426.89 281.565L1426.97 264.793Z" fill="#16215B"/>
<path d="M1639.28 208.576C1629.41 208.487 1619.98 204.292 1613.03 196.904C1606.09 189.517 1602.19 179.535 1602.19 169.132H1586.2C1586.2 183.983 1591.78 198.231 1601.71 208.764C1611.64 219.297 1625.12 225.259 1639.2 225.348L1639.28 208.576Z" fill="#16215B"/>
<path d="M1639.28 433.443C1629.41 433.354 1619.98 429.159 1613.03 421.771C1606.09 414.383 1602.19 404.401 1602.19 393.998H1586.2C1586.2 408.849 1591.78 423.098 1601.71 433.631C1611.64 444.164 1625.12 450.126 1639.2 450.215L1639.28 433.443Z" fill="#16215B"/>
<path d="M1639.28 152.36C1629.41 152.271 1619.98 148.076 1613.03 140.688C1606.09 133.3 1602.19 123.318 1602.19 112.915H1586.2C1586.2 127.767 1591.78 142.015 1601.71 152.548C1611.64 163.081 1625.12 169.043 1639.2 169.132L1639.28 152.36Z" fill="#16215B"/>
<path d="M1639.28 377.226C1629.41 377.137 1619.98 372.942 1613.03 365.554C1606.09 358.167 1602.19 348.185 1602.19 337.782H1586.2C1586.2 352.633 1591.78 366.881 1601.71 377.414C1611.64 387.947 1625.12 393.909 1639.2 393.998L1639.28 377.226Z" fill="#16215B"/>
<path d="M1639.28 96.1431C1629.41 96.0541 1619.98 91.859 1613.03 84.4714C1606.09 77.0837 1602.19 67.1017 1602.19 56.6986H1586.2C1586.2 71.5499 1591.78 85.7981 1601.71 96.3311C1611.64 106.864 1625.12 112.826 1639.2 112.915L1639.28 96.1431Z" fill="#16215B"/>
<path d="M1639.28 321.009C1629.41 320.921 1619.98 316.725 1613.03 309.338C1606.09 301.95 1602.19 291.968 1602.19 281.565H1586.2C1586.2 296.416 1591.78 310.664 1601.71 321.197C1611.64 331.73 1625.12 337.693 1639.2 337.782L1639.28 321.009Z" fill="#16215B"/>
<path d="M1639.28 39.9264C1629.41 39.8375 1619.98 35.6424 1613.03 28.2547C1606.09 20.8671 1602.19 10.8851 1602.19 0.481934H1586.2C1586.2 15.3333 1591.78 29.5814 1601.71 40.1144C1611.64 50.6475 1625.12 56.6095 1639.2 56.6986L1639.28 39.9264Z" fill="#16215B"/>
<path d="M1639.28 264.793C1629.41 264.704 1619.98 260.509 1613.03 253.121C1606.09 245.733 1602.19 235.751 1602.19 225.348H1586.2C1586.2 240.2 1591.78 254.448 1601.71 264.981C1611.64 275.514 1625.12 281.476 1639.2 281.565L1639.28 264.793Z" fill="#16215B"/>
<path d="M1320.81 185.904C1330.68 185.993 1340.11 190.188 1347.06 197.576C1354.01 204.963 1357.91 214.945 1357.9 225.349L1373.89 225.348C1373.89 210.497 1368.32 196.249 1358.39 185.716C1348.46 175.183 1334.98 169.221 1320.89 169.132L1320.81 185.904Z" fill="#16215B"/>
<path d="M1320.81 410.77C1330.68 410.859 1340.11 415.054 1347.06 422.442C1354.01 429.83 1357.91 439.812 1357.9 450.215H1373.89C1373.89 435.364 1368.32 421.115 1358.39 410.582C1348.46 400.049 1334.98 394.087 1320.89 393.998L1320.81 410.77Z" fill="#16215B"/>
<path d="M1320.81 129.687C1330.68 129.776 1340.11 133.971 1347.06 141.359C1354.01 148.747 1357.91 158.729 1357.9 169.132L1373.89 169.132C1373.89 154.28 1368.32 140.032 1358.39 129.499C1348.46 118.966 1334.98 113.004 1320.89 112.915L1320.81 129.687Z" fill="#16215B"/>
<path d="M1320.81 354.554C1330.68 354.643 1340.11 358.838 1347.06 366.225C1354.01 373.613 1357.91 383.595 1357.9 393.998L1373.89 393.998C1373.89 379.147 1368.32 364.899 1358.39 354.366C1348.46 343.833 1334.98 337.871 1320.89 337.782L1320.81 354.554Z" fill="#16215B"/>
<path d="M1320.81 73.4708C1330.68 73.5597 1340.11 77.7548 1347.06 85.1425C1354.01 92.5301 1357.91 102.512 1357.9 112.915L1373.89 112.915C1373.89 98.0639 1368.32 83.8158 1358.39 73.2828C1348.46 62.7497 1334.98 56.7877 1320.89 56.6986L1320.81 73.4708Z" fill="#16215B"/>
<path d="M1320.81 298.337C1330.68 298.426 1340.11 302.621 1347.06 310.009C1354.01 317.396 1357.91 327.379 1357.9 337.782L1373.89 337.782C1373.89 322.93 1368.32 308.682 1358.39 298.149C1348.46 287.616 1334.98 281.654 1320.89 281.565L1320.81 298.337Z" fill="#16215B"/>
<path d="M1320.81 17.2541C1330.68 17.3431 1340.11 21.5382 1347.06 28.9258C1354.01 36.3135 1357.91 46.2955 1357.9 56.6986L1373.89 56.6986C1373.89 41.8472 1368.32 27.5991 1358.39 17.0661C1348.46 6.53311 1334.98 0.571028 1320.89 0.481964L1320.81 17.2541Z" fill="#16215B"/>
<path d="M1320.81 242.12C1330.68 242.209 1340.11 246.405 1347.06 253.792C1354.01 261.18 1357.91 271.162 1357.9 281.565L1373.89 281.565C1373.89 266.714 1368.32 252.465 1358.39 241.932C1348.46 231.399 1334.98 225.437 1320.89 225.348L1320.81 242.12Z" fill="#16215B"/>
<path d="M1533.13 185.904C1542.99 185.993 1552.43 190.188 1559.37 197.576C1566.32 204.963 1570.22 214.945 1570.22 225.349L1586.2 225.348C1586.2 210.497 1580.63 196.249 1570.7 185.716C1560.77 175.183 1547.29 169.221 1533.21 169.132L1533.13 185.904Z" fill="#16215B"/>
<path d="M1533.13 410.77C1542.99 410.859 1552.43 415.054 1559.37 422.442C1566.32 429.83 1570.22 439.812 1570.22 450.215H1586.2C1586.2 435.364 1580.63 421.115 1570.7 410.582C1560.77 400.049 1547.29 394.087 1533.21 393.998L1533.13 410.77Z" fill="#16215B"/>
<path d="M1533.13 129.687C1542.99 129.776 1552.43 133.971 1559.37 141.359C1566.32 148.747 1570.22 158.729 1570.22 169.132L1586.2 169.132C1586.2 154.28 1580.63 140.032 1570.7 129.499C1560.77 118.966 1547.29 113.004 1533.21 112.915L1533.13 129.687Z" fill="#16215B"/>
<path d="M1533.13 354.554C1542.99 354.643 1552.43 358.838 1559.37 366.225C1566.32 373.613 1570.22 383.595 1570.22 393.998L1586.2 393.998C1586.2 379.147 1580.63 364.899 1570.7 354.366C1560.77 343.833 1547.29 337.871 1533.21 337.782L1533.13 354.554Z" fill="#16215B"/>
<path d="M1533.13 73.4708C1542.99 73.5597 1552.43 77.7548 1559.37 85.1425C1566.32 92.5301 1570.22 102.512 1570.22 112.915L1586.2 112.915C1586.2 98.0639 1580.63 83.8158 1570.7 73.2828C1560.77 62.7497 1547.29 56.7877 1533.21 56.6986L1533.13 73.4708Z" fill="#16215B"/>
<path d="M1533.13 298.337C1542.99 298.426 1552.43 302.621 1559.37 310.009C1566.32 317.396 1570.22 327.379 1570.22 337.782L1586.2 337.782C1586.2 322.93 1580.63 308.682 1570.7 298.149C1560.77 287.616 1547.29 281.654 1533.21 281.565L1533.13 298.337Z" fill="#16215B"/>
<path d="M1533.13 17.2541C1542.99 17.3431 1552.43 21.5382 1559.37 28.9258C1566.32 36.3135 1570.22 46.2955 1570.22 56.6986L1586.2 56.6986C1586.2 41.8472 1580.63 27.5991 1570.7 17.0661C1560.77 6.53311 1547.29 0.571028 1533.21 0.481964L1533.13 17.2541Z" fill="#16215B"/>
<path d="M1533.13 242.12C1542.99 242.209 1552.43 246.405 1559.37 253.792C1566.32 261.18 1570.22 271.162 1570.22 281.565L1586.2 281.565C1586.2 266.714 1580.63 252.465 1570.7 241.932C1560.77 231.399 1547.29 225.437 1533.21 225.348L1533.13 242.12Z" fill="#16215B"/>
<path d="M1426.97 185.904C1436.84 185.993 1446.27 190.188 1453.22 197.576C1460.16 204.963 1464.06 214.945 1464.06 225.349L1480.05 225.348C1480.05 210.497 1474.47 196.249 1464.54 185.716C1454.61 175.183 1441.14 169.221 1427.05 169.132L1426.97 185.904Z" fill="#16215B"/>
<path d="M1426.97 410.77C1436.84 410.859 1446.27 415.054 1453.22 422.442C1460.16 429.83 1464.06 439.812 1464.06 450.215H1480.05C1480.05 435.364 1474.47 421.115 1464.54 410.582C1454.61 400.049 1441.14 394.087 1427.05 393.998L1426.97 410.77Z" fill="#16215B"/>
<path d="M1426.97 129.687C1436.84 129.776 1446.27 133.971 1453.22 141.359C1460.16 148.747 1464.06 158.729 1464.06 169.132L1480.05 169.132C1480.05 154.28 1474.47 140.032 1464.54 129.499C1454.61 118.966 1441.14 113.004 1427.05 112.915L1426.97 129.687Z" fill="#16215B"/>
<path d="M1426.97 354.554C1436.84 354.643 1446.27 358.838 1453.22 366.225C1460.16 373.613 1464.06 383.595 1464.06 393.998L1480.05 393.998C1480.05 379.147 1474.47 364.899 1464.54 354.366C1454.61 343.833 1441.14 337.871 1427.05 337.782L1426.97 354.554Z" fill="#16215B"/>
<path d="M1426.97 73.4708C1436.84 73.5597 1446.27 77.7548 1453.22 85.1425C1460.16 92.5301 1464.06 102.512 1464.06 112.915L1480.05 112.915C1480.05 98.0639 1474.47 83.8158 1464.54 73.2828C1454.61 62.7497 1441.14 56.7877 1427.05 56.6986L1426.97 73.4708Z" fill="#16215B"/>
<path d="M1426.97 298.337C1436.84 298.426 1446.27 302.621 1453.22 310.009C1460.16 317.396 1464.06 327.379 1464.06 337.782L1480.05 337.782C1480.05 322.93 1474.47 308.682 1464.54 298.149C1454.61 287.616 1441.14 281.654 1427.05 281.565L1426.97 298.337Z" fill="#16215B"/>
<path d="M1426.97 17.2541C1436.84 17.3431 1446.27 21.5382 1453.22 28.9258C1460.16 36.3135 1464.06 46.2955 1464.06 56.6986L1480.05 56.6986C1480.05 41.8472 1474.47 27.5991 1464.54 17.0661C1454.61 6.53311 1441.14 0.571028 1427.05 0.481964L1426.97 17.2541Z" fill="#16215B"/>
<path d="M1426.97 242.12C1436.84 242.209 1446.27 246.405 1453.22 253.792C1460.16 261.18 1464.06 271.162 1464.06 281.565L1480.05 281.565C1480.05 266.714 1474.47 252.465 1464.54 241.932C1454.61 231.399 1441.14 225.437 1427.05 225.348L1426.97 242.12Z" fill="#16215B"/>
<path d="M1639.28 185.904C1649.15 185.993 1658.58 190.188 1665.53 197.576C1672.47 204.963 1676.37 214.945 1676.37 225.349H1692.36C1692.36 210.497 1686.79 196.249 1676.86 185.716C1666.93 175.183 1653.45 169.221 1639.36 169.132L1639.28 185.904Z" fill="#16215B"/>
<path d="M1639.28 410.77C1649.15 410.859 1658.58 415.054 1665.53 422.442C1672.47 429.83 1676.37 439.812 1676.37 450.215H1692.36C1692.36 435.364 1686.79 421.115 1676.86 410.582C1666.93 400.049 1653.45 394.087 1639.36 393.998L1639.28 410.77Z" fill="#16215B"/>
<path d="M1639.28 129.687C1649.15 129.776 1658.58 133.971 1665.53 141.359C1672.47 148.747 1676.37 158.729 1676.37 169.132H1692.36C1692.36 154.281 1686.79 140.032 1676.86 129.499C1666.93 118.966 1653.45 113.004 1639.36 112.915L1639.28 129.687Z" fill="#16215B"/>
<path d="M1639.28 354.554C1649.15 354.643 1658.58 358.838 1665.53 366.225C1672.47 373.613 1676.37 383.595 1676.37 393.998H1692.36C1692.36 379.147 1686.79 364.899 1676.86 354.366C1666.93 343.833 1653.45 337.871 1639.36 337.782L1639.28 354.554Z" fill="#16215B"/>
<path d="M1639.28 73.4708C1649.15 73.5597 1658.58 77.7548 1665.53 85.1425C1672.47 92.5301 1676.37 102.512 1676.37 112.915H1692.36C1692.36 98.0639 1686.79 83.8158 1676.86 73.2828C1666.93 62.7497 1653.45 56.7877 1639.36 56.6986L1639.28 73.4708Z" fill="#16215B"/>
<path d="M1639.28 298.337C1649.15 298.426 1658.58 302.621 1665.53 310.009C1672.47 317.396 1676.37 327.379 1676.37 337.782H1692.36C1692.36 322.93 1686.79 308.682 1676.86 298.149C1666.93 287.616 1653.45 281.654 1639.36 281.565L1639.28 298.337Z" fill="#16215B"/>
<path d="M1639.28 17.2541C1649.15 17.3431 1658.58 21.5382 1665.53 28.9258C1672.47 36.3135 1676.37 46.2955 1676.37 56.6986H1692.36C1692.36 41.8473 1686.79 27.5991 1676.86 17.0661C1666.93 6.53311 1653.45 0.571028 1639.36 0.481964L1639.28 17.2541Z" fill="#16215B"/>
<path d="M1639.28 242.12C1649.15 242.209 1658.58 246.405 1665.53 253.792C1672.47 261.18 1676.37 271.162 1676.37 281.565H1692.36C1692.36 266.714 1686.79 252.465 1676.86 241.932C1666.93 231.399 1653.45 225.437 1639.36 225.348L1639.28 242.12Z" fill="#16215B"/>
</g>
</g>
</svg>
