<svg width="265" height="226" viewBox="0 0 265 226" fill="none" xmlns="http://www.w3.org/2000/svg">
<mask id="mask0_5478_5406" style="mask-type:alpha" maskUnits="userSpaceOnUse" x="0" y="0" width="265" height="226">
<path d="M0.128418 0H264.128V210C264.128 218.837 256.965 226 248.128 226H0.128418V0Z" fill="white"/>
</mask>
<g mask="url(#mask0_5478_5406)">
<mask id="mask1_5478_5406" style="mask-type:alpha" maskUnits="userSpaceOnUse" x="0" y="2" width="265" height="224">
<rect x="0.128418" y="2" width="264" height="224" fill="#D9D9D9"/>
</mask>
<g mask="url(#mask1_5478_5406)">
<path d="M-0.331108 -16.4239C-10.1974 -16.5128 -19.631 -20.7079 -26.5778 -28.0956C-33.5245 -35.4832 -37.422 -45.4653 -37.4217 -55.8684H-53.4089C-53.4092 -41.017 -47.8356 -26.7689 -37.9057 -16.2359C-27.9757 -5.70284 -14.4963 0.259232 -0.411114 0.348297L-0.331108 -16.4239Z" fill="#F2F4F8"/>
<path d="M-0.331108 208.443C-10.1974 208.354 -19.631 204.159 -26.5778 196.771C-33.5245 189.383 -37.422 179.401 -37.4217 168.998H-53.4089C-53.4092 183.849 -47.8356 198.098 -37.9057 208.631C-27.9757 219.164 -14.4963 225.126 -0.411114 225.215L-0.331108 208.443Z" fill="#F2F4F8"/>
<path d="M-0.331108 -72.6403C-10.1974 -72.7292 -19.631 -76.9244 -26.5778 -84.312C-33.5245 -91.6996 -37.422 -101.682 -37.4217 -112.085H-53.4089C-53.4092 -97.2335 -47.8356 -82.9853 -37.9057 -72.4523C-27.9757 -61.9193 -14.4963 -55.9572 -0.411114 -55.8681L-0.331108 -72.6403Z" fill="#F2F4F8"/>
<path d="M-0.331108 152.226C-10.1974 152.137 -19.631 147.942 -26.5778 140.554C-33.5245 133.167 -37.422 123.185 -37.4217 112.782H-53.4089C-53.4092 127.633 -47.8356 141.881 -37.9057 152.414C-27.9757 162.947 -14.4963 168.909 -0.411114 168.998L-0.331108 152.226Z" fill="#F2F4F8"/>
<path d="M-0.331108 -128.857C-10.1974 -128.946 -19.631 -133.141 -26.5778 -140.529C-33.5245 -147.916 -37.422 -157.898 -37.4217 -168.301H-53.4089C-53.4092 -153.45 -47.8356 -139.202 -37.9057 -128.669C-27.9757 -118.136 -14.4963 -112.174 -0.411114 -112.085L-0.331108 -128.857Z" fill="#F2F4F8"/>
<path d="M-0.331108 96.0094C-10.1974 95.9205 -19.631 91.7253 -26.5778 84.3377C-33.5245 76.95 -37.422 66.968 -37.4217 56.5649H-53.4089C-53.4092 71.4162 -47.8356 85.6644 -37.9057 96.1974C-27.9757 106.73 -14.4963 112.693 -0.411114 112.782L-0.331108 96.0094Z" fill="#F2F4F8"/>
<path d="M-0.331108 -185.074C-10.1974 -185.162 -19.631 -189.358 -26.5778 -196.745C-33.5245 -204.133 -37.422 -214.115 -37.4217 -224.518H-53.4089C-53.4092 -209.667 -47.8356 -195.419 -37.9057 -184.886C-27.9757 -174.353 -14.4963 -168.39 -0.411114 -168.301L-0.331108 -185.074Z" fill="#F2F4F8"/>
<path d="M-0.331108 39.7928C-10.1974 39.7039 -19.631 35.5087 -26.5778 28.1211C-33.5245 20.7335 -37.422 10.7514 -37.4217 0.348282H-53.4089C-53.4092 15.1996 -47.8356 29.4478 -37.9057 39.9808C-27.9757 50.5138 -14.4963 56.4759 -0.411114 56.5649L-0.331108 39.7928Z" fill="#F2F4F8"/>
<path d="M211.98 -16.4239C202.114 -16.5128 192.68 -20.7079 185.733 -28.0956C178.787 -35.4832 174.889 -45.4653 174.89 -55.8684H158.902C158.902 -41.017 164.476 -26.7689 174.406 -16.2359C184.335 -5.70284 197.815 0.259232 211.9 0.348297L211.98 -16.4239Z" fill="#F2F4F8"/>
<path d="M211.98 208.443C202.114 208.354 192.68 204.159 185.733 196.771C178.787 189.383 174.889 179.401 174.89 168.998H158.902C158.902 183.849 164.476 198.098 174.406 208.631C184.335 219.164 197.815 225.126 211.9 225.215L211.98 208.443Z" fill="#F2F4F8"/>
<path d="M211.98 -72.6403C202.114 -72.7292 192.68 -76.9244 185.733 -84.312C178.787 -91.6996 174.889 -101.682 174.89 -112.085H158.902C158.902 -97.2335 164.476 -82.9853 174.406 -72.4523C184.335 -61.9193 197.815 -55.9572 211.9 -55.8681L211.98 -72.6403Z" fill="#F2F4F8"/>
<path d="M211.98 152.226C202.114 152.137 192.68 147.942 185.733 140.554C178.787 133.167 174.889 123.185 174.89 112.782H158.902C158.902 127.633 164.476 141.881 174.406 152.414C184.335 162.947 197.815 168.909 211.9 168.998L211.98 152.226Z" fill="#F2F4F8"/>
<path d="M211.98 -128.857C202.114 -128.946 192.68 -133.141 185.733 -140.529C178.787 -147.916 174.889 -157.898 174.89 -168.301H158.902C158.902 -153.45 164.476 -139.202 174.406 -128.669C184.335 -118.136 197.815 -112.174 211.9 -112.085L211.98 -128.857Z" fill="#F2F4F8"/>
<path d="M211.98 96.0094C202.114 95.9205 192.68 91.7253 185.733 84.3377C178.787 76.95 174.889 66.968 174.89 56.5649H158.902C158.902 71.4162 164.476 85.6644 174.406 96.1974C184.335 106.73 197.815 112.693 211.9 112.782L211.98 96.0094Z" fill="#F2F4F8"/>
<path d="M211.98 -185.074C202.114 -185.162 192.68 -189.358 185.733 -196.745C178.787 -204.133 174.889 -214.115 174.89 -224.518H158.902C158.902 -209.667 164.476 -195.419 174.406 -184.886C184.335 -174.353 197.815 -168.39 211.9 -168.301L211.98 -185.074Z" fill="#F2F4F8"/>
<path d="M211.98 39.7928C202.114 39.7039 192.68 35.5087 185.733 28.1211C178.787 20.7335 174.889 10.7514 174.89 0.348282H158.902C158.902 15.1996 164.476 29.4478 174.406 39.9808C184.335 50.5138 197.815 56.4759 211.9 56.5649L211.98 39.7928Z" fill="#F2F4F8"/>
<path d="M105.824 -16.4239C95.9582 -16.5128 86.5246 -20.7079 79.5778 -28.0956C72.6311 -35.4832 68.7336 -45.4653 68.7339 -55.8684H52.7467C52.7464 -41.017 58.32 -26.7689 68.2499 -16.2359C78.1799 -5.70284 91.6593 0.259232 105.744 0.348297L105.824 -16.4239Z" fill="#F2F4F8"/>
<path d="M105.824 208.443C95.9582 208.354 86.5246 204.159 79.5778 196.771C72.6311 189.383 68.7336 179.401 68.7339 168.998H52.7467C52.7464 183.849 58.32 198.098 68.2499 208.631C78.1799 219.164 91.6593 225.126 105.744 225.215L105.824 208.443Z" fill="#F2F4F8"/>
<path d="M105.824 -72.6403C95.9582 -72.7292 86.5246 -76.9244 79.5778 -84.312C72.6311 -91.6996 68.7336 -101.682 68.7339 -112.085H52.7467C52.7464 -97.2335 58.32 -82.9853 68.2499 -72.4523C78.1799 -61.9193 91.6593 -55.9572 105.744 -55.8681L105.824 -72.6403Z" fill="#F2F4F8"/>
<path d="M105.824 152.226C95.9582 152.137 86.5246 147.942 79.5778 140.554C72.6311 133.167 68.7336 123.185 68.7339 112.782H52.7467C52.7464 127.633 58.32 141.881 68.2499 152.414C78.1799 162.947 91.6593 168.909 105.744 168.998L105.824 152.226Z" fill="#F2F4F8"/>
<path d="M105.824 -128.857C95.9582 -128.946 86.5246 -133.141 79.5778 -140.529C72.6311 -147.916 68.7336 -157.898 68.7339 -168.301H52.7467C52.7464 -153.45 58.32 -139.202 68.2499 -128.669C78.1799 -118.136 91.6593 -112.174 105.744 -112.085L105.824 -128.857Z" fill="#F2F4F8"/>
<path d="M105.824 96.0094C95.9582 95.9205 86.5246 91.7253 79.5778 84.3377C72.6311 76.95 68.7336 66.968 68.7339 56.5649H52.7467C52.7464 71.4162 58.32 85.6644 68.2499 96.1974C78.1799 106.73 91.6593 112.693 105.744 112.782L105.824 96.0094Z" fill="#F2F4F8"/>
<path d="M105.824 -185.074C95.9582 -185.162 86.5246 -189.358 79.5778 -196.745C72.6311 -204.133 68.7336 -214.115 68.7339 -224.518H52.7467C52.7464 -209.667 58.32 -195.419 68.2499 -184.886C78.1799 -174.353 91.6593 -168.39 105.744 -168.301L105.824 -185.074Z" fill="#F2F4F8"/>
<path d="M105.824 39.7928C95.9582 39.7039 86.5246 35.5087 79.5778 28.1211C72.6311 20.7335 68.7336 10.7514 68.7339 0.348282H52.7467C52.7464 15.1996 58.32 29.4478 68.2499 39.9808C78.1799 50.5138 91.6593 56.4759 105.744 56.5649L105.824 39.7928Z" fill="#F2F4F8"/>
<path d="M318.135 -16.4239C308.269 -16.5128 298.835 -20.7079 291.889 -28.0956C284.942 -35.4832 281.044 -45.4653 281.045 -55.8684H265.057C265.057 -41.017 270.631 -26.7689 280.561 -16.2359C290.491 -5.70284 303.97 0.259232 318.055 0.348297L318.135 -16.4239Z" fill="#F2F4F8"/>
<path d="M318.135 208.443C308.269 208.354 298.835 204.159 291.889 196.771C284.942 189.383 281.044 179.401 281.045 168.998H265.057C265.057 183.849 270.631 198.098 280.561 208.631C290.491 219.164 303.97 225.126 318.055 225.215L318.135 208.443Z" fill="#F2F4F8"/>
<path d="M318.135 -72.6403C308.269 -72.7292 298.835 -76.9244 291.889 -84.312C284.942 -91.6996 281.044 -101.682 281.045 -112.085H265.057C265.057 -97.2335 270.631 -82.9853 280.561 -72.4523C290.491 -61.9193 303.97 -55.9572 318.055 -55.8681L318.135 -72.6403Z" fill="#F2F4F8"/>
<path d="M318.135 152.226C308.269 152.137 298.835 147.942 291.889 140.554C284.942 133.167 281.044 123.185 281.045 112.782H265.057C265.057 127.633 270.631 141.881 280.561 152.414C290.491 162.947 303.97 168.909 318.055 168.998L318.135 152.226Z" fill="#F2F4F8"/>
<path d="M318.135 -128.857C308.269 -128.946 298.835 -133.141 291.889 -140.529C284.942 -147.916 281.044 -157.898 281.045 -168.301H265.057C265.057 -153.45 270.631 -139.202 280.561 -128.669C290.491 -118.136 303.97 -112.174 318.055 -112.085L318.135 -128.857Z" fill="#F2F4F8"/>
<path d="M318.135 96.0094C308.269 95.9205 298.835 91.7253 291.889 84.3377C284.942 76.95 281.044 66.968 281.045 56.5649H265.057C265.057 71.4162 270.631 85.6644 280.561 96.1974C290.491 106.73 303.97 112.693 318.055 112.782L318.135 96.0094Z" fill="#F2F4F8"/>
<path d="M318.135 -185.074C308.269 -185.162 298.835 -189.358 291.889 -196.745C284.942 -204.133 281.044 -214.115 281.045 -224.518H265.057C265.057 -209.667 270.631 -195.419 280.561 -184.886C290.491 -174.353 303.97 -168.39 318.055 -168.301L318.135 -185.074Z" fill="#F2F4F8"/>
<path d="M318.135 39.7928C308.269 39.7039 298.835 35.5087 291.889 28.1211C284.942 20.7335 281.044 10.7514 281.045 0.348282H265.057C265.057 15.1996 270.631 29.4478 280.561 39.9808C290.491 50.5138 303.97 56.4759 318.055 56.5649L318.135 39.7928Z" fill="#F2F4F8"/>
<path d="M-0.331108 -39.096C9.53518 -39.007 18.9688 -34.8119 25.9156 -27.4243C32.8623 -20.0367 36.7598 -10.0546 36.7595 0.348526L52.7467 0.348282C52.7469 -14.503 47.1734 -28.751 37.2435 -39.284C27.3135 -49.817 13.8341 -55.7791 -0.251091 -55.8681L-0.331108 -39.096Z" fill="#F2F4F8"/>
<path d="M-0.331108 185.77C9.53518 185.859 18.9688 190.054 25.9156 197.442C32.8623 204.83 36.7598 214.812 36.7595 225.215H52.7467C52.747 210.364 47.1734 196.115 37.2435 185.582C27.3135 175.049 13.8341 169.087 -0.251091 168.998L-0.331108 185.77Z" fill="#F2F4F8"/>
<path d="M-0.331108 -95.3126C9.53518 -95.2237 18.9688 -91.0285 25.9156 -83.6409C32.8623 -76.2533 36.7598 -66.2712 36.7595 -55.8681L52.7467 -55.8684C52.7469 -70.7197 47.1734 -84.9676 37.2435 -95.5006C27.3135 -106.034 13.8341 -111.996 -0.251091 -112.085L-0.331108 -95.3126Z" fill="#F2F4F8"/>
<path d="M-0.331108 129.554C9.53518 129.643 18.9688 133.838 25.9156 141.225C32.8623 148.613 36.7598 158.595 36.7595 168.998L52.7467 168.998C52.7469 154.147 47.1734 139.899 37.2435 129.366C27.3135 118.833 13.8341 112.871 -0.251091 112.782L-0.331108 129.554Z" fill="#F2F4F8"/>
<path d="M-0.331108 -151.529C9.53518 -151.44 18.9688 -147.245 25.9156 -139.858C32.8623 -132.47 36.7598 -122.488 36.7595 -112.085L52.7467 -112.085C52.7469 -126.936 47.1734 -141.184 37.2435 -151.717C27.3135 -162.25 13.8341 -168.212 -0.251091 -168.301L-0.331108 -151.529Z" fill="#F2F4F8"/>
<path d="M-0.331108 73.3371C9.53518 73.4261 18.9688 77.6212 25.9156 85.0088C32.8623 92.3965 36.7598 102.379 36.7595 112.782L52.7467 112.782C52.7469 97.9302 47.1734 83.6821 37.2435 73.1491C27.3135 62.6161 13.8341 56.654 -0.251091 56.5649L-0.331108 73.3371Z" fill="#F2F4F8"/>
<path d="M-0.331108 -207.746C9.53518 -207.657 18.9688 -203.462 25.9156 -196.074C32.8623 -188.687 36.7598 -178.704 36.7595 -168.301L52.7467 -168.301C52.7469 -183.153 47.1734 -197.401 37.2435 -207.934C27.3135 -218.467 13.8341 -224.429 -0.251091 -224.518L-0.331108 -207.746Z" fill="#F2F4F8"/>
<path d="M-0.331108 17.1205C9.53518 17.2094 18.9688 21.4045 25.9156 28.7921C32.8623 36.1798 36.7598 46.1618 36.7595 56.5649L52.7467 56.5649C52.7469 41.7136 47.1734 27.4655 37.2435 16.9324C27.3135 6.39944 13.8341 0.437363 -0.251091 0.348297L-0.331108 17.1205Z" fill="#F2F4F8"/>
<path d="M211.98 -39.096C221.846 -39.007 231.28 -34.8119 238.227 -27.4243C245.174 -20.0367 249.071 -10.0546 249.071 0.348526L265.057 0.348282C265.058 -14.503 259.485 -28.751 249.555 -39.284C239.625 -49.817 226.145 -55.7791 212.06 -55.8681L211.98 -39.096Z" fill="#F2F4F8"/>
<path d="M211.98 185.77C221.846 185.859 231.28 190.054 238.227 197.442C245.174 204.83 249.071 214.812 249.071 225.215H265.058C265.058 210.364 259.485 196.115 249.555 185.582C239.625 175.049 226.145 169.087 212.06 168.998L211.98 185.77Z" fill="#F2F4F8"/>
<path d="M211.98 -95.3126C221.846 -95.2237 231.28 -91.0285 238.227 -83.6409C245.174 -76.2533 249.071 -66.2712 249.071 -55.8681L265.057 -55.8684C265.058 -70.7197 259.485 -84.9676 249.555 -95.5006C239.625 -106.034 226.145 -111.996 212.06 -112.085L211.98 -95.3126Z" fill="#F2F4F8"/>
<path d="M211.98 129.554C221.846 129.643 231.28 133.838 238.227 141.225C245.174 148.613 249.071 158.595 249.071 168.998L265.057 168.998C265.058 154.147 259.485 139.899 249.555 129.366C239.625 118.833 226.145 112.871 212.06 112.782L211.98 129.554Z" fill="#F2F4F8"/>
<path d="M211.98 -151.529C221.846 -151.44 231.28 -147.245 238.227 -139.858C245.174 -132.47 249.071 -122.488 249.071 -112.085L265.057 -112.085C265.058 -126.936 259.485 -141.184 249.555 -151.717C239.625 -162.25 226.145 -168.212 212.06 -168.301L211.98 -151.529Z" fill="#F2F4F8"/>
<path d="M211.98 73.3371C221.846 73.4261 231.28 77.6212 238.227 85.0088C245.174 92.3965 249.071 102.379 249.071 112.782L265.057 112.782C265.058 97.9302 259.485 83.6821 249.555 73.1491C239.625 62.6161 226.145 56.654 212.06 56.5649L211.98 73.3371Z" fill="#F2F4F8"/>
<path d="M211.98 -207.746C221.846 -207.657 231.28 -203.462 238.227 -196.074C245.174 -188.687 249.071 -178.704 249.071 -168.301L265.057 -168.301C265.058 -183.153 259.485 -197.401 249.555 -207.934C239.625 -218.467 226.145 -224.429 212.06 -224.518L211.98 -207.746Z" fill="#F2F4F8"/>
<path d="M211.98 17.1205C221.846 17.2094 231.28 21.4045 238.227 28.7921C245.174 36.1798 249.071 46.1618 249.071 56.5649L265.057 56.5649C265.058 41.7136 259.485 27.4655 249.555 16.9324C239.625 6.39944 226.145 0.437363 212.06 0.348297L211.98 17.1205Z" fill="#F2F4F8"/>
<path d="M105.824 -39.096C115.691 -39.007 125.124 -34.8119 132.071 -27.4243C139.018 -20.0367 142.915 -10.0546 142.915 0.348526L158.902 0.348282C158.902 -14.503 153.329 -28.751 143.399 -39.284C133.469 -49.817 119.99 -55.7791 105.904 -55.8681L105.824 -39.096Z" fill="#F2F4F8"/>
<path d="M105.824 185.77C115.691 185.859 125.124 190.054 132.071 197.442C139.018 204.83 142.915 214.812 142.915 225.215H158.902C158.903 210.364 153.329 196.115 143.399 185.582C133.469 175.049 119.99 169.087 105.904 168.998L105.824 185.77Z" fill="#F2F4F8"/>
<path d="M105.824 -95.3126C115.691 -95.2237 125.124 -91.0285 132.071 -83.6409C139.018 -76.2533 142.915 -66.2712 142.915 -55.8681L158.902 -55.8684C158.902 -70.7197 153.329 -84.9676 143.399 -95.5006C133.469 -106.034 119.99 -111.996 105.904 -112.085L105.824 -95.3126Z" fill="#F2F4F8"/>
<path d="M105.824 129.554C115.691 129.643 125.124 133.838 132.071 141.225C139.018 148.613 142.915 158.595 142.915 168.998L158.902 168.998C158.902 154.147 153.329 139.899 143.399 129.366C133.469 118.833 119.99 112.871 105.904 112.782L105.824 129.554Z" fill="#F2F4F8"/>
<path d="M105.824 -151.529C115.691 -151.44 125.124 -147.245 132.071 -139.858C139.018 -132.47 142.915 -122.488 142.915 -112.085L158.902 -112.085C158.902 -126.936 153.329 -141.184 143.399 -151.717C133.469 -162.25 119.99 -168.212 105.904 -168.301L105.824 -151.529Z" fill="#F2F4F8"/>
<path d="M105.824 73.3371C115.691 73.4261 125.124 77.6212 132.071 85.0088C139.018 92.3965 142.915 102.379 142.915 112.782L158.902 112.782C158.902 97.9302 153.329 83.6821 143.399 73.1491C133.469 62.6161 119.99 56.654 105.904 56.5649L105.824 73.3371Z" fill="#F2F4F8"/>
<path d="M105.824 -207.746C115.691 -207.657 125.124 -203.462 132.071 -196.074C139.018 -188.687 142.915 -178.704 142.915 -168.301L158.902 -168.301C158.902 -183.153 153.329 -197.401 143.399 -207.934C133.469 -218.467 119.99 -224.429 105.904 -224.518L105.824 -207.746Z" fill="#F2F4F8"/>
<path d="M105.824 17.1205C115.691 17.2094 125.124 21.4045 132.071 28.7921C139.018 36.1798 142.915 46.1618 142.915 56.5649L158.902 56.5649C158.902 41.7136 153.329 27.4655 143.399 16.9324C133.469 6.39944 119.99 0.437363 105.904 0.348297L105.824 17.1205Z" fill="#F2F4F8"/>
<path d="M318.135 -39.096C328.002 -39.007 337.435 -34.8119 344.382 -27.4243C351.329 -20.0367 355.226 -10.0546 355.226 0.348526H371.213C371.213 -14.5028 365.64 -28.751 355.71 -39.284C345.78 -49.817 332.301 -55.7791 318.215 -55.8681L318.135 -39.096Z" fill="#F2F4F8"/>
<path d="M318.135 185.77C328.002 185.859 337.435 190.054 344.382 197.442C351.329 204.83 355.226 214.812 355.226 225.215H371.213C371.213 210.364 365.64 196.115 355.71 185.582C345.78 175.049 332.301 169.087 318.215 168.998L318.135 185.77Z" fill="#F2F4F8"/>
<path d="M318.135 -95.3126C328.002 -95.2237 337.435 -91.0285 344.382 -83.6409C351.329 -76.2533 355.226 -66.2712 355.226 -55.8681H371.213C371.213 -70.7194 365.64 -84.9676 355.71 -95.5006C345.78 -106.034 332.301 -111.996 318.215 -112.085L318.135 -95.3126Z" fill="#F2F4F8"/>
<path d="M318.135 129.554C328.002 129.643 337.435 133.838 344.382 141.225C351.329 148.613 355.226 158.595 355.226 168.998H371.213C371.213 154.147 365.64 139.899 355.71 129.366C345.78 118.833 332.301 112.871 318.215 112.782L318.135 129.554Z" fill="#F2F4F8"/>
<path d="M318.135 -151.529C328.002 -151.44 337.435 -147.245 344.382 -139.858C351.329 -132.47 355.226 -122.488 355.226 -112.085H371.213C371.213 -126.936 365.64 -141.184 355.71 -151.717C345.78 -162.25 332.301 -168.212 318.215 -168.301L318.135 -151.529Z" fill="#F2F4F8"/>
<path d="M318.135 73.3371C328.002 73.4261 337.435 77.6212 344.382 85.0088C351.329 92.3965 355.226 102.379 355.226 112.782H371.213C371.213 97.9303 365.64 83.6821 355.71 73.1491C345.78 62.6161 332.301 56.654 318.215 56.5649L318.135 73.3371Z" fill="#F2F4F8"/>
<path d="M318.135 -207.746C328.002 -207.657 337.435 -203.462 344.382 -196.074C351.329 -188.687 355.226 -178.704 355.226 -168.301H371.213C371.213 -183.153 365.64 -197.401 355.71 -207.934C345.78 -218.467 332.301 -224.429 318.215 -224.518L318.135 -207.746Z" fill="#F2F4F8"/>
<path d="M318.135 17.1205C328.002 17.2094 337.435 21.4045 344.382 28.7921C351.329 36.1798 355.226 46.1618 355.226 56.5649H371.213C371.213 41.7136 365.64 27.4655 355.71 16.9324C345.78 6.39944 332.301 0.437363 318.215 0.348297L318.135 17.1205Z" fill="#F2F4F8"/>
<path d="M420.943 -16.4239C411.076 -16.5128 401.643 -20.7079 394.696 -28.0956C387.749 -35.4832 383.852 -45.4653 383.852 -55.8684H367.865C367.865 -41.017 373.438 -26.7689 383.368 -16.2359C393.298 -5.70284 406.777 0.259232 420.863 0.348297L420.943 -16.4239Z" fill="#F2F4F8"/>
<path d="M420.943 208.443C411.076 208.354 401.643 204.159 394.696 196.771C387.749 189.383 383.852 179.401 383.852 168.998H367.865C367.865 183.849 373.438 198.098 383.368 208.631C393.298 219.164 406.777 225.126 420.863 225.215L420.943 208.443Z" fill="#F2F4F8"/>
<path d="M420.943 -72.6403C411.076 -72.7292 401.643 -76.9244 394.696 -84.312C387.749 -91.6996 383.852 -101.682 383.852 -112.085H367.865C367.865 -97.2335 373.438 -82.9853 383.368 -72.4523C393.298 -61.9193 406.777 -55.9572 420.863 -55.8681L420.943 -72.6403Z" fill="#F2F4F8"/>
<path d="M420.943 152.226C411.076 152.137 401.643 147.942 394.696 140.554C387.749 133.167 383.852 123.185 383.852 112.782H367.865C367.865 127.633 373.438 141.881 383.368 152.414C393.298 162.947 406.777 168.909 420.863 168.998L420.943 152.226Z" fill="#F2F4F8"/>
<path d="M420.943 -128.857C411.076 -128.946 401.643 -133.141 394.696 -140.529C387.749 -147.916 383.852 -157.898 383.852 -168.301H367.865C367.865 -153.45 373.438 -139.202 383.368 -128.669C393.298 -118.136 406.777 -112.174 420.863 -112.085L420.943 -128.857Z" fill="#F2F4F8"/>
<path d="M420.943 96.0094C411.076 95.9205 401.643 91.7253 394.696 84.3377C387.749 76.95 383.852 66.968 383.852 56.5649H367.865C367.865 71.4162 373.438 85.6644 383.368 96.1974C393.298 106.73 406.777 112.693 420.863 112.782L420.943 96.0094Z" fill="#F2F4F8"/>
<path d="M420.943 -185.074C411.076 -185.162 401.643 -189.358 394.696 -196.745C387.749 -204.133 383.852 -214.115 383.852 -224.518H367.865C367.865 -209.667 373.438 -195.419 383.368 -184.886C393.298 -174.353 406.777 -168.39 420.863 -168.301L420.943 -185.074Z" fill="#F2F4F8"/>
<path d="M420.943 39.7928C411.076 39.7039 401.643 35.5087 394.696 28.1211C387.749 20.7335 383.852 10.7514 383.852 0.348282H367.865C367.865 15.1996 373.438 29.4478 383.368 39.9808C393.298 50.5138 406.777 56.4759 420.863 56.5649L420.943 39.7928Z" fill="#F2F4F8"/>
<path d="M633.254 -16.4239C623.388 -16.5128 613.954 -20.7079 607.007 -28.0956C600.06 -35.4832 596.163 -45.4653 596.163 -55.8684H580.176C580.176 -41.017 585.749 -26.7689 595.679 -16.2359C605.609 -5.70284 619.089 0.259232 633.174 0.348297L633.254 -16.4239Z" fill="#F2F4F8"/>
<path d="M633.254 208.443C623.388 208.354 613.954 204.159 607.007 196.771C600.06 189.383 596.163 179.401 596.163 168.998H580.176C580.176 183.849 585.749 198.098 595.679 208.631C605.609 219.164 619.089 225.126 633.174 225.215L633.254 208.443Z" fill="#F2F4F8"/>
<path d="M633.254 -72.6403C623.388 -72.7292 613.954 -76.9244 607.007 -84.312C600.06 -91.6996 596.163 -101.682 596.163 -112.085H580.176C580.176 -97.2335 585.749 -82.9853 595.679 -72.4523C605.609 -61.9193 619.089 -55.9572 633.174 -55.8681L633.254 -72.6403Z" fill="#F2F4F8"/>
<path d="M633.254 152.226C623.388 152.137 613.954 147.942 607.007 140.554C600.06 133.167 596.163 123.185 596.163 112.782H580.176C580.176 127.633 585.749 141.881 595.679 152.414C605.609 162.947 619.089 168.909 633.174 168.998L633.254 152.226Z" fill="#F2F4F8"/>
<path d="M633.254 -128.857C623.388 -128.946 613.954 -133.141 607.007 -140.529C600.06 -147.916 596.163 -157.898 596.163 -168.301H580.176C580.176 -153.45 585.749 -139.202 595.679 -128.669C605.609 -118.136 619.089 -112.174 633.174 -112.085L633.254 -128.857Z" fill="#F2F4F8"/>
<path d="M633.254 96.0094C623.388 95.9205 613.954 91.7253 607.007 84.3377C600.06 76.95 596.163 66.968 596.163 56.5649H580.176C580.176 71.4162 585.749 85.6644 595.679 96.1974C605.609 106.73 619.089 112.693 633.174 112.782L633.254 96.0094Z" fill="#F2F4F8"/>
<path d="M633.254 -185.074C623.388 -185.162 613.954 -189.358 607.007 -196.745C600.06 -204.133 596.163 -214.115 596.163 -224.518H580.176C580.176 -209.667 585.749 -195.419 595.679 -184.886C605.609 -174.353 619.089 -168.39 633.174 -168.301L633.254 -185.074Z" fill="#F2F4F8"/>
<path d="M633.254 39.7928C623.388 39.7039 613.954 35.5087 607.007 28.1211C600.06 20.7335 596.163 10.7514 596.163 0.348282H580.176C580.176 15.1996 585.749 29.4478 595.679 39.9808C605.609 50.5138 619.089 56.4759 633.174 56.5649L633.254 39.7928Z" fill="#F2F4F8"/>
<path d="M527.098 -16.4239C517.232 -16.5128 507.798 -20.7079 500.852 -28.0956C493.905 -35.4832 490.007 -45.4653 490.008 -55.8684H474.02C474.02 -41.017 479.594 -26.7689 489.524 -16.2359C499.454 -5.70284 512.933 0.259232 527.018 0.348297L527.098 -16.4239Z" fill="#F2F4F8"/>
<path d="M527.098 208.443C517.232 208.354 507.798 204.159 500.852 196.771C493.905 189.383 490.007 179.401 490.008 168.998H474.02C474.02 183.849 479.594 198.098 489.524 208.631C499.454 219.164 512.933 225.126 527.018 225.215L527.098 208.443Z" fill="#F2F4F8"/>
<path d="M527.098 -72.6403C517.232 -72.7292 507.798 -76.9244 500.852 -84.312C493.905 -91.6996 490.007 -101.682 490.008 -112.085H474.02C474.02 -97.2335 479.594 -82.9853 489.524 -72.4523C499.454 -61.9193 512.933 -55.9572 527.018 -55.8681L527.098 -72.6403Z" fill="#F2F4F8"/>
<path d="M527.098 152.226C517.232 152.137 507.798 147.942 500.852 140.554C493.905 133.167 490.007 123.185 490.008 112.782H474.02C474.02 127.633 479.594 141.881 489.524 152.414C499.454 162.947 512.933 168.909 527.018 168.998L527.098 152.226Z" fill="#F2F4F8"/>
<path d="M527.098 -128.857C517.232 -128.946 507.798 -133.141 500.852 -140.529C493.905 -147.916 490.007 -157.898 490.008 -168.301H474.02C474.02 -153.45 479.594 -139.202 489.524 -128.669C499.454 -118.136 512.933 -112.174 527.018 -112.085L527.098 -128.857Z" fill="#F2F4F8"/>
<path d="M527.098 96.0094C517.232 95.9205 507.798 91.7253 500.852 84.3377C493.905 76.95 490.007 66.968 490.008 56.5649H474.02C474.02 71.4162 479.594 85.6644 489.524 96.1974C499.454 106.73 512.933 112.693 527.018 112.782L527.098 96.0094Z" fill="#F2F4F8"/>
<path d="M527.098 -185.074C517.232 -185.162 507.798 -189.358 500.852 -196.745C493.905 -204.133 490.007 -214.115 490.008 -224.518H474.02C474.02 -209.667 479.594 -195.419 489.524 -184.886C499.454 -174.353 512.933 -168.39 527.018 -168.301L527.098 -185.074Z" fill="#F2F4F8"/>
<path d="M527.098 39.7928C517.232 39.7039 507.798 35.5087 500.852 28.1211C493.905 20.7335 490.007 10.7514 490.008 0.348282H474.02C474.02 15.1996 479.594 29.4478 489.524 39.9808C499.454 50.5138 512.933 56.4759 527.018 56.5649L527.098 39.7928Z" fill="#F2F4F8"/>
<path d="M739.409 -16.4239C729.543 -16.5128 720.109 -20.7079 713.162 -28.0956C706.216 -35.4832 702.318 -45.4653 702.318 -55.8684H686.331C686.331 -41.017 691.905 -26.7689 701.835 -16.2359C711.764 -5.70284 725.244 0.259232 739.329 0.348297L739.409 -16.4239Z" fill="#F2F4F8"/>
<path d="M739.409 208.443C729.543 208.354 720.109 204.159 713.162 196.771C706.216 189.383 702.318 179.401 702.318 168.998H686.331C686.331 183.849 691.905 198.098 701.835 208.631C711.764 219.164 725.244 225.126 739.329 225.215L739.409 208.443Z" fill="#F2F4F8"/>
<path d="M739.409 -72.6403C729.543 -72.7292 720.109 -76.9244 713.162 -84.312C706.216 -91.6996 702.318 -101.682 702.318 -112.085H686.331C686.331 -97.2335 691.905 -82.9853 701.835 -72.4523C711.764 -61.9193 725.244 -55.9572 739.329 -55.8681L739.409 -72.6403Z" fill="#F2F4F8"/>
<path d="M739.409 152.226C729.543 152.137 720.109 147.942 713.162 140.554C706.216 133.167 702.318 123.185 702.318 112.782H686.331C686.331 127.633 691.905 141.881 701.835 152.414C711.764 162.947 725.244 168.909 739.329 168.998L739.409 152.226Z" fill="#F2F4F8"/>
<path d="M739.409 -128.857C729.543 -128.946 720.109 -133.141 713.162 -140.529C706.216 -147.916 702.318 -157.898 702.318 -168.301H686.331C686.331 -153.45 691.905 -139.202 701.835 -128.669C711.764 -118.136 725.244 -112.174 739.329 -112.085L739.409 -128.857Z" fill="#F2F4F8"/>
<path d="M739.409 96.0094C729.543 95.9205 720.109 91.7253 713.162 84.3377C706.216 76.95 702.318 66.968 702.318 56.5649H686.331C686.331 71.4162 691.905 85.6644 701.835 96.1974C711.764 106.73 725.244 112.693 739.329 112.782L739.409 96.0094Z" fill="#F2F4F8"/>
<path d="M739.409 -185.074C729.543 -185.162 720.109 -189.358 713.162 -196.745C706.216 -204.133 702.318 -214.115 702.318 -224.518H686.331C686.331 -209.667 691.905 -195.419 701.835 -184.886C711.764 -174.353 725.244 -168.39 739.329 -168.301L739.409 -185.074Z" fill="#F2F4F8"/>
<path d="M739.409 39.7928C729.543 39.7039 720.109 35.5087 713.162 28.1211C706.216 20.7335 702.318 10.7514 702.318 0.348282H686.331C686.331 15.1996 691.905 29.4478 701.835 39.9808C711.764 50.5138 725.244 56.4759 739.329 56.5649L739.409 39.7928Z" fill="#F2F4F8"/>
<path d="M420.943 -39.096C430.809 -39.007 440.243 -34.8119 447.189 -27.4243C454.136 -20.0367 458.034 -10.0546 458.033 0.348526L474.02 0.348282C474.021 -14.503 468.447 -28.751 458.517 -39.284C448.587 -49.817 435.108 -55.7791 421.023 -55.8681L420.943 -39.096Z" fill="#F2F4F8"/>
<path d="M420.943 185.77C430.809 185.859 440.243 190.054 447.189 197.442C454.136 204.83 458.034 214.812 458.033 225.215H474.021C474.021 210.364 468.447 196.115 458.517 185.582C448.587 175.049 435.108 169.087 421.023 168.998L420.943 185.77Z" fill="#F2F4F8"/>
<path d="M420.943 -95.3126C430.809 -95.2237 440.243 -91.0285 447.189 -83.6409C454.136 -76.2533 458.034 -66.2712 458.033 -55.8681L474.02 -55.8684C474.021 -70.7197 468.447 -84.9676 458.517 -95.5006C448.587 -106.034 435.108 -111.996 421.023 -112.085L420.943 -95.3126Z" fill="#F2F4F8"/>
<path d="M420.943 129.554C430.809 129.643 440.243 133.838 447.189 141.225C454.136 148.613 458.034 158.595 458.033 168.998L474.02 168.998C474.021 154.147 468.447 139.899 458.517 129.366C448.587 118.833 435.108 112.871 421.023 112.782L420.943 129.554Z" fill="#F2F4F8"/>
<path d="M420.943 -151.529C430.809 -151.44 440.243 -147.245 447.189 -139.858C454.136 -132.47 458.034 -122.488 458.033 -112.085L474.02 -112.085C474.021 -126.936 468.447 -141.184 458.517 -151.717C448.587 -162.25 435.108 -168.212 421.023 -168.301L420.943 -151.529Z" fill="#F2F4F8"/>
<path d="M420.943 73.3371C430.809 73.4261 440.243 77.6212 447.189 85.0088C454.136 92.3965 458.034 102.379 458.033 112.782L474.02 112.782C474.021 97.9302 468.447 83.6821 458.517 73.1491C448.587 62.6161 435.108 56.654 421.023 56.5649L420.943 73.3371Z" fill="#F2F4F8"/>
<path d="M420.943 -207.746C430.809 -207.657 440.243 -203.462 447.189 -196.074C454.136 -188.687 458.034 -178.704 458.033 -168.301L474.02 -168.301C474.021 -183.153 468.447 -197.401 458.517 -207.934C448.587 -218.467 435.108 -224.429 421.023 -224.518L420.943 -207.746Z" fill="#F2F4F8"/>
<path d="M420.943 17.1205C430.809 17.2094 440.243 21.4045 447.189 28.7921C454.136 36.1798 458.034 46.1618 458.033 56.5649L474.02 56.5649C474.021 41.7136 468.447 27.4655 458.517 16.9324C448.587 6.39944 435.108 0.437363 421.023 0.348297L420.943 17.1205Z" fill="#F2F4F8"/>
<path d="M633.254 -39.096C643.12 -39.007 652.554 -34.8119 659.501 -27.4243C666.447 -20.0367 670.345 -10.0546 670.344 0.348526L686.331 0.348282C686.331 -14.503 680.758 -28.751 670.828 -39.284C660.898 -49.817 647.419 -55.7791 633.334 -55.8681L633.254 -39.096Z" fill="#F2F4F8"/>
<path d="M633.254 185.77C643.12 185.859 652.554 190.054 659.501 197.442C666.447 204.83 670.345 214.812 670.344 225.215H686.332C686.332 210.364 680.758 196.115 670.828 185.582C660.898 175.049 647.419 169.087 633.334 168.998L633.254 185.77Z" fill="#F2F4F8"/>
<path d="M633.254 -95.3126C643.12 -95.2237 652.554 -91.0285 659.501 -83.6409C666.447 -76.2533 670.345 -66.2712 670.344 -55.8681L686.331 -55.8684C686.331 -70.7197 680.758 -84.9676 670.828 -95.5006C660.898 -106.034 647.419 -111.996 633.334 -112.085L633.254 -95.3126Z" fill="#F2F4F8"/>
<path d="M633.254 129.554C643.12 129.643 652.554 133.838 659.501 141.225C666.447 148.613 670.345 158.595 670.344 168.998L686.331 168.998C686.331 154.147 680.758 139.899 670.828 129.366C660.898 118.833 647.419 112.871 633.334 112.782L633.254 129.554Z" fill="#F2F4F8"/>
<path d="M633.254 -151.529C643.12 -151.44 652.554 -147.245 659.501 -139.858C666.447 -132.47 670.345 -122.488 670.344 -112.085L686.331 -112.085C686.331 -126.936 680.758 -141.184 670.828 -151.717C660.898 -162.25 647.419 -168.212 633.334 -168.301L633.254 -151.529Z" fill="#F2F4F8"/>
<path d="M633.254 73.3371C643.12 73.4261 652.554 77.6212 659.501 85.0088C666.447 92.3965 670.345 102.379 670.344 112.782L686.331 112.782C686.331 97.9302 680.758 83.6821 670.828 73.1491C660.898 62.6161 647.419 56.654 633.334 56.5649L633.254 73.3371Z" fill="#F2F4F8"/>
<path d="M633.254 -207.746C643.12 -207.657 652.554 -203.462 659.501 -196.074C666.447 -188.687 670.345 -178.704 670.344 -168.301L686.331 -168.301C686.331 -183.153 680.758 -197.401 670.828 -207.934C660.898 -218.467 647.419 -224.429 633.334 -224.518L633.254 -207.746Z" fill="#F2F4F8"/>
<path d="M633.254 17.1205C643.12 17.2094 652.554 21.4045 659.501 28.7921C666.447 36.1798 670.345 46.1618 670.344 56.5649L686.331 56.5649C686.331 41.7136 680.758 27.4655 670.828 16.9324C660.898 6.39944 647.419 0.437363 633.334 0.348297L633.254 17.1205Z" fill="#F2F4F8"/>
<path d="M527.098 -39.096C536.965 -39.007 546.398 -34.8119 553.345 -27.4243C560.292 -20.0367 564.189 -10.0546 564.189 0.348526L580.176 0.348282C580.176 -14.503 574.603 -28.751 564.673 -39.284C554.743 -49.817 541.263 -55.7791 527.178 -55.8681L527.098 -39.096Z" fill="#F2F4F8"/>
<path d="M527.098 185.77C536.965 185.859 546.398 190.054 553.345 197.442C560.292 204.83 564.189 214.812 564.189 225.215H580.176C580.176 210.364 574.603 196.115 564.673 185.582C554.743 175.049 541.263 169.087 527.178 168.998L527.098 185.77Z" fill="#F2F4F8"/>
<path d="M527.098 -95.3126C536.965 -95.2237 546.398 -91.0285 553.345 -83.6409C560.292 -76.2533 564.189 -66.2712 564.189 -55.8681L580.176 -55.8684C580.176 -70.7197 574.603 -84.9676 564.673 -95.5006C554.743 -106.034 541.263 -111.996 527.178 -112.085L527.098 -95.3126Z" fill="#F2F4F8"/>
<path d="M527.098 129.554C536.965 129.643 546.398 133.838 553.345 141.225C560.292 148.613 564.189 158.595 564.189 168.998L580.176 168.998C580.176 154.147 574.603 139.899 564.673 129.366C554.743 118.833 541.263 112.871 527.178 112.782L527.098 129.554Z" fill="#F2F4F8"/>
<path d="M527.098 -151.529C536.965 -151.44 546.398 -147.245 553.345 -139.858C560.292 -132.47 564.189 -122.488 564.189 -112.085L580.176 -112.085C580.176 -126.936 574.603 -141.184 564.673 -151.717C554.743 -162.25 541.263 -168.212 527.178 -168.301L527.098 -151.529Z" fill="#F2F4F8"/>
<path d="M527.098 73.3371C536.965 73.4261 546.398 77.6212 553.345 85.0088C560.292 92.3965 564.189 102.379 564.189 112.782L580.176 112.782C580.176 97.9302 574.603 83.6821 564.673 73.1491C554.743 62.6161 541.263 56.654 527.178 56.5649L527.098 73.3371Z" fill="#F2F4F8"/>
<path d="M527.098 -207.746C536.965 -207.657 546.398 -203.462 553.345 -196.074C560.292 -188.687 564.189 -178.704 564.189 -168.301L580.176 -168.301C580.176 -183.153 574.603 -197.401 564.673 -207.934C554.743 -218.467 541.263 -224.429 527.178 -224.518L527.098 -207.746Z" fill="#F2F4F8"/>
<path d="M527.098 17.1205C536.965 17.2094 546.398 21.4045 553.345 28.7921C560.292 36.1798 564.189 46.1618 564.189 56.5649L580.176 56.5649C580.176 41.7136 574.603 27.4655 564.673 16.9324C554.743 6.39944 541.263 0.437363 527.178 0.348297L527.098 17.1205Z" fill="#F2F4F8"/>
<path d="M739.409 -39.096C749.275 -39.007 758.709 -34.8119 765.656 -27.4243C772.602 -20.0367 776.5 -10.0546 776.5 0.348526H792.487C792.487 -14.5028 786.914 -28.751 776.984 -39.284C767.054 -49.817 753.574 -55.7791 739.489 -55.8681L739.409 -39.096Z" fill="#F2F4F8"/>
<path d="M739.409 185.77C749.275 185.859 758.709 190.054 765.656 197.442C772.602 204.83 776.5 214.812 776.5 225.215H792.487C792.487 210.364 786.914 196.115 776.984 185.582C767.054 175.049 753.574 169.087 739.489 168.998L739.409 185.77Z" fill="#F2F4F8"/>
<path d="M739.409 -95.3126C749.275 -95.2237 758.709 -91.0285 765.656 -83.6409C772.602 -76.2533 776.5 -66.2712 776.5 -55.8681H792.487C792.487 -70.7194 786.914 -84.9676 776.984 -95.5006C767.054 -106.034 753.574 -111.996 739.489 -112.085L739.409 -95.3126Z" fill="#F2F4F8"/>
<path d="M739.409 129.554C749.275 129.643 758.709 133.838 765.656 141.225C772.602 148.613 776.5 158.595 776.5 168.998H792.487C792.487 154.147 786.914 139.899 776.984 129.366C767.054 118.833 753.574 112.871 739.489 112.782L739.409 129.554Z" fill="#F2F4F8"/>
<path d="M739.409 -151.529C749.275 -151.44 758.709 -147.245 765.656 -139.858C772.602 -132.47 776.5 -122.488 776.5 -112.085H792.487C792.487 -126.936 786.914 -141.184 776.984 -151.717C767.054 -162.25 753.574 -168.212 739.489 -168.301L739.409 -151.529Z" fill="#F2F4F8"/>
<path d="M739.409 73.3371C749.275 73.4261 758.709 77.6212 765.656 85.0088C772.602 92.3965 776.5 102.379 776.5 112.782H792.487C792.487 97.9303 786.914 83.6821 776.984 73.1491C767.054 62.6161 753.574 56.654 739.489 56.5649L739.409 73.3371Z" fill="#F2F4F8"/>
<path d="M739.409 -207.746C749.275 -207.657 758.709 -203.462 765.656 -196.074C772.602 -188.687 776.5 -178.704 776.5 -168.301H792.487C792.487 -183.153 786.914 -197.401 776.984 -207.934C767.054 -218.467 753.574 -224.429 739.489 -224.518L739.409 -207.746Z" fill="#F2F4F8"/>
<path d="M739.409 17.1205C749.275 17.2094 758.709 21.4045 765.656 28.7921C772.602 36.1798 776.5 46.1618 776.5 56.5649H792.487C792.487 41.7136 786.914 27.4655 776.984 16.9324C767.054 6.39944 753.574 0.437363 739.489 0.348297L739.409 17.1205Z" fill="#F2F4F8"/>
</g>
<path d="M180.256 47.1729H208.16V226.373H173.344V85.3169L132.128 111.685V77.6368L180.256 47.1729Z" fill="#0373FF"/>
</g>
</svg>
