<svg width="184" height="175" viewBox="0 0 184 175" fill="none" xmlns="http://www.w3.org/2000/svg">
<path d="M26.9634 100.429L1.38378 101.493L0.474854 80.9228L26.0269 79.8018L26.2087 83.9159L4.41009 84.8625L4.9328 97.2157L26.7427 96.2635L26.9634 100.429ZM34.1352 77.9837L9.50728 70.5578L10.6089 67.0657L12.9496 67.8453C12.2732 66.8586 11.8182 65.7374 11.6156 64.5584C11.4023 63.1438 11.5296 61.6987 11.9869 60.3432C12.4185 58.774 13.2808 57.357 14.4762 56.2527C15.6716 55.1483 17.1523 54.4007 18.7507 54.0945C20.4378 53.7872 22.1749 53.9043 23.8055 54.4353C25.0283 54.8028 26.1775 55.3811 27.2011 56.1442C28.164 56.8713 28.9737 57.7815 29.5837 58.8226C30.1924 59.849 30.5812 60.9906 30.7255 62.1751C30.8707 63.4358 30.7477 64.713 30.3648 65.9229C30.0228 67.1631 29.4018 68.3088 28.5493 69.2722C27.7838 70.1336 26.8457 70.8242 25.7958 71.2991L35.3191 74.1714L34.1352 77.9837ZM26.6846 65.5572C27.0194 64.5618 27.0851 63.4956 26.8751 62.4667C26.6549 61.4964 26.1643 60.6084 25.4601 59.9056C24.6479 59.1489 23.6721 58.5899 22.6085 58.2719C21.545 57.9538 20.4225 57.8854 19.3282 58.0719C18.3537 58.2693 17.4557 58.7405 16.7396 59.4302C16.0143 60.1581 15.4887 61.0604 15.2134 62.0504C14.8998 63.0449 14.8459 64.1031 15.057 65.1243C15.2712 66.0969 15.7627 66.9865 16.4719 67.6855C17.282 68.4442 18.2562 69.0059 19.3187 69.3268C20.3811 69.6478 21.5033 69.7193 22.598 69.5359C23.5755 69.3322 24.4752 68.8554 25.1925 68.1608C25.92 67.4306 26.4491 66.5269 26.7299 65.5352L26.6846 65.5572ZM38.8077 48.4484C37.834 49.9305 36.4787 51.1227 34.8844 51.8994C33.3874 52.6293 31.7256 52.9554 30.0638 52.8454C28.6013 52.7306 27.184 52.2846 25.9193 51.5413C24.6546 50.7979 23.5755 49.7766 22.7637 48.5546C22.0844 47.5166 21.6145 46.3559 21.3803 45.1376C21.1371 43.8969 21.1391 42.6205 21.3863 41.3805C21.6589 40.0616 22.1931 38.8107 22.9574 37.7018C23.9278 36.2168 25.284 35.0238 26.8807 34.2508C28.3818 33.5204 30.0468 33.1926 31.7127 33.2993C33.8014 33.4576 35.7808 34.2959 37.348 35.6859C38.9152 37.0758 39.9839 38.9408 40.3906 40.9957C40.6321 42.2345 40.634 43.508 40.396 44.7474C40.1414 46.0749 39.6223 47.3376 38.8696 48.4603L38.8077 48.4484ZM35.8716 46.4458C36.4654 45.5905 36.8307 44.5977 36.9329 43.5616C37.0117 42.5656 36.8075 41.5676 36.3438 40.6825C35.7959 39.7189 35.0339 38.8941 34.1164 38.272C33.199 37.6499 32.1508 37.247 31.0529 37.0946C30.0614 36.987 29.0599 37.1681 28.1689 37.6161C27.2434 38.0989 26.4565 38.8099 25.8825 39.6818C25.2835 40.5305 24.9158 41.5206 24.8157 42.5546C24.7274 43.547 24.9302 44.5435 25.3993 45.4224C25.9519 46.3861 26.7173 47.2108 27.6372 47.8337C28.557 48.4565 29.607 48.8609 30.707 49.0161C31.6976 49.1135 32.6955 48.9288 33.5855 48.4833C34.5353 48.0302 35.346 47.3307 35.9334 46.4577L35.8716 46.4458ZM52.6208 33.4586C51.2719 34.6125 49.6502 35.402 47.9099 35.7521C46.2843 36.0764 44.601 35.9515 43.0411 35.3907C41.4684 34.781 40.0827 33.77 39.022 32.4585C38.1711 31.4595 37.5301 30.2994 37.1372 29.0474C36.7557 27.8617 36.6231 26.6099 36.748 25.3706C36.8963 24.1019 37.2941 22.8752 37.9185 21.7609C38.5997 20.5493 39.5036 19.4772 40.5825 18.6008C41.4527 17.8544 42.4294 17.242 43.4803 16.7838C44.4872 16.3651 45.5588 16.1231 46.648 16.0681L47.1394 19.6672C46.3897 19.6402 45.6429 19.7744 44.9496 20.0609C44.2212 20.3525 43.5439 20.7579 42.9428 21.262C42.06 21.9726 41.3606 22.8847 40.9036 23.9218C40.5147 24.8517 40.4136 25.8768 40.6134 26.8648C40.8305 27.9709 41.3322 29.0013 42.0689 29.8544C42.5586 30.508 43.1789 31.0527 43.8903 31.4539C44.6017 31.8552 45.3887 32.1042 46.2014 32.1852C47.0198 32.2178 47.8364 32.0868 48.6036 31.7999C49.3708 31.513 50.073 31.076 50.6692 30.5144C51.3455 29.9566 51.901 29.2667 52.3017 28.4869C52.6918 27.7752 52.9248 26.9882 52.9852 26.1789L56.432 27.3026C56.156 28.4908 55.6994 29.6296 55.0781 30.6793C54.4391 31.7355 53.6297 32.6787 52.6827 33.4705L52.6208 33.4586ZM63.0766 25.9308L56.3999 12.7633L51.0989 15.4562L49.6434 12.4665L63.8359 5.27687L65.2859 8.25518L59.9848 10.948L66.6615 24.1155L63.0766 25.9308ZM82.2503 19.6501C80.5273 20.0326 78.7326 19.9376 77.0595 19.3755C74.8658 18.6187 73.02 17.0937 71.863 15.0821C70.706 13.0705 70.316 10.7082 70.765 8.43145C71.0123 7.21668 71.4912 6.0609 72.1755 5.02713C72.8993 3.93591 73.8353 3.00149 74.9278 2.2795C76.0203 1.55751 77.2469 1.06271 78.5346 0.824573C80.2583 0.450892 82.0506 0.545725 83.7253 1.0992C85.4096 1.67674 86.8994 2.71261 88.0273 4.09038C89.1552 5.46815 89.8765 7.13323 90.1101 8.89842C90.3436 10.6636 90.0802 12.4589 89.3494 14.0826C88.6187 15.7063 87.4495 17.094 85.9734 18.0897C84.8739 18.8597 83.6276 19.3949 82.3121 19.662L82.2503 19.6501ZM81.555 16.1503C82.5783 15.9524 83.5313 15.4884 84.3182 14.805C85.0754 14.1533 85.6314 13.2995 85.9215 12.3435C86.2115 11.2728 86.2499 10.1496 86.0337 9.06161C85.8176 7.97364 85.3527 6.95042 84.6754 6.07196C84.0406 5.3117 83.2025 4.74793 82.2591 4.44661C81.2602 4.15575 80.2059 4.11038 79.1858 4.31436C78.1656 4.51835 77.2098 4.96565 76.3996 5.61824C75.6379 6.26245 75.0791 7.11349 74.7908 8.06849C74.4862 9.13778 74.4529 10.2662 74.6941 11.3515C74.8836 12.4495 75.3518 13.4805 76.0538 14.3458C76.6908 15.1035 77.5281 15.6667 78.47 15.9712C79.4844 16.3325 80.5781 16.4103 81.6334 16.1961L81.555 16.1503ZM114.134 20.1396L110.207 9.51356L117.375 2.33969L121.568 3.21212L114.487 10.2179L118.838 21.1132L114.134 20.1396ZM102.364 17.7168L106.01 0L109.95 0.813419L108.543 7.6483L113.871 8.75243L113.257 12.0075L107.928 10.9033L106.355 18.5194L102.364 17.7168ZM126.827 25.783C125.331 25.0248 124.074 23.867 123.196 22.438C122.364 21.071 121.924 19.5014 121.925 17.9012C121.918 16.1876 122.351 14.5007 123.183 13.0025C123.784 11.8446 124.595 10.8084 125.575 9.94657C126.479 9.14606 127.533 8.53302 128.676 8.14301C129.809 7.7617 131.01 7.62093 132.201 7.72967C133.465 7.86142 134.692 8.23993 135.811 8.84379C137.22 9.52532 138.403 10.5976 139.22 11.933C139.915 13.1041 140.28 14.4411 140.278 15.8028L139.36 16.2494L141.428 12.4408L144.582 14.1134L136.11 30.0891L132.956 28.4166L135.024 24.608L135.115 25.6285C133.986 26.3888 132.675 26.8338 131.316 26.9177C129.742 26.98 128.183 26.586 126.827 25.783ZM128.959 22.882C129.857 23.3845 130.874 23.6346 131.903 23.606C132.899 23.5829 133.866 23.2723 134.69 22.7117C135.606 22.0933 136.348 21.2496 136.845 20.2616C137.39 19.2803 137.677 18.1766 137.679 17.054C137.677 16.059 137.392 15.0851 136.858 14.2457C136.296 13.3836 135.517 12.6854 134.598 12.222C133.695 11.7244 132.679 11.4709 131.648 11.4867C130.658 11.5162 129.697 11.8286 128.879 12.3868C127.955 13.0084 127.205 13.8555 126.701 14.848C126.164 15.8303 125.882 16.9309 125.878 18.0501C125.891 19.0392 126.173 20.0062 126.694 20.8471C127.259 21.714 128.045 22.4145 128.97 22.8765L128.959 22.882ZM147.661 40.9817L150.155 29.9617L160.041 27.8244L163.101 30.831L153.313 32.7948L151.045 44.3073L147.661 40.9817ZM139.098 32.543L151.858 19.6488L154.712 22.4617L149.821 27.4346L153.684 31.2553L151.361 33.6191L147.486 29.8039L142.014 35.3397L139.098 32.543ZM149.493 55.709L173.361 46.0643L174.717 49.4247L172.375 50.3688C173.526 50.7059 174.587 51.2943 175.483 52.0916C176.533 53.0635 177.337 54.271 177.829 55.6145C178.475 57.1344 178.682 58.8054 178.425 60.4371C178.172 62.0068 177.492 63.4766 176.459 64.6861C175.338 66.0012 173.901 67.0095 172.283 67.6162C171.113 68.1057 169.863 68.3769 168.596 68.4165C167.389 68.4537 166.188 68.2534 165.059 67.827C163.94 67.4086 162.922 66.7586 162.071 65.9196C161.156 65.0182 160.442 63.9338 159.975 62.7373C159.469 61.5554 159.238 60.274 159.3 58.9898C159.358 57.8357 159.658 56.7067 160.18 55.6756L150.958 59.4085L149.493 55.709ZM163.06 60.7871C163.435 61.7618 164.057 62.6224 164.865 63.2848C165.647 63.8985 166.585 64.2811 167.574 64.3893C168.679 64.4965 169.794 64.3203 170.812 63.8772C171.856 63.4855 172.783 62.8365 173.508 61.9905C174.143 61.2189 174.547 60.2841 174.675 59.2933C174.776 58.2626 174.626 57.2227 174.236 56.2629C173.847 55.3031 173.231 54.4522 172.44 53.7831C171.665 53.1526 170.725 52.7593 169.731 52.6504C168.625 52.5735 167.516 52.7496 166.488 53.1652C165.459 53.5808 164.539 54.2251 163.797 55.0492C163.162 55.8208 162.758 56.7556 162.631 57.7464C162.506 58.7835 162.66 59.8352 163.077 60.7929L163.06 60.7871ZM164.215 81.0557C164.064 79.3834 164.387 77.7025 165.145 76.2043C165.869 74.7766 166.968 73.5731 168.325 72.7229C169.788 71.8064 171.461 71.281 173.185 71.1971C174.487 71.0987 175.795 71.2404 177.045 71.6153C178.2 71.9666 179.276 72.5364 180.216 73.2937C181.135 74.0572 181.883 75.0056 182.411 76.0772C182.98 77.2143 183.308 78.4566 183.375 79.7263C183.557 81.3 183.282 82.8927 182.583 84.3145C181.948 85.5328 180.993 86.5549 179.82 87.2708L178.93 86.7656L183.282 86.4681L183.525 90.0476L165.492 91.2763L165.237 87.7023L169.6 87.3992L168.783 88.0214C167.536 87.4549 166.464 86.5643 165.678 85.4425C164.784 84.1487 164.276 82.6272 164.215 81.0557ZM167.879 81.3311C167.929 82.3569 168.248 83.3513 168.806 84.2138C169.357 85.0375 170.126 85.6913 171.028 86.1018C172.056 86.5191 173.165 86.6969 174.271 86.6218C175.378 86.5466 176.453 86.2205 177.415 85.6681C178.238 85.1447 178.895 84.3973 179.308 83.5137C179.747 82.5636 179.917 81.5117 179.802 80.4715C179.753 79.4411 179.436 78.4415 178.881 77.572C178.324 76.7505 177.551 76.0989 176.647 75.6895C175.631 75.2458 174.518 75.0693 173.414 75.1764C172.301 75.2287 171.22 75.5623 170.271 76.1459C169.434 76.6755 168.763 77.4296 168.333 78.3222C167.913 79.2658 167.756 80.3055 167.879 81.3311ZM163.159 100.986C163.359 100.027 163.637 99.0861 163.988 98.1722C164.325 97.3221 164.745 96.5075 165.242 95.7407C165.721 95.0132 166.305 94.3607 166.975 93.8044L169.266 96.0931C168.454 96.7271 167.788 97.529 167.315 98.4439C166.819 99.3993 166.452 100.416 166.224 101.469C165.921 102.628 165.888 103.842 166.13 105.016C166.228 105.451 166.454 105.845 166.779 106.149C167.105 106.453 167.514 106.652 167.954 106.72C168.358 106.816 168.782 106.78 169.164 106.616C169.546 106.453 169.866 106.172 170.076 105.813C170.762 104.677 171.23 103.423 171.456 102.115L172.211 98.8619L175.139 99.5519L174.463 102.682C174.162 103.833 174.084 105.032 174.234 106.212C174.281 106.597 174.451 106.958 174.719 107.239C174.987 107.519 175.339 107.706 175.722 107.771C175.941 107.825 176.169 107.833 176.391 107.795C176.614 107.756 176.826 107.672 177.014 107.548C177.457 107.214 177.811 106.777 178.047 106.275C178.377 105.61 178.618 104.904 178.762 104.176C178.972 103.178 179.027 102.155 178.924 101.141C178.837 100.17 178.55 99.2268 178.08 98.372L181.019 97.4736C181.601 98.6279 181.952 99.8851 182.05 101.174C182.175 102.517 182.093 103.871 181.805 105.188C181.552 106.528 181.076 107.816 180.396 108.998C179.88 109.911 179.121 110.663 178.204 111.172C177.351 111.618 176.365 111.739 175.429 111.514C174.557 111.344 173.782 110.851 173.258 110.133C172.678 109.306 172.361 108.323 172.347 107.313C171.901 108.423 171.124 109.369 170.121 110.021C169.202 110.56 168.11 110.72 167.075 110.468C165.964 110.252 164.961 109.663 164.231 108.799C163.482 107.853 163.016 106.716 162.886 105.517C162.697 104.003 162.789 102.466 163.159 100.986ZM155.319 109.887L157.578 109.32C157.618 110.287 157.792 111.244 158.095 112.164C158.309 112.913 158.689 113.604 159.206 114.187C159.358 113.705 159.625 113.267 159.985 112.911C160.336 112.596 160.767 112.386 161.231 112.304C161.722 112.186 162.239 112.235 162.7 112.444C163.031 112.569 163.332 112.762 163.584 113.011C163.836 113.26 164.032 113.56 164.16 113.89C164.408 114.574 164.377 115.328 164.076 115.99C163.931 116.375 163.705 116.724 163.414 117.014C163.122 117.303 162.771 117.526 162.385 117.668C161.523 117.94 160.589 117.867 159.779 117.466C159.004 117.13 158.316 116.621 157.767 115.98C157.112 115.227 156.593 114.366 156.234 113.434C155.778 112.296 155.471 111.104 155.319 109.887ZM144.095 136.841L154.945 146.842L159.897 141.475L158.14 139.851C157.039 138.846 156.011 137.764 155.065 136.613C154.282 135.676 153.655 134.619 153.205 133.484C152.806 132.459 152.661 131.352 152.783 130.258C152.958 129.016 153.389 127.823 154.048 126.756L156.712 127.883C156.166 128.776 155.951 129.832 156.105 130.867C156.333 131.943 156.822 132.946 157.528 133.789C158.491 134.974 159.545 136.081 160.681 137.101L164.876 140.97L154.676 152.044L141.376 139.803L144.095 136.841ZM150.341 121.991L156.712 127.883L154.841 129.536L154.709 130.244L141.313 144.737L134.887 138.76L137.383 136.06L141.377 139.719L151.862 128.366L147.829 124.657L150.341 121.991ZM137.122 143.149L146.206 158.787L138.747 163.119C137.293 164.066 135.599 164.579 133.864 164.599C133.168 164.579 132.49 164.372 131.901 164.002C131.312 163.631 130.832 163.109 130.512 162.491C130.158 161.904 129.98 161.227 129.998 160.542C130.02 159.854 130.206 159.182 130.542 158.582C130.928 157.902 131.428 157.294 132.02 156.784L132.531 157.516C131.302 158.099 129.921 158.282 128.582 158.037C128.002 157.899 127.457 157.64 126.983 157.277C126.509 156.913 126.117 156.454 125.833 155.93C125.308 155.063 125.066 154.054 125.143 153.044C125.274 152.005 125.694 151.024 126.355 150.212C127.187 149.202 128.201 148.356 129.345 147.72L137.122 143.149ZM135.254 147.687L131.321 149.966C130.457 150.402 129.729 151.066 129.216 151.887C129.04 152.203 128.952 152.562 128.963 152.924C128.974 153.286 129.083 153.639 129.279 153.944C129.446 154.258 129.695 154.522 129.999 154.706C130.304 154.891 130.652 154.99 131.008 154.993C131.979 154.949 132.919 154.641 133.727 154.103L138.092 151.558L139.536 154.035L135.506 156.376C134.7 156.793 134.011 157.403 133.499 158.151C133.316 158.446 133.224 158.787 133.233 159.134C133.243 159.48 133.353 159.816 133.551 160.101C133.704 160.411 133.941 160.671 134.235 160.853C134.529 161.034 134.868 161.129 135.213 161.127C136.124 161.065 137.002 160.767 137.763 160.264L141.334 158.189L135.254 147.687ZM112.997 153.619C114.618 153.189 116.327 153.221 117.931 153.711C119.462 154.195 120.831 155.088 121.892 156.293C123.025 157.57 123.815 159.114 124.188 160.779C124.5 162.055 124.574 163.377 124.405 164.679C124.244 165.868 123.849 167.012 123.243 168.047C122.649 169.08 121.845 169.977 120.883 170.681C119.848 171.421 118.677 171.949 117.436 172.233C115.927 172.656 114.328 172.637 112.829 172.178C111.538 171.756 110.382 170.999 109.478 169.986L109.832 169.015L110.846 173.256L107.362 174.098L103.154 156.534L106.627 155.698L107.646 159.951L106.899 159.25C107.239 157.931 107.925 156.727 108.885 155.761C110.021 154.666 111.449 153.922 112.997 153.619ZM113.337 157.194C112.33 157.414 111.401 157.9 110.646 158.602C109.913 159.275 109.388 160.143 109.133 161.104C108.861 162.181 108.871 163.31 109.16 164.383C109.381 165.474 109.876 166.491 110.599 167.339C111.257 168.097 112.119 168.65 113.083 168.931C114.076 169.193 115.118 169.208 116.118 168.975C117.118 168.742 118.045 168.268 118.82 167.595C119.57 166.897 120.106 166 120.363 165.008C120.63 163.927 120.618 162.795 120.33 161.718C120.115 160.625 119.619 159.606 118.891 158.763C118.229 158.01 117.368 157.458 116.407 157.17C115.392 156.912 114.327 156.928 113.32 157.217L113.337 157.194ZM99.0067 150.779L100.435 152.619C99.566 153.044 98.7603 153.587 98.0407 154.233C97.4395 154.734 96.9559 155.362 96.6242 156.071C97.1398 156.02 97.66 156.099 98.1371 156.301C98.5739 156.486 98.9523 156.786 99.232 157.169C99.5067 157.57 99.6547 158.045 99.657 158.531C99.6746 158.885 99.6172 159.239 99.4884 159.57C99.3597 159.901 99.1626 160.2 98.91 160.45C98.6484 160.7 98.3398 160.897 98.002 161.027C97.6641 161.158 97.3038 161.221 96.9416 161.212C96.5327 161.236 96.1234 161.17 95.7426 161.019C95.3618 160.868 95.0186 160.635 94.7371 160.338C94.1372 159.661 93.827 158.776 93.8732 157.873C93.8726 157.029 94.0603 156.196 94.4228 155.434C94.8472 154.535 95.4259 153.717 96.1327 153.018C96.9774 152.169 97.9258 151.43 98.9556 150.818L99.0067 150.779ZM78.1972 154.074L74.0311 168.219L79.7252 169.902L78.8121 173.148L63.5547 168.655L64.4954 165.465L70.2063 167.153L74.3668 152.996L78.1972 154.074ZM70.7494 144.041L57.0549 165.921L54.0279 163.991L55.3744 161.837C54.2458 162.231 53.045 162.376 51.8549 162.261C50.3333 162.044 48.8823 161.478 47.6154 160.608C46.3485 159.738 45.2998 158.586 44.5513 157.244C43.8531 155.807 43.5585 154.207 43.699 152.616C43.8423 150.91 44.4033 149.266 45.3325 147.828C46.0056 146.747 46.8643 145.793 47.869 145.01C48.8361 144.288 49.9312 143.754 51.0965 143.439C52.2503 143.131 53.4542 143.06 54.6363 143.228C55.8919 143.421 57.0926 143.878 58.1597 144.567C59.2658 145.221 60.2096 146.117 60.9203 147.187C61.5376 148.162 61.9533 149.251 62.1426 150.389L67.4144 141.938L70.7494 144.041ZM56.7268 147.954C55.8499 147.386 54.8398 147.057 53.7965 146.999C52.803 146.961 51.8186 147.202 50.9557 147.696C50.0155 148.283 49.222 149.077 48.636 150.018C48.05 150.959 47.687 152.021 47.5747 153.124C47.5108 154.122 47.7328 155.117 48.2147 155.993C48.741 156.884 49.4746 157.636 50.3534 158.184C51.2321 158.731 52.2301 159.059 53.2624 159.139C54.2575 159.189 55.2459 158.951 56.1087 158.453C57.0752 157.899 57.8798 157.102 58.4428 156.14C59.054 155.214 59.4218 154.148 59.512 153.042C59.5774 152.044 59.3553 151.049 58.872 150.174C58.3649 149.258 57.6249 148.492 56.7268 147.954ZM48.529 138.539L34.7281 150.245L32.2135 147.267L41.5295 139.383L25.8819 139.815L23.612 137.138L37.4015 125.437L39.9162 128.415L30.4869 136.354L46.2979 135.913L48.529 138.539ZM27.2063 124.321L12.4953 132.604L10.3262 128.378L25.6167 121.229L27.2063 124.321ZM34.6354 118.547C34.9837 119.201 35.0742 119.961 34.8889 120.679C34.7983 121.037 34.6302 121.37 34.3965 121.656C34.1628 121.941 33.8691 122.172 33.5364 122.332C33.1083 122.575 32.6184 122.687 32.1272 122.655C31.636 122.623 31.165 122.448 30.7724 122.151C30.3619 121.861 30.0292 121.474 29.8042 121.025C29.4523 120.374 29.3577 119.615 29.5394 118.899C29.6331 118.538 29.8055 118.203 30.0442 117.917C30.283 117.631 30.5821 117.402 30.9201 117.246C31.36 117.011 31.8569 116.905 32.3541 116.94C32.8285 116.973 33.2837 117.14 33.6672 117.421C34.095 117.696 34.4474 118.074 34.692 118.519L34.6354 118.547Z" fill="#30D1FF"/>
</svg>
